<?xml version="1.0" encoding="UTF-8"?><svg id="_00" xmlns="http://www.w3.org/2000/svg" viewBox="0 0 100 100"><path d="m82.46,79.98c0,4.6-2.79,7.4-7.56,7.4H25.01c-4.69,0-7.48-2.79-7.48-7.4V22.2c0-4.6,2.79-7.4,7.48-7.4h49.89c4.77,0,7.56,2.79,7.56,7.4v57.79Zm-59.92,2.79h54.99V19.4H22.54v63.38Zm22.69-30.66l-.74-20.14c-.25-.08-.41-.16-.58-.25l-8.06,8.22c1.48.99,2.47,2.63,2.63,4.85.33,3.86-1.97,6.66-5.84,6.99s-6.66-1.97-6.99-5.84c-.33-3.86,1.97-6.66,5.84-6.99.49-.08.9-.08,1.31-.08l9.12-9.29c-.16-.41-.25-.82-.33-1.23l-7.81-.66c-.49,1.81-2.14,3.21-4.11,3.21-2.3,0-4.19-1.89-4.19-4.19s1.89-4.19,4.19-4.19c1.73,0,3.12.99,3.78,2.47l8.79.74c.74-1.15,2.06-1.97,3.54-1.97,2.3,0,4.19,1.89,4.19,4.19,0,.25,0,.49-.08.74l5.84,5.1c1.32-1.07,3.04-1.56,4.69-1.56.9,0,1.64.08,2.38.41l2.46-3.86c-.41-.66-.66-1.4-.66-2.3,0-2.3,1.89-4.19,4.19-4.19s4.19,1.89,4.19,4.19-1.89,4.19-4.19,4.19c-.41,0-.74,0-1.15-.17l-2.47,3.78c.82.99,1.32,2.3,1.48,3.78.16,2.3-.58,4.19-1.97,5.51l4.6,5.67c.33-.08.66-.08.99-.08,2.3,0,4.19,1.89,4.19,4.19s-1.89,4.19-4.19,4.19-4.19-1.89-4.19-4.19c0-.9.33-1.81.82-2.47l-4.93-6c-.41.08-.74.17-1.23.17-.9.08-1.73,0-2.55-.17l-7.15,9.21c.25.49.33,1.07.33,1.64,0,2.38-1.89,4.19-4.19,4.19s-4.19-1.81-4.19-4.19c0-1.56.9-2.96,2.22-3.62Zm-17.43,15.95v-4.6h44.14v4.6H27.8Zm0,9.29v-4.68h44.14v4.68H27.8Zm4.19-28.93h.33c1.81-.16,2.96-1.48,2.79-3.29-.17-1.73-1.32-2.79-2.96-2.79h-.33c-1.81.16-2.96,1.48-2.79,3.29.16,1.73,1.32,2.79,2.96,2.79Zm22.19-12.41l-5.59-4.85c-.41.33-.9.58-1.4.82l.66,19.65c.41.08.82.16,1.15.33l6.58-8.55c-.99-1.07-1.64-2.47-1.81-4.19-.08-1.15.08-2.3.41-3.21Zm6,5.67h.33c1.81-.17,2.88-1.48,2.71-3.29-.16-1.73-1.31-2.79-2.96-2.79h-.33c-1.81.16-2.88,1.48-2.71,3.29.16,1.73,1.31,2.79,2.96,2.79Z"/></svg>