<?xml version="1.0" encoding="UTF-8"?><svg id="_00" xmlns="http://www.w3.org/2000/svg" viewBox="0 0 100 100"><path d="m64.96,65.6c-5.1.41-7.73,4.93-8.06,7.48l-1.56,12.41H5.2l.74-6.08c.49-4.27,5.51-7.32,9.21-7.32l1.4.08c1.48,3.21,4.11,5.51,8.22,5.51s6.82-1.97,8.55-5.59h4.11l.66-18.33c.16-4.77,3.78-6.74,7.48-7.07,1.31,2.3,4.19,4.69,8.05,4.69s6.66-2.06,7.97-4.77c1.97.33,2.55.74,3.37,1.56-3.29,5.1-2.79,12.58,0,17.43Zm-39.87,8.88c-3.21,0-6.25-2.05-8.63-11.34-1.64-6.41-.33-13.48,5.84-13.56h5.59c5.67,0,7.4,7.23,5.75,13.56-2.38,9.21-5.34,11.34-8.55,11.34Zm-.08-3.45c1.89,0,3.37-1.73,4.69-5.59.99-3.12,1.4-8.55-1.56-8.55-1.32,0-1.73,1.56-3.12,1.56-1.31,0-1.73-1.56-3.12-1.56-3.04,0-2.14,5.84-1.4,8.55,1.07,3.86,2.71,5.59,4.52,5.59Zm28.44-24.17c-3.7,0-5.92-3.04-7.4-6.9-3.37,0-4.52-1.97-3.53-5.67l1.48-5.26c.99-3.62,2.22-6.16,6.17-6.16h5.59c3.12,0,5.43,2.55,6.41,6l1.56,5.26c.99,3.7-.49,5.59-3.21,5.59-.82,3.45-3.37,7.15-7.07,7.15Zm-4.93-8.96c.9,4.03,2.88,6,4.93,6,1.81,0,3.7-2.05,4.69-5.75l-1.23-8.3c-1.81,1.73-4.77,2.38-8.22,2.38l-.16,5.67Zm45.87,47.59h-36.17l.99-9.78c.41-4.36,6.08-6.74,8.14-6.82,1.48,3.04,3.95,6.08,8.47,6.08,5.26,0,7.32-2.96,8.96-6.08,1.23,0,8.38,1.89,8.79,7.4l.82,9.21Zm-22.61-3.04c-.58-2.3-1.89-4.6-4.52-4.6-3.04,0-4.03,2.3-4.77,4.6h9.29Zm4.27-10.77c-3.7,0-5.92-3.04-7.4-8.96-2.63,0-3.04-3.53-3.04-7.4,0-5.59,4.77-7.64,8.79-7.64h2.88c4.69-.08,8.47,1.89,8.47,7.15,0,3.78-.41,7.73-2.63,7.73-.82,5.43-3.37,9.12-7.07,9.12Zm-4.68-10.85c.41,4.19,2.22,7.89,4.68,7.89s4.03-3.54,4.85-7.56l-.99-6.99c-1.89,1.89-5.01,2.63-8.63,2.63l.08,4.03Z"/></svg>