<?xml version="1.0" encoding="UTF-8"?><svg id="_00" xmlns="http://www.w3.org/2000/svg" viewBox="0 0 100 100"><path d="m84.19,78.17c0,4.52-2.71,7.31-7.56,7.31H22.71c-4.69,0-7.48-2.79-7.48-7.31V23.84c0-4.6,2.79-7.4,7.48-7.4h53.92c4.85,0,7.56,2.79,7.56,7.4v54.33Zm-22.19-22.36c-1.81-.08-4.44-1.23-4.44-4.52,0-2.47,1.97-4.44,4.44-4.52,2.22,0,4.36-.33,6.25-1.48,5.51-3.12,7.32-10.11,4.19-15.54-2.14-3.62-5.92-5.67-9.86-5.67-6.25,0-11.34,5.1-11.34,11.34,0,2.22.74,4.27,1.73,6.17.9,1.56,1.32,4.52-1.56,6.17-.66.41-1.4.58-2.14.58-1.56,0-3.12-.82-4.03-2.3-2.38-3.7-5.51-6.08-10.11-6.08-3.95,0-7.73,2.05-9.86,5.67-3.12,5.42-1.23,12.41,4.19,15.54,1.81.99,3.7,1.56,5.67,1.56,4.6,0,7.73-2.47,10.11-6.17.66-1.07,2.06-2.38,3.86-2.38.74,0,1.48.25,2.3.66,2.14,1.32,2.79,4.03,1.56,6.25-.99,1.89-1.73,3.86-1.73,6.08,0,6.25,5.1,11.43,11.34,11.43s11.43-5.18,11.43-11.43c0-4.03-2.22-7.81-5.75-9.86-1.89-1.07-4.03-1.4-6.25-1.48Z"/></svg>