<?xml version="1.0" encoding="UTF-8"?><svg id="_00" xmlns="http://www.w3.org/2000/svg" viewBox="0 0 100 100"><path d="m88.96,80.56l.08,4.93H17.53c-8.05,0-9.37-8.05-6.08-12.66l9.86-13.89c2.88-4.03,6.08-6.08,10.03-6.08,1.4,0,2.96.25,4.6.82v-.74c0-2.55-.9-3.53-2.55-5.67-2.47-3.21-3.62-5.92-3.62-10.52,0-3.12,1.07-6,2.05-7.15l-4.68-3.12c4.85-7.97,15.95-12.82,27.54-12.82,9.04,0,17.1,2.55,23.84,6.25l-9.45,9.37,4.69,13.32c.99,2.71-.41,5.34-3.12,5.1l-1.4-.08.33,3.86c.33,4.52-2.55,5.92-6.17,5.92h-3.78l.08,2.63c3.37,0,8.38,1.23,10.03,4.93.74,1.56.74,4.03.49,5.51,1.4-.66,3.04-1.32,4.44-1.32,4.69,0,9.7,2.88,12.25,7.56l2.05,3.86Zm-48.83-30.08v5.01l15.04,18.66v-15.78c0-2.63,1.48-4.52,5.1-4.77l5.67-.33-.33-9.04h4.11l-4.19-12.74h-4.93c-3.95-4.11-6.74-6.49-14.47-6.49-6,0-11.84,5.67-11.84,11.01,0,4.85,1.73,8.3,3.7,11.18l2.14,3.29Zm4.03-4.44c-2.79-2.88-4.77-5.75-3.95-8.22.41-1.32,1.89-2.88,3.86-2.88h3.37v3.45h-1.89c-.82,0-1.81.66-1.81,1.89,0,1.48.58,2.38,1.81,4.85h.99c1.48,0,2.71,1.15,2.71,2.63s-1.32,2.71-2.88,2.71-2.79-1.23-2.79-2.71c0-.82.25-1.32.58-1.73Zm10.28-5.34c0-1.89,1.15-2.96,2.96-2.96s2.88,1.07,2.88,2.96-1.15,2.96-2.88,2.96-2.96-1.07-2.96-2.96Zm3.95,35.59l.08,5.42h26.96c-2.55-5.84-6.16-8.47-10.77-8.47-5.1,0-6.99,3.04-16.28,3.04Z"/></svg>