<?xml version="1.0" encoding="UTF-8"?><svg id="_00" xmlns="http://www.w3.org/2000/svg" viewBox="0 0 100 100"><path d="m39.64,22.11c0,2.88-.9,3.86-4.03,3.86h-10.69v2.38h10.69c3.12,0,4.03.9,4.03,3.86v3.37c0,2.96-.9,3.95-4.03,3.95H9.64c-2.96,0-3.95-.99-3.95-3.95v-3.37c0-2.96.99-3.86,3.95-3.86h9.7v-2.38h-9.7c-2.96,0-3.95-.99-3.95-3.86v-3.45c0-2.88.99-3.86,3.95-3.86h25.97c3.12,0,4.03.99,4.03,3.86v3.45Zm0,47.02c0,2.88-.9,4.69-4.03,4.69h-10.69v2.38h10.69c3.12,0,4.03.99,4.03,3.86v3.45c0,2.88-.9,3.86-4.03,3.86H9.64c-2.96,0-3.95-.99-3.95-3.86v-3.45c0-2.88.99-3.86,3.95-3.86h9.7v-2.38h-9.7c-2.96,0-3.95-.99-3.95-3.86v-3.45c0-2.88.99-3.86,3.95-3.86h25.97c3.12,0,4.03.99,4.03,3.86v2.63ZM12.68,22.44c1.23,0,2.06-.82,2.06-2.06,0-1.31-.82-2.14-2.06-2.14-1.31,0-2.14.82-2.14,2.14,0,1.23.82,2.06,2.14,2.06Zm0,13.56c1.23,0,2.06-.82,2.06-2.05,0-1.32-.82-2.14-2.06-2.14-1.31,0-2.14.82-2.14,2.14,0,1.23.82,2.05,2.14,2.05Zm0,34.36c1.23,0,2.06-.82,2.06-2.14s-.82-2.14-2.06-2.14c-1.31,0-2.14.82-2.14,2.14s.82,2.14,2.14,2.14Zm0,13.56c1.23,0,2.06-.82,2.06-2.14s-.82-2.14-2.06-2.14c-1.31,0-2.14.82-2.14,2.14s.82,2.14,2.14,2.14Zm7.23-41.92h4.19v18.08h-4.19v-18.08Zm.74-24.25v5.18h3.12v-5.18h-3.12Zm0,13.56v5.18h3.12v-5.18h-3.12Zm0,34.36v5.18h3.12v-5.18h-3.12Zm0,13.48v5.18h3.12v-5.18h-3.12Zm6.33-61.4v5.18h3.21v-5.18h-3.21Zm0,13.56v5.18h3.21v-5.18h-3.21Zm0,34.36v5.18h3.21v-5.18h-3.21Zm0,13.48v5.18h3.21v-5.18h-3.21Zm6.33-61.4v5.18h3.12v-5.18h-3.12Zm0,13.56v5.18h3.12v-5.18h-3.12Zm0,34.36v5.18h3.12v-5.18h-3.12Zm0,13.48v5.18h3.12v-5.18h-3.12Zm11.92-33.7c-1.64,1.4-2.63,3.45-2.63,5.75,0,4.03,3.29,7.32,7.32,7.32s7.4-3.29,7.4-7.32c0-2.38-1.07-4.44-2.79-5.84l2.63-3.21c2.71,2.22,4.36,5.51,4.36,9.04,0,6.33-5.18,11.51-11.59,11.51s-11.51-5.18-11.51-11.51c0-3.53,1.56-6.82,4.28-9.04l2.55,3.29Zm-4.03-15.62v-4.11h16.28v4.11h-16.28Zm0,47.68v-4.19h16.28v4.19h-16.28Zm6.66-37.24h4.11v12h-4.11v-12Zm45.29-18.17c0,2.88-.99,3.86-4.03,3.86h-10.69v2.38h10.69c3.04,0,4.03.9,4.03,3.86v3.37c0,2.96-.99,3.95-4.03,3.95h-25.97c-3.04,0-3.95-.99-3.95-3.95v-3.37c0-2.96.9-3.86,3.95-3.86h9.7v-2.38h-9.7c-3.04,0-3.95-.99-3.95-3.86v-3.45c0-2.88.9-3.86,3.95-3.86h25.97c3.04,0,4.03.99,4.03,3.86v3.45Zm0,47.84c0,2.88-.99,3.86-4.03,3.86h-10.69v2.38h10.69c3.04,0,4.03.99,4.03,3.86v3.45c0,2.88-.99,3.86-4.03,3.86h-25.97c-3.04,0-3.95-.99-3.95-3.86v-3.45c0-2.88.9-3.86,3.95-3.86h9.7v-2.38h-9.7c-3.04,0-3.95-.99-3.95-3.86v-3.45c0-2.88.9-3.86,3.95-3.86h25.97c3.04,0,4.03.99,4.03,3.86v3.45Zm-26.96-47.51c1.23,0,2.06-.82,2.06-2.06,0-1.31-.82-2.14-2.06-2.14-1.31,0-2.14.82-2.14,2.14,0,1.23.82,2.06,2.14,2.06Zm0,13.56c1.23,0,2.06-.82,2.06-2.05,0-1.32-.82-2.14-2.06-2.14-1.31,0-2.14.82-2.14,2.14,0,1.23.82,2.05,2.14,2.05Zm0,34.36c1.23,0,2.06-.82,2.06-2.06,0-1.31-.82-2.14-2.06-2.14-1.31,0-2.14.82-2.14,2.14,0,1.23.82,2.06,2.14,2.06Zm0,13.56c1.23,0,2.06-.82,2.06-2.14s-.82-2.14-2.06-2.14c-1.31,0-2.14.82-2.14,2.14s.82,2.14,2.14,2.14Zm7.48-41.92h4.19v18.08h-4.19v-18.08Zm.49-24.25v5.18h3.12v-5.18h-3.12Zm0,13.56v5.18h3.12v-5.18h-3.12Zm0,34.36v5.18h3.12v-5.18h-3.12Zm0,13.48v5.18h3.12v-5.18h-3.12Zm6.33-61.4v5.18h3.12v-5.18h-3.12Zm0,13.56v5.18h3.12v-5.18h-3.12Zm0,34.36v5.18h3.12v-5.18h-3.12Zm0,13.48v5.18h3.12v-5.18h-3.12Zm6.33-61.4v5.18h3.12v-5.18h-3.12Zm0,13.56v5.18h3.12v-5.18h-3.12Zm0,34.36v5.18h3.12v-5.18h-3.12Zm0,13.48v5.18h3.12v-5.18h-3.12Z"/></svg>