<?xml version="1.0" encoding="UTF-8"?><svg id="_00" xmlns="http://www.w3.org/2000/svg" viewBox="0 0 100 100"><path d="m52.46,90.01h-4.93v-2.71c-18.91-1.23-33.95-17.01-33.95-36.33S28.62,15.95,47.53,14.71v-3.21h4.93v3.86h11.84c3.45,0,6.82,1.4,6.82,5.51,0,1.48-1.15,3.21-2.63,4.19l.41,1.15,3.04-.74c1.97-.49,3.86.82,3.86,2.96v10.11c0,1.64-.66,2.96-2.22,3.37l.16.57c.82,2.71-.41,5.34-3.12,5.1l-1.4-.08.33,3.86c.33,4.52-2.55,5.92-6.17,5.92h-3.78l.08,2.63c3.37,0,8.38,1.23,10.03,4.85.74,1.64.74,4.11.49,5.59,1.4-.74,3.04-1.32,4.44-1.32,4.69,0,9.7,2.88,12.25,7.56l2.05,3.86.08,4.93h-36.58v4.6Zm-22.93-41.35c.25-4.28.99-8.63,2.38-12.58-2.55-1.15-4.85-2.47-7.07-4.11-3.54,4.69-5.75,10.52-6.25,16.69h10.93Zm-10.93,4.6c.41,5.67,2.38,11.1,5.34,15.54,2.3-1.73,4.77-3.21,7.32-4.44-.99-3.45-1.56-7.32-1.73-11.1h-10.93Zm22.93,28.11c-3.95-3.54-6.91-8.06-8.88-13.07-2.3.9-4.44,2.06-6.41,3.37,3.95,4.52,9.21,7.97,15.29,9.7Zm-8.06-49.24c2.05-4.44,4.93-8.47,8.63-11.67-5.75,1.48-10.85,4.52-14.8,8.71,1.89,1.15,4.03,2.14,6.17,2.96Zm13.97,16.52v-9.12c-3.78-.16-7.64-.74-11.26-1.89-.99,3.45-1.56,7.32-1.73,11.02h12.99Zm0,4.6h-12.99c.16,3.12.58,6.41,1.32,9.37,3.78-1.15,7.73-1.81,11.67-2.06v-7.32Zm0,12c-3.54.16-7.07.66-10.44,1.56,2.22,6.08,5.67,11.34,10.44,14.88v-16.44Zm0-45.29c-4.36,3.29-7.64,8.05-9.78,13.48,3.12.82,6.49,1.31,9.78,1.4v-14.88Zm11.51,19.73h-6.49v30.99l2.71,3.37v-15.78c0-2.63,1.48-4.6,5.1-4.77l5.67-.33-.33-9.04h4.19l-.74-2.63-10.11-1.81Zm-.58,36.5l.08,5.42h26.96c-2.55-5.92-6.9-8.47-10.77-8.47-5.1,0-6.99,3.04-16.28,3.04Zm3.62-38.72l9.95.99v-9.37l-9.95,1.56v6.82Z"/></svg>