<?xml version="1.0" encoding="UTF-8"?><svg id="_00" xmlns="http://www.w3.org/2000/svg" viewBox="0 0 100 100"><path d="m91.01,78.09c0,4.52-2.79,7.32-7.56,7.32H16.54c-4.68,0-7.48-2.79-7.48-7.32V23.76c0-4.6,2.79-7.4,7.48-7.4h66.91c4.77,0,7.56,2.79,7.56,7.4v54.33Zm-5.01,2.79V30.91H13.99v49.98h72.01ZM19.01,27.46c1.81,0,3.37-1.48,3.37-3.37s-1.56-3.29-3.37-3.29-3.37,1.48-3.37,3.29,1.48,3.37,3.37,3.37Zm12.66,7.23c7.64,0,13.81,6.17,13.81,13.81s-6.17,13.81-13.81,13.81-13.73-6.25-13.73-13.81,6.16-13.81,13.73-13.81Zm0,24.33c5.84,0,10.52-4.77,10.52-10.52s-4.69-10.52-10.52-10.52-10.52,4.69-10.52,10.52,4.77,10.52,10.52,10.52Zm0-18c4.11,0,7.48,3.37,7.48,7.48s-3.37,7.4-7.48,7.4-7.4-3.29-7.4-7.4,3.29-7.48,7.4-7.48Zm39.37,10.03l-7.97,13.65-10.19-4.11-11.84,17.1-4.03-2.88,13.97-20.39,9.95,4.03,5.67-9.7,3.78-5.92-.16-.16-4.36,1.81-4.69,1.4-1.48-4.69,16.6-5.18,5.18,16.6-4.77,1.48-1.4-4.69-1.07-4.69h-.17l-3.04,6.33Z"/></svg>