<?xml version="1.0" encoding="UTF-8"?><svg id="_00" xmlns="http://www.w3.org/2000/svg" viewBox="0 0 100 100"><path d="m50,14.63c20.06,0,36.33,16.28,36.33,36.33s-16.28,36.41-36.33,36.41S13.58,71.1,13.58,50.97,29.86,14.63,50,14.63Zm0,67.9c17.34,0,31.48-14.14,31.48-31.56s-14.14-31.48-31.48-31.48-31.48,14.14-31.48,31.48,14.06,31.56,31.48,31.56Zm0-58.11c14.63,0,26.55,11.92,26.55,26.55s-11.92,26.63-26.55,26.63-26.63-11.92-26.63-26.63,11.92-26.55,26.63-26.55Zm-17.43,14.3c-.99,0-2.14.9-2.3,4.77-.25,5.59-.25,16.36,2.3,21.37.49.82.99,1.23,1.64,1.23.9,0,2.05-.66,3.62-1.81,2.3-1.64,10.77-9.54,14.39-12.91,2.63-2.63,7.48-8.88,10.36-8.88.9,0,1.64.66,1.97,2.3.66,2.79,1.4,5.18.82,11.34-.08,1.23-.41,2.22-1.56,2.22-.74,0-1.73-.41-3.21-1.4-2.79-1.81-5.51-3.78-5.51-3.78,0,0-.49-.9-1.73.58-.99,1.23-1.48,1.48.08,2.38,1.56.99,9.37,6.33,12.33,7.15.74.25,1.31.33,1.89.33,1.31,0,2.05-.99,2.14-4.44,0-3.86-.25-14.88-1.64-19.65-.66-1.73-1.48-2.88-2.71-2.88-.82,0-1.89.58-3.29,1.89-2.63,2.63-22.11,21.7-24.82,21.7-.82,0-1.4-.74-1.97-2.71-.99-3.29-2.05-13.07.9-13.07.33,0,.66.08.99.25,2.55,1.23,3.86,1.23,2.88,1.97-1.07.82-3.95,3.53-3.95,3.53,0,0-.9.74-.49,2.3.25.58.33.99.66.99s.9-.41,2.05-1.48c2.22-2.14,3.95-3.78,3.95-3.78,0,0,.33-.58,1.4.49,1.15,1.07,1.31,1.31,1.31,1.31,0,0,.25.82,1.4-.58,1.15-1.32,1.89-2.14-.25-3.45-1.4-.82-12.41-7.32-13.64-7.32Z"/></svg>