<?xml version="1.0" encoding="UTF-8"?><svg id="_00" xmlns="http://www.w3.org/2000/svg" viewBox="0 0 100 100"><path d="m74,24.58l-42.58,62.8-4.11-2.71,2.71-3.95c-13.23-4.68-22.77-17.34-22.77-32.14,0-18.82,15.21-34.03,34.03-34.03,10.19,0,19.4,4.52,25.65,11.75l3.04-4.44,4.03,2.71Zm-41.35,52.2l2.71-4.03c-10.85-2.63-18.99-12.49-18.99-24.17,0-13.73,11.18-24.91,24.91-24.91,8.38,0,15.78,4.19,20.3,10.52l2.71-4.03c-5.42-6.74-13.73-11.01-23.02-11.01-16.28,0-29.51,13.15-29.51,29.43,0,13.23,8.8,24.49,20.88,28.19Zm3.54-15.86v-10.69h6.9c3.04,0,5.1.82,5.92,2.47l2.22-3.21c-1.07-.74-2.3-1.15-3.78-1.56v-.16c3.7-1.07,5.92-3.29,5.92-7.15,0-4.36-2.63-7.4-7.07-8.38v-5.26h-3.37v4.93h-3.04v-4.93h-3.37v4.93h-4.93v33.37h4.93v4.85h.66l2.71-4.03v-.82h.57l2.96-4.36h-7.23Zm0-15.04v-9.95h5.92c3.86,0,6,1.32,6,4.27v1.56c0,2.88-2.14,4.11-6,4.11h-5.92Zm3.7,24.08v.16h-.17l.17-.16Zm28.36-7.23c3.78,0,6.74,2.96,6.74,6.74s-2.96,6.74-6.74,6.74-6.74-3.04-6.74-6.74,3.04-6.74,6.74-6.74Z"/></svg>