<?xml version="1.0" encoding="UTF-8"?><svg id="_00" xmlns="http://www.w3.org/2000/svg" viewBox="0 0 100 100"><path d="m52.54,11.51v78.5h-4.93v-4.44h-31.24c-4.69,0-7.48-2.79-7.48-7.4V23.84c0-4.6,2.79-7.4,7.48-7.4h31.24v-4.93h4.93ZM13.91,80.97h33.7v-10.69c-2.63-.82-4.85-2.3-6.58-4.36-2.55,2.96-6.33,4.93-10.6,4.93-7.64,0-13.81-6.17-13.81-13.81s6.17-13.81,13.81-13.81c4.27,0,8.05,1.97,10.6,5.01,1.73-2.06,3.95-3.62,6.58-4.44v-12.74H13.91v49.89Zm5.01-53.35c2.05,0,3.29-1.32,3.29-3.37s-1.23-3.37-3.29-3.37-3.37,1.31-3.37,3.37,1.23,3.37,3.37,3.37Zm11.51,22.03c3.86,0,6.99,2.88,7.4,6.58.08-1.81.58-3.54,1.32-5.1-1.89-2.79-5.1-4.6-8.71-4.6-5.84,0-10.52,4.69-10.52,10.52s4.69,10.52,10.52,10.52c4.44,0,7.48-2.14,8.71-4.52-.74-1.64-1.23-3.37-1.32-5.18-.41,3.7-3.53,6.66-7.4,6.66-4.11,0-7.48-3.37-7.48-7.48s3.37-7.4,7.48-7.4Zm17.18,1.07v-3.37c-3.86,1.56-6.58,5.34-6.58,9.7s2.71,8.22,6.58,9.78v-3.45c-2.05-1.31-3.45-3.7-3.45-6.33s1.4-5.01,3.45-6.33Zm47.92-29.1c0,5.67-3.78,9.37-9.45,9.37-4.77,0-8.22-2.79-9.12-7.07l-6.99-.08-.08,6.08h-4.69v-6.08h-4.93v6.08h-4.77v-3.45c0-4.77,2.47-7.32,6.41-7.32h15.12c.9-4.19,4.36-6.9,9.12-6.9,5.59,0,9.37,3.78,9.37,9.37Zm0,25.4c0,5.59-3.78,9.37-9.45,9.37-4.77-.08-8.22-2.79-9.12-7.15h-6.99l-.08,6.08-4.69-.08v-6h-4.93v6h-4.77v-3.37c0-4.85,2.47-7.4,6.41-7.4h15.12c.9-4.19,4.36-6.91,9.12-6.91,5.59,0,9.37,3.78,9.37,9.45Zm0,25.81c0,5.59-3.78,9.37-9.45,9.37-4.77,0-8.22-2.79-9.12-7.15h-6.99l-.08,6.08h-4.69v-6.08h-4.93v6.08h-4.77v-3.45c0-4.85,2.47-7.32,6.41-7.32h15.12c.9-4.27,4.36-6.91,9.12-6.91,5.59,0,9.37,3.7,9.37,9.37Zm-14.14-51.21c0,2.88,1.89,4.77,4.77,4.77s4.69-1.89,4.69-4.77-1.89-4.77-4.69-4.77-4.77,1.89-4.77,4.77Zm0,25.32c0,2.88,1.89,4.77,4.77,4.77s4.69-1.89,4.69-4.77-1.89-4.69-4.69-4.69-4.77,1.89-4.77,4.69Zm0,25.89c0,2.79,1.89,4.69,4.77,4.69s4.69-1.89,4.69-4.69-1.89-4.77-4.69-4.77-4.77,1.89-4.77,4.77Z"/></svg>