<?xml version="1.0" encoding="UTF-8"?><svg id="_00" xmlns="http://www.w3.org/2000/svg" viewBox="0 0 100 100"><path d="m84.19,78.17c0,4.52-2.71,7.32-7.56,7.32H22.71c-4.69,0-7.48-2.79-7.48-7.32V23.84c0-4.6,2.79-7.4,7.48-7.4h53.92c4.85,0,7.56,2.79,7.56,7.4v54.33ZM38.65,24.09c-9.54,0-15.86,6.66-15.86,15.86v22.44c0,9.45,6.66,15.78,15.78,15.78h22.44c9.45,0,15.86-6.66,15.86-15.78v-22.44c0-9.45-6.66-15.86-15.86-15.86h-22.36Zm22.19,4.93c7.07,0,11.1,4.36,11.1,11.18v21.95c0,7.07-4.36,11.1-11.1,11.1h-22.03c-7.07,0-11.1-4.36-11.1-11.1v-22.03c0-7.07,4.36-11.1,11.1-11.1h22.03Zm-24.99,22.11c0,7.73,6.25,13.97,13.97,13.97s13.97-6.25,13.97-13.97-6.25-13.97-13.97-13.97-13.97,6.25-13.97,13.97Zm23.02,0c0,5.01-4.03,9.04-9.04,9.04s-9.04-4.03-9.04-9.04,4.03-9.04,9.04-9.04,9.04,4.03,9.04,9.04Zm2.22-14.47c0,1.81,1.4,3.21,3.21,3.21s3.29-1.4,3.29-3.21-1.48-3.29-3.29-3.29-3.21,1.48-3.21,3.29Z"/></svg>