<?xml version="1.0" encoding="UTF-8"?><svg id="_00" xmlns="http://www.w3.org/2000/svg" viewBox="0 0 100 100"><path d="m58.05,85.41H6.51v-51.46h8.79v-8.63h8.71v-8.88h51.46v27.78h-4.93v-23.18H28.95v4.27h37.89v33.04h-4.93v-28.44H20.24v4.03h37.81v51.46ZM11.45,38.55v42.25h41.67v-42.25H11.45Zm6.49,7.64c1.73,0,2.88,1.23,2.88,2.96s-1.15,2.96-2.88,2.96-2.96-1.15-2.96-2.96,1.15-2.96,2.96-2.96Zm0,8.63c1.73,0,2.88,1.15,2.88,2.88s-1.15,2.96-2.88,2.96-2.96-1.15-2.96-2.96,1.15-2.88,2.96-2.88Zm0,8.71c1.73,0,2.88,1.15,2.88,2.96s-1.15,2.96-2.88,2.96-2.96-1.23-2.96-2.96,1.15-2.96,2.96-2.96Zm0,8.38c1.73,0,2.88,1.23,2.88,2.96s-1.15,2.96-2.88,2.96-2.96-1.15-2.96-2.96,1.15-2.96,2.96-2.96Zm4.77-12.25v-3.78h4.6v3.78h-4.6Zm0,8.71v-3.78h4.6v3.78h-4.6Zm0,8.47v-3.78h4.6v3.78h-4.6Zm6-29.67l-1.56-6.33,14.55,9.7h-18.82v-3.37h5.84Zm1.23,12.49v-3.78h4.6v3.78h-4.6Zm0,8.71v-3.78h4.6v3.78h-4.6Zm0,8.47v-3.78h4.6v3.78h-4.6Zm6.99-17.18v-3.78h4.6v3.78h-4.6Zm0,8.71v-3.78h4.6v3.78h-4.6Zm0,8.47v-3.78h4.6v3.78h-4.6Zm9.53-30.66c1.73,0,2.96,1.23,2.96,2.96s-1.23,2.96-2.96,2.96-2.96-1.15-2.96-2.96,1.15-2.96,2.96-2.96Zm0,8.63c1.73,0,2.96,1.15,2.96,2.88s-1.23,2.96-2.96,2.96-2.96-1.15-2.96-2.96,1.15-2.88,2.96-2.88Zm0,8.71c1.73,0,2.96,1.15,2.96,2.96s-1.23,2.96-2.96,2.96-2.96-1.23-2.96-2.96,1.15-2.96,2.96-2.96Zm0,8.38c1.73,0,2.96,1.23,2.96,2.96s-1.23,2.96-2.96,2.96-2.96-1.15-2.96-2.96,1.15-2.96,2.96-2.96Zm29.51.16l-9.21,12.82-5.59-3.86,9.21-12.82,5.59,3.86Zm19.73-14.8c0,7.32-5.34,12.25-12.25,12.25s-12.33-5.26-12.33-12.25c0-7.4,5.42-12.25,12.33-12.25,7.32,0,12.25,5.26,12.25,12.25Zm-19.81,0c0,4.52,3.04,7.48,7.56,7.48s7.48-2.96,7.48-7.48-3.04-7.48-7.48-7.48-7.56,2.96-7.56,7.48Z"/></svg>