<?xml version="1.0" encoding="UTF-8"?><svg id="_00" xmlns="http://www.w3.org/2000/svg" viewBox="0 0 100 100"><path d="m13.42,42.75c2.38,0,4.36,1.64,5.01,3.86l22.03,3.04c.17-.41.33-.82.49-1.23l-18.99-17.1c-.82.57-1.81.9-2.79.9-2.88,0-5.18-2.3-5.18-5.18s2.3-5.18,5.18-5.18,5.18,2.3,5.18,5.18c0,.58-.17,1.15-.33,1.73l18.99,16.85c1.23-1.07,2.79-1.73,4.69-1.97l-.25-10.69c-2.06-.74-3.54-2.63-3.54-4.93,0-2.88,2.3-5.18,5.18-5.18s5.18,2.3,5.18,5.18c0,2.22-1.48,4.19-3.45,4.85l.25,10.85c.99.25,1.89.57,2.71,1.07l14.96-21.95c-.58-.82-.9-1.81-.9-2.96,0-2.88,2.3-5.18,5.18-5.18s5.18,2.3,5.18,5.18-2.38,5.18-5.18,5.18c-.58,0-1.07-.08-1.56-.25l-15.12,22.19c1.4,2.14,1.56,3.78,1.56,6.17l22.36,6.99c.9-1.23,2.38-2.05,4.11-2.05,2.88,0,5.18,2.3,5.18,5.18s-2.3,5.18-5.18,5.18-5.18-2.3-5.18-5.18l-22.03-6.9c-.82,2.14-2.47,3.7-4.69,4.44l4.93,11.84c2.96,0,5.43,2.14,5.43,5.18,0,2.88-2.38,5.18-5.18,5.18s-5.18-2.3-5.18-5.18c0-1.56.74-3.04,1.89-4.03l-5.26-12.41c-1.56,0-2.88-.25-4.11-.82l-17.02,18.82c.49.82.82,1.81.82,2.79,0,2.88-2.3,5.18-5.18,5.18s-5.18-2.3-5.18-5.18,2.3-5.18,5.18-5.18c.66,0,1.23.08,1.81.33l16.85-18.74c-1.31-1.4-2.05-3.37-2.14-5.67l-21.95-3.04c-.82,1.89-2.63,3.21-4.77,3.21-2.88,0-5.18-2.38-5.18-5.18s2.3-5.18,5.18-5.18Zm35.59,13.97c2.55,0,4.19-1.73,4.19-4.19s-1.64-4.19-4.19-4.19-4.19,1.64-4.19,4.19,1.73,4.19,4.19,4.19Z"/></svg>