<?xml version="1.0" encoding="UTF-8"?><svg id="_00" xmlns="http://www.w3.org/2000/svg" viewBox="0 0 100 100"><path d="m52.46,90.01h-4.93v-4.52H10.54v-4.93l2.05-3.86c2.55-4.69,7.56-7.56,12.25-7.56,1.4,0,3.04.58,4.44,1.31-.25-1.48-.17-3.95.49-5.59,1.73-3.62,6.66-4.85,10.03-4.85l.08-2.63h-3.78c-3.62,0-6.49-1.4-6.08-5.92l.33-3.86-1.4.08c-2.79.25-4.03-2.38-3.21-5.1l.16-.58c-1.48-.41-2.22-1.73-2.22-3.37v-10.11c0-2.14,1.89-3.45,3.86-2.96l3.12.74.33-1.15c-1.4-.99-2.63-2.71-2.63-4.19,0-4.11,3.45-5.51,6.82-5.51h12.33v-3.95h4.93v3.45c18.91,1.32,33.78,17.02,33.78,36.25s-14.88,35.02-33.78,36.33v2.47Zm-38.39-8.3h27.04v-5.42c-9.29,0-11.18-3.04-16.28-3.04-3.86,0-8.14,2.55-10.77,8.47Zm23.43-44.14v-6.82l-9.95-1.56v9.37l9.95-.99Zm3.04,2.22l-10.03,1.81-.74,2.63h4.11l-.33,9.04,5.67.33c3.62.16,5.1,2.14,5.1,4.77v15.78l3.21-3.95v-30.41h-6.99Zm11.92-4.69c3.29-.16,6.58-.66,9.78-1.48-2.22-5.34-5.42-10.03-9.78-13.32v14.8Zm0,13.81h12.99c-.25-3.7-.82-7.56-1.81-11.01-3.62,1.07-7.4,1.73-11.18,1.89v9.12Zm0,4.6v7.32c3.95.16,7.89.9,11.59,2.06.74-2.96,1.23-6.25,1.4-9.37h-12.99Zm0,28.36c4.77-3.53,8.22-8.8,10.36-14.8-3.29-.9-6.82-1.48-10.36-1.64v16.44Zm20.14-52.53c-4.03-4.11-9.12-7.15-14.88-8.63,3.7,3.21,6.58,7.15,8.63,11.59,2.22-.74,4.27-1.73,6.25-2.96Zm1.07,42.5c-1.97-1.31-4.19-2.38-6.41-3.29-2.05,5.01-5.01,9.45-8.88,12.99,6-1.64,11.26-5.1,15.29-9.7Zm7.64-22.93c-.49-6.17-2.79-12-6.33-16.69-2.14,1.64-4.52,2.96-7.07,4.03,1.4,4.03,2.22,8.38,2.38,12.66h11.01Zm-10.93,4.6c-.16,3.7-.82,7.56-1.81,11.1,2.63,1.15,5.1,2.63,7.32,4.36,3.04-4.44,4.93-9.78,5.42-15.45h-10.93Z"/></svg>