<?xml version="1.0" encoding="UTF-8"?><svg id="_00" xmlns="http://www.w3.org/2000/svg" viewBox="0 0 100 100"><path d="m50,14.63c20.06,0,36.42,16.28,36.42,36.33s-16.36,36.41-36.42,36.41S13.58,71.1,13.58,50.97,29.94,14.63,50,14.63Zm0,67.9c17.43,0,31.48-14.14,31.48-31.56s-14.06-31.48-31.48-31.48-31.48,14.14-31.48,31.48,14.14,31.56,31.48,31.56Zm0-58.11c14.71,0,26.63,11.92,26.63,26.55s-11.92,26.63-26.63,26.63-26.55-11.92-26.55-26.63,11.92-26.55,26.55-26.55Zm5.43,49.65v-5.42c5.26-.74,8.71-4.6,8.71-9.78s-2.88-7.48-7.48-8.55v-.25c3.95-1.07,6.25-3.45,6.25-7.56,0-4.69-2.71-7.97-7.48-9.04v-5.59h-3.62v5.26h-3.29v-5.26h-3.54v5.26h-5.34v35.67h5.34v5.26h3.54v-5.26h3.29v5.26h3.62Zm-10.85-25.89v-10.69h6.33c4.11,0,6.41,1.4,6.41,4.52v1.73c0,3.04-2.3,4.44-6.41,4.44h-6.33Zm0,16.03v-11.43h7.4c4.36,0,6.74,1.48,6.74,4.69v1.89c0,3.29-2.38,4.85-6.74,4.85h-7.4Z"/></svg>