<?xml version="1.0" encoding="UTF-8"?><svg id="_00" xmlns="http://www.w3.org/2000/svg" viewBox="0 0 100 100"><path d="m60.27,67.32h17.26v-16.03h4.44v20.55h-21.7v7.07c0,4.6-2.79,7.4-7.56,7.4H14.49c-4.69,0-7.48-2.79-7.48-7.4v-37.24c0-4.6,2.79-7.4,7.48-7.4h16.28l-.08-10.11h31.73v4.52h-27.21v5.59h17.51c4.77,0,7.56,2.79,7.56,7.4v25.65Zm-5.01,14.3v-9.78h-7.23v-4.52h7.23v-18.41H11.94v32.72h43.32ZM17.04,45.46c1.97,0,3.29-1.32,3.29-3.29,0-2.14-1.31-3.45-3.29-3.45-2.14,0-3.45,1.31-3.45,3.45,0,1.97,1.32,3.29,3.45,3.29Zm16.03,26.8l-10.6-10.6,3.04-3.04,2.96,3.04,2.63,3.12.25-.08-.41-6v-6.58h4.27v6.58l-.41,6,.25.08,2.63-3.12,2.96-3.04,3.04,3.04-10.6,10.6Zm-8.55,6.08v-4.03h16.77v4.03h-16.77Zm40.93-59.68c0-2.06.99-3.12,3.12-3.12h22.11c2.05,0,3.04,1.07,3.04,3.12v3.12c0,2.05-.99,3.12-3.04,3.12h-8.88v2.14h8.88c2.05,0,3.04,1.07,3.04,3.12v3.12c0,2.06-.99,3.04-3.04,3.04h-8.88v1.97h8.88c2.05,0,3.04,1.07,3.04,3.12v3.12c0,2.06-.99,3.12-3.04,3.12h-22.11c-2.14,0-3.12-1.07-3.12-3.12v-3.12c0-2.06.99-3.12,3.12-3.12h8.55v-1.97h-8.55c-2.14,0-3.12-.99-3.12-3.04v-3.12c0-2.06.99-3.12,3.12-3.12h8.55v-2.14h-8.55c-2.14,0-3.12-1.07-3.12-3.12v-3.12Zm5.84,3.53c1.15,0,1.89-.82,1.89-1.97s-.74-1.97-1.89-1.97c-1.23,0-1.97.82-1.97,1.97s.74,1.97,1.97,1.97Zm0,11.43c1.15,0,1.89-.74,1.89-1.89,0-1.23-.74-1.97-1.89-1.97-1.23,0-1.97.74-1.97,1.97,0,1.15.74,1.89,1.97,1.89Zm0,11.34c1.15,0,1.89-.82,1.89-1.97s-.74-1.97-1.89-1.97c-1.23,0-1.97.82-1.97,1.97s.74,1.97,1.97,1.97Zm6.66-26.88v4.27h2.63v-4.27h-2.63Zm0,11.43v4.36h2.63v-4.36h-2.63Zm0,11.34v4.27h2.63v-4.27h-2.63Zm5.26-22.77v4.27h2.63v-4.27h-2.63Zm0,11.43v4.36h2.63v-4.36h-2.63Zm0,11.34v4.27h2.63v-4.27h-2.63Zm5.26-22.77v4.27h2.63v-4.27h-2.63Zm0,11.43v4.36h2.63v-4.36h-2.63Zm0,11.34v4.27h2.63v-4.27h-2.63Z"/></svg>