<?xml version="1.0" encoding="UTF-8"?><svg id="_00" xmlns="http://www.w3.org/2000/svg" viewBox="0 0 100 100"><path d="m6.43,49.65c0-2.55,1.23-3.86,3.86-3.86h30.5c2.63,0,3.86,1.31,3.86,3.86v3.45c0,2.55-1.23,3.86-3.86,3.86h-12.82v3.12h12.82c2.63,0,3.86,1.31,3.86,3.86v3.45c0,2.55-1.23,3.86-3.86,3.86h-12.82v3.04h12.82c2.63,0,3.86,1.32,3.86,3.86v3.45c0,2.55-1.23,3.86-3.86,3.86H10.29c-2.63,0-3.86-1.31-3.86-3.86v-3.45c0-2.55,1.23-3.86,3.86-3.86h12.17v-3.04h-12.17c-2.63,0-3.86-1.32-3.86-3.86v-3.45c0-2.55,1.23-3.86,3.86-3.86h12.17v-3.12h-12.17c-2.63,0-3.86-1.32-3.86-3.86v-3.45Zm12.66-28.61c-1.97,1.56-3.29,4.03-3.29,6.82,0,4.85,3.95,8.79,8.88,8.79s8.79-3.95,8.79-8.79c0-2.79-1.31-5.34-3.37-6.9l3.12-3.95c3.29,2.63,5.18,6.58,5.18,10.85,0,7.56-6.16,13.73-13.73,13.73s-13.81-6.17-13.81-13.73c0-4.19,1.89-8.14,5.1-10.77l3.12,3.95Zm-5.67,32.47c1.23,0,2.05-.82,2.05-2.14s-.82-2.14-2.05-2.14c-1.31,0-2.14.82-2.14,2.14s.82,2.14,2.14,2.14Zm0,14.3c1.23,0,2.05-.82,2.05-2.14s-.82-2.14-2.05-2.14c-1.31,0-2.14.82-2.14,2.14s.82,2.14,2.14,2.14Zm0,14.14c1.23,0,2.05-.82,2.05-2.05,0-1.32-.82-2.14-2.05-2.14-1.31,0-2.14.82-2.14,2.14,0,1.23.82,2.05,2.14,2.05ZM22.13,14.8h4.93v14.38h-4.93v-14.38Zm3.54,34.03v5.18h3.12v-5.18h-3.12Zm0,14.3v5.18h3.12v-5.18h-3.12Zm0,14.22v5.18h3.12v-5.18h-3.12Zm6.33-28.52v5.18h3.12v-5.18h-3.12Zm0,14.3v5.18h3.12v-5.18h-3.12Zm0,14.22v5.18h3.12v-5.18h-3.12Zm6.33-28.52v5.18h3.12v-5.18h-3.12Zm0,14.3v5.18h3.12v-5.18h-3.12Zm0,14.22v5.18h3.12v-5.18h-3.12Zm14.14,12.66h-4.93V11.51h4.93v3.95h11.84c3.45,0,6.82,1.4,6.82,5.43,0,1.56-1.15,3.21-2.63,4.27l5.26,17.34c.82,2.79-.41,5.43-3.12,5.18l-1.4-.17.33,3.86c.33,4.6-2.55,5.92-6.17,5.92h-3.78l.08,2.71c3.37,0,8.38,1.23,10.03,4.85.74,1.56.74,4.03.49,5.51,1.4-.66,3.04-1.32,4.44-1.32,4.69,0,9.7,2.96,12.25,7.64l2.05,3.78.08,5.01h-36.58v4.52Zm2.71-15.95v-15.78c0-2.55,1.48-4.52,5.1-4.69l5.67-.33-.33-9.04h4.19l-4.85-17.01c-2.14,1.4-7.15,3.12-12.49,4.11v39.37l2.71,3.37Zm-.74-35.59c0-1.81,1.15-2.88,2.96-2.88s2.88,1.07,2.88,2.88-1.15,2.96-2.88,2.96-2.96-1.07-2.96-2.96Zm3.95,37.73l.08,5.42h26.96c-2.55-5.84-6.9-8.47-10.77-8.47-5.1,0-6.99,3.04-16.28,3.04Z"/></svg>