<?xml version="1.0" encoding="UTF-8"?><svg id="_00" xmlns="http://www.w3.org/2000/svg" viewBox="0 0 100 100"><path d="m96.77,48.5v4.93H3.14v-4.93h10.52C14.98,29.59,30.76,14.63,50,14.63s34.94,14.96,36.25,33.87h10.52ZM14.57,81.54h.41l3.04-18.5h5.1l2.96,18.5h.41l1.89-18.5h4.44l-2.88,22.44h-6.66l-2.63-16.44h-.41l-2.63,16.44h-6.74l-2.88-22.44h4.68l1.89,18.5Zm14.96-33.04c.25-4.27,1.07-8.47,2.47-12.41-2.55-1.15-4.93-2.47-7.15-4.11-3.54,4.69-5.75,10.36-6.25,16.52h10.93Zm4.03-16.36c2.05-4.44,4.93-8.47,8.55-11.67-5.67,1.48-10.85,4.52-14.8,8.63,1.97,1.23,4.03,2.22,6.25,3.04Zm13.97,16.36v-8.96c-3.86-.16-7.64-.82-11.26-1.89-.99,3.45-1.56,7.15-1.81,10.85h13.07Zm0-28.52c-4.36,3.29-7.64,8.06-9.78,13.48,3.12.74,6.41,1.23,9.78,1.4v-14.88Zm-3.12,61.57h.41l3.04-18.5h5.1l2.96,18.5h.41l1.97-18.5h4.36l-2.79,22.44h-6.74l-2.63-16.44h-.41l-2.63,16.44h-6.66l-2.88-22.44h4.6l1.89,18.5Zm8.06-46.69c3.29-.17,6.49-.66,9.62-1.48-2.14-5.34-5.34-10.03-9.62-13.32v14.8Zm0,13.64h12.91c-.25-3.78-.82-7.56-1.89-11.1-3.53,1.15-7.23,1.89-11.01,2.14v8.96Zm20.06-19.48c-4.03-4.11-9.12-7.07-14.8-8.55,3.62,3.21,6.49,7.15,8.55,11.51,2.22-.82,4.28-1.81,6.25-2.96Zm1.56,52.53h.41l3.04-18.5h5.01l3.04,18.5h.41l1.89-18.5h4.44l-2.88,22.44h-6.66l-2.63-16.44h-.41l-2.63,16.44h-6.74l-2.88-22.44h4.69l1.89,18.5Zm7.32-33.04c-.58-6.41-2.96-12.17-6.66-16.93-2.14,1.64-4.44,3.04-6.9,4.11,1.4,4.11,2.3,8.47,2.55,12.82h11.01Z"/></svg>