<?xml version="1.0" encoding="UTF-8"?><svg id="_00" xmlns="http://www.w3.org/2000/svg" viewBox="0 0 100 100"><path d="m84.52,48.5h12.25v4.93H3.14v-4.93h12.33V16.44h69.05v32.06ZM16.46,85.65c-4.69,0-7.48-2.79-7.48-7.4v-10.52c0-4.6,2.79-7.4,7.48-7.4h67.08c4.68,0,7.48,2.79,7.48,7.4v10.52c0,4.6-2.79,7.4-7.48,7.4H16.46Zm-2.55-4.69h72.09v-16.03H13.91v16.03Zm6.49-59.59v27.13h59.18v-27.13H20.41Zm5.92,49.24l2.63-2.71,2.63,2.63-2.63,2.71,2.63,2.63-2.63,2.63-2.63-2.63-2.71,2.63-2.63-2.63,2.63-2.63-2.63-2.71,2.63-2.63,2.71,2.71Zm1.56-42.74c2.38,0,4.03,1.56,4.03,3.95s-1.64,4.03-4.03,4.03-4.03-1.56-4.03-4.03,1.64-3.95,4.03-3.95Zm.08,11.26c2.38,0,4.03,1.64,4.03,4.03s-1.64,4.03-4.03,4.03-4.03-1.64-4.03-4.03,1.64-4.03,4.03-4.03Zm12.66,6.49h-4.77v-4.69h4.77v4.69Zm6.08-16.19l-1.97-5.92,19.56,9.7h-28.11v-3.78h10.52Zm-4.77,41.18l2.63-2.71,2.71,2.63-2.71,2.71,2.71,2.63-2.71,2.63-2.63-2.63-2.71,2.63-2.63-2.63,2.71-2.63-2.71-2.71,2.63-2.63,2.71,2.71Zm6.74-24.99h-4.85v-4.69h4.85v4.69Zm7.89,0h-4.77v-4.69h4.77v4.69Zm.66,24.99l2.71-2.71,2.63,2.63-2.71,2.71,2.71,2.63-2.63,2.63-2.71-2.63-2.71,2.63-2.63-2.63,2.71-2.63-2.71-2.71,2.63-2.63,2.71,2.71Zm7.15-24.99h-4.85v-4.69h4.85v4.69Zm7.89,24.99l2.63-2.71,2.71,2.63-2.71,2.71,2.71,2.63-2.71,2.63-2.63-2.63-2.71,2.63-2.63-2.63,2.63-2.63-2.63-2.71,2.63-2.63,2.71,2.71Zm-.41-42.74c2.47,0,4.03,1.56,4.03,3.95s-1.56,4.03-4.03,4.03-3.95-1.56-3.95-4.03,1.56-3.95,3.95-3.95Zm.08,11.26c2.47,0,4.03,1.64,4.03,4.03s-1.56,4.03-4.03,4.03-3.95-1.64-3.95-4.03,1.56-4.03,3.95-4.03Z"/></svg>