<?xml version="1.0" encoding="UTF-8"?><svg id="_00" xmlns="http://www.w3.org/2000/svg" viewBox="0 0 100 100"><path d="m29.04,29.76v1.56l14.8-8.47v-7.07h11.18v7.07l14.63,8.47v-1.56h11.18v11.59h-3.86v18.41h3.86v11.59h-10.77l-14.71,8.47v7.07h-11.18v-6.58l-15.45-8.96h-10.77v-11.59h3.86v-18.41h-3.86v-11.59h11.1Zm0,30v1.48l9.78-5.59c-.49-1.4-.82-2.96-.82-4.69,0-1.4.16-2.71.57-3.86l-10.03-5.75h-3.45v18.41h3.95Zm0-21.87l10.93,6.25c1.73-2.47,4.44-4.03,7.89-4.36v-12.41h-4.03v-.82l-14.8,8.55v2.79Zm0,29.92l15.12,8.71v-1.32h3.7v-13.15c-3.12-.25-5.67-1.56-7.4-3.62l-11.42,6.58v2.79Zm20.22-10.6c3.78,0,6.25-2.47,6.25-6.25s-2.47-6.33-6.25-6.33-6.33,2.55-6.33,6.33,2.55,6.25,6.33,6.25Zm20.39-19.4v-2.71l-14.63-8.47v.74h-3.95v12.49c3.29.41,5.84,1.97,7.48,4.36l11.1-6.41Zm-14.3,37.4v.9l14.3-8.3v-2.71l-11.59-6.74c-1.64,1.97-4.03,3.29-6.99,3.7v13.15h4.27Zm14.3-13.89v-1.56h4.03v-18.41h-3.62l-10.11,5.84c.33,1.15.49,2.38.49,3.78,0,1.64-.25,3.21-.82,4.52l10.03,5.84Z"/></svg>