<?xml version="1.0" encoding="UTF-8"?><svg id="_00" xmlns="http://www.w3.org/2000/svg" viewBox="0 0 100 100"><path d="m50,14.63c20.06,0,36.33,16.28,36.33,36.33s-16.28,36.41-36.33,36.41S13.58,71.1,13.58,50.96,29.86,14.63,50,14.63Zm0,67.9c17.34,0,31.48-14.14,31.48-31.56s-14.14-31.48-31.48-31.48-31.48,14.14-31.48,31.48,14.06,31.56,31.48,31.56Zm0-58.11c14.63,0,26.55,11.92,26.55,26.55s-11.92,26.63-26.55,26.63-26.63-11.92-26.63-26.63,11.92-26.55,26.63-26.55Zm3.78,11.01c.08-.41.08-.74.08-1.23l-.08-2.3c0-1.4-1.64-1.81-2.14-1.89-.9-.25-1.89-.33-2.96-.25-1.56,0-5.1.66-5.01,2.71v.08c.08.58.16,2.22.49,3.29-.82.33-1.89,1.07-3.12,2.22-4.11,3.78-7.4,9.12-8.14,14.63-.49,3.7.16,7.23,1.97,10.36,1.97,3.45,6.08,7.56,14.63,7.56h.08c2.47,0,10.6-.49,15.12-7.32,2.22-3.29,2.88-7.07,2.05-11.34-1.23-6.58-6.58-14.38-12.99-16.52Zm-6.16,6.49c1.4.33,4.36-.25,4.44-.9.08-.58.08-2.3.08-2.96.49-.25.66-.49.9-.41,4.11,1.4,7.64,6,8.88,8.06,1.4,2.22,5.1,9.78.74,16.28-3.95,5.92-11.18,6.25-13.07,6.25-2.38,0-9.12-.33-12.58-6.41-3.37-5.92-1.81-12.17,1.4-17.1,2.47-3.78,6-6.74,6.91-6.74.16,0,.33.08.58.25.33,2.47.41,3.37,1.73,3.7Zm-.58,12.41c.41-.08,4.77-4.36,5.67-4.52.82,0,4.44,2.55,5.59,2.55.66-.08,2.3-2.88,2.88-3.54-.25-.66-.58-1.32-.99-1.97,0-.58-4.52-.99-10.11-.99-2.38,0-4.52.16-6.25.41-.66,1.07-1.73,2.3-3.04,1.89-.41,0-.66-.57-.66-.9-.41.66-1.48,3.04-1.81,5.51,1.07-.9,2.71-2.38,3.21-2.38.58.08,4.93,3.95,5.51,3.95Zm11.92,1.15c-.66,0-4.93-3.04-5.92-3.04-1.73.16-5.26,5.26-5.67,5.34-.58.08-4.44-4.6-5.84-4.77-.33,0-2.06,1.89-3.12,2.96.66,6,5.18,9.12,10.85,9.12,3.04,0,5.34-.99,7.32-1.81.25-.16.58-.25.74-.41-.33-.08-.49-.41-.49-.82.08-.41.41-1.15,1.15-1.89.41-.33.82-.49,1.15-.49.58,0,.9.33,1.07.58.74-.99,1.15-2.14,1.31-3.21.17-1.64.25-3.7-.16-5.84-.41.33-1.97,4.11-2.38,4.27Zm-9.87-24.17c1.48,0,2.71.33,2.71.66,0,.74-2.79,1.15-3.45,1.15-1.48,0-2.71-.41-2.71-.74,0-.74,2.79-1.07,3.45-1.07Z"/></svg>