<?xml version="1.0" encoding="UTF-8"?><svg id="_00" xmlns="http://www.w3.org/2000/svg" viewBox="0 0 100 100"><path d="m71.12,56.14l3.53-3.45,3.45,3.45,3.04,3.62.25-.08-.41-6.99v-11.84h-27.62v11.84l-.41,6.99.25.08,3.04-3.62,3.45-3.45,3.53,3.45-12.33,12.33-12.33-12.33,3.54-3.45,3.45,3.45,3.12,3.62.16-.08-.41-6.99v-11.84h-27.04v11.84l-.41,6.99.16.08,3.12-3.62,3.45-3.45,3.54,3.45-12.33,12.33-12.33-12.33,3.54-3.45,3.45,3.45,3.04,3.62.25-.08-.41-6.99v-16.52h69.46v16.52l-.41,6.99.16.08,3.12-3.62,3.45-3.45,3.53,3.45-12.33,12.33-12.33-12.33Zm-52.2,17.18c3.86,0,6.99,3.12,6.99,7.07s-3.12,6.99-6.99,6.99-7.07-3.12-7.07-6.99,3.21-7.07,7.07-7.07Zm14.06-54.83l2.38-.9,8.71,7.89,5.18-10.69h2.3l5.51,10.69,9.37-7.89,2.22.9-1.81,12.91h-31.89l-1.97-12.91Zm17.84,54.83c3.95,0,7.07,3.12,7.07,7.07s-3.12,6.99-7.07,6.99-6.99-3.12-6.99-6.99,3.12-7.07,6.99-7.07Zm32.63,0c3.86,0,6.99,3.12,6.99,7.07s-3.12,6.99-6.99,6.99-7.07-3.12-7.07-6.99,3.12-7.07,7.07-7.07Z"/></svg>