<?xml version="1.0" encoding="UTF-8"?><svg id="_00" xmlns="http://www.w3.org/2000/svg" viewBox="0 0 100 100"><path d="m50,14.63c20.06,0,36.33,16.28,36.33,36.33s-16.28,36.41-36.33,36.41S13.58,71.1,13.58,50.96,29.86,14.63,50,14.63Zm-10.85,16.28l-1.48,22.03,5.26.74c1.48-1.64,3.29-3.12,6.82-3.12,4.85,0,7.56,2.71,7.56,7.32v.41c0,4.6-2.71,7.48-7.56,7.48s-6.82-2.3-8.79-5.34l-4.6,3.62c2.38,3.62,6.17,7.07,13.32,7.07,9.04,0,14.22-5.59,14.22-13.4s-5.18-12.33-12-12.33c-4.44,0-6.74,1.97-8.55,5.01h-.41l.99-13.97h17.92v-5.51h-22.69Z"/></svg>