<?xml version="1.0" encoding="UTF-8"?><svg id="_00" xmlns="http://www.w3.org/2000/svg" viewBox="0 0 100 100"><path d="m36.6,56.14l-16.85,31.15-4.36-2.3,18.41-34.03-17.51-31.89,4.44-2.22,15.86,28.93,15.37-28.44,4.36,2.3-16.93,31.32,18.82,34.36-4.36,2.22-17.26-31.4Zm19.65-24c9.86.66,17.67,8.88,17.67,18.82s-7.81,18.25-17.67,18.91l-10.28-18.91,10.28-18.82Zm2.79-7.97c5.18.66,9.95,2.71,13.81,5.75l-3.12,2.79c-3.04-2.3-6.66-3.86-10.6-4.44l-.08-4.11Zm0,53.59v-4.11c4.03-.49,7.64-2.14,10.69-4.44l2.79,2.96c-3.78,2.96-8.38,5.01-13.48,5.59Zm17.84-9.78l-2.88-2.96c2.3-3.04,3.95-6.74,4.52-10.69l4.19-.08c-.66,5.18-2.71,9.86-5.84,13.73Zm.25-33.62c3.04,3.86,5.1,8.55,5.59,13.73h-4.11c-.49-4.03-2.05-7.64-4.36-10.77l2.88-2.96Z"/></svg>