<?xml version="1.0" encoding="UTF-8"?><svg id="_00" xmlns="http://www.w3.org/2000/svg" viewBox="0 0 100 100"><path d="m22.29,53.27l-5.59-10.19c-.33.08-.74.08-1.15.08-2.79,0-5.18-2.3-5.18-5.18s2.38-5.18,5.18-5.18,5.18,2.38,5.18,5.18c0,1.48-.58,2.71-1.48,3.7l5.75,10.27c.9-.33,1.97-.41,3.04-.41,1.97,0,3.62.41,5.01,1.31l10.6-10.52c-.99-1.48-1.56-3.29-1.56-5.34,0-1.32.25-2.47.66-3.53l-13.48-9.45c-.82.74-1.97,1.15-3.21,1.15-2.88,0-5.18-2.3-5.18-5.18s2.3-5.18,5.18-5.18,5.18,2.3,5.18,5.18c0,.58-.17,1.15-.33,1.64l13.32,9.29c1.56-1.81,3.95-2.88,6.82-2.88,3.45,0,6.17,1.56,7.64,4.03l14.06-2.96c.16-2.71,2.22-4.77,5.1-4.77s5.18,2.38,5.18,5.18-2.3,5.18-5.18,5.18c-1.89,0-3.62-1.07-4.52-2.63l-13.65,2.71c.16.74.25,1.48.25,2.22,0,5.34-3.54,8.88-8.88,8.88-2.06,0-3.86-.49-5.26-1.48l-10.6,10.36c.99,1.32,1.56,2.88,1.73,4.69l36.41,6.33c.33-.41.74-.82,1.15-1.15l-4.69-8.38c-.33,0-.66.08-.9.08-2.88,0-5.18-2.38-5.18-5.18s2.3-5.18,5.18-5.18,5.18,2.3,5.18,5.18c0,1.48-.66,2.79-1.73,3.78l4.93,8.63h.33c.25,0,.49,0,.74.08l5.84-13.32c-1.48-.9-2.47-2.47-2.47-4.36,0-2.88,2.3-5.18,5.18-5.18s5.18,2.3,5.18,5.18-2.22,5.1-5.01,5.18l-6.08,13.73c1.07.9,1.81,2.3,1.81,3.86,0,2.88-2.3,5.18-5.18,5.18-.74,0-1.48-.16-2.14-.41l-7.97,6c.25.58.33,1.15.33,1.73,0,2.88-2.3,5.18-5.18,5.18s-5.18-2.3-5.18-5.18,2.3-5.18,5.18-5.18c1.23,0,2.3.41,3.21,1.15l7.32-5.75c-.49-.74-.74-1.73-.74-2.79l-35.67-6.25c-.74,4.19-4.03,6.91-8.71,6.91-1.73,0-3.21-.33-4.52-.99l-2.71,3.54c1.23,1.23,1.48,2.63,1.48,4.27l7.07,3.29c.99-1.4,2.55-2.3,4.36-2.3,2.88,0,5.18,2.3,5.18,5.18s-2.3,5.18-5.18,5.18-5.18-2.3-5.18-5.18l-7.4-3.45c-.99,1.15-2.38,1.81-4.03,1.81-2.79,0-5.18-2.3-5.18-5.18s2.38-5.18,5.18-5.18c.41,0,.82.08,1.15.16l3.04-3.86c-1.4-1.56-2.14-3.7-2.14-6.17,0-3.04,1.15-5.59,3.12-7.15Zm5.75,11.34c2.47,0,4.19-1.64,4.19-4.19s-1.73-4.19-4.19-4.19-4.19,1.64-4.19,4.19,1.64,4.19,4.19,4.19Zm23.02-23.43c2.47,0,4.19-1.73,4.19-4.19s-1.73-4.19-4.19-4.19-4.19,1.64-4.19,4.19,1.64,4.19,4.19,4.19Z"/></svg>