<?xml version="1.0" encoding="UTF-8"?><svg id="_00" xmlns="http://www.w3.org/2000/svg" viewBox="0 0 100 100"><path d="m82.38,79.98c0,4.6-2.79,7.4-7.56,7.4H25.01c-4.69,0-7.48-2.79-7.48-7.4V22.2c0-4.6,2.79-7.4,7.48-7.4h49.81c4.77,0,7.56,2.79,7.56,7.4v57.79Zm-59.84,2.79h54.91V19.4H22.54v63.38Zm5.67-22.19v-4.6h31.15v4.6h-31.15Zm0,11.67v-4.6h19.65v4.6h-19.65Zm21.78-48.74c7.64,0,13.81,6.25,13.81,13.89s-6.17,13.81-13.81,13.81-13.81-6.25-13.81-13.81,6.16-13.89,13.81-13.89Zm-7.23,12.41c.16-.9.49-1.73.99-2.55l-2.22-2.22c-.99,1.4-1.73,2.96-1.97,4.77h3.21Zm1.07,5.51c-.49-.66-.82-1.48-1.07-2.38h-3.12c.25,1.73.99,3.29,1.97,4.6l2.22-2.22Zm2.14-10.27c.74-.49,1.56-.9,2.47-1.07v-3.12c-1.73.25-3.37.9-4.69,1.97l2.22,2.22Zm2.47,13.48c-.82-.16-1.64-.49-2.38-.99l-2.22,2.22c1.31.99,2.88,1.64,4.6,1.89v-3.12Zm7.89-15.7c-1.32-1.07-2.96-1.73-4.69-1.97v3.12c.9.16,1.73.58,2.47,1.07l2.22-2.22Zm-4.69,18.82c1.64-.25,3.21-.9,4.6-1.89l-2.3-2.22c-.66.49-1.48.82-2.3.99v3.12Zm1.73,18.58l4.77-1.56,3.21,6,6.41-13.89,4.44,2.38-8.8,18.91h-3.7l-6.33-11.84Zm5.1-22.69c.99-1.32,1.73-2.88,1.97-4.6h-3.12c-.25.9-.58,1.64-1.07,2.38l2.22,2.22Zm1.97-7.73c-.25-1.81-.9-3.37-1.89-4.77l-2.22,2.3c.49.74.82,1.56.99,2.47h3.12Z"/></svg>