<?xml version="1.0" encoding="UTF-8"?><svg id="_00" xmlns="http://www.w3.org/2000/svg" viewBox="0 0 100 100"><path d="m50,14.63c20.06,0,36.33,16.28,36.33,36.33s-16.28,36.41-36.33,36.41S13.58,71.1,13.58,50.97,29.86,14.63,50,14.63Zm0,67.81c17.34,0,31.48-14.06,31.48-31.48s-14.14-31.48-31.48-31.48-31.48,14.14-31.48,31.48,14.06,31.48,31.48,31.48Zm0-58.03c14.63,0,26.55,11.92,26.55,26.55s-11.92,26.63-26.55,26.63-26.63-11.92-26.63-26.63,11.92-26.55,26.63-26.55Zm-13.56,14.47h26.96v-6.16h-26.96v6.16Zm0,30.33h26.96v-6.08h-26.96v6.08Zm2.96-15.45h20.88v-6.08h-20.88v6.08Z"/></svg>