<?xml version="1.0" encoding="UTF-8"?><svg id="_00" xmlns="http://www.w3.org/2000/svg" viewBox="0 0 100 100"><path d="m83.37,85.49H16.62l1.81-18.74c.33-3.95,2.71-7.73,6.41-8.71l10.93-2.79c1.4,6.08,5.92,11.51,14.06,11.51s12.74-6,14.38-11.51l10.85,2.88c4.36,1.15,6.49,4.27,6.91,9.54l1.4,17.84Zm-42-3.95c-1.15-4.27-3.53-8.47-8.3-8.47-5.59,0-7.32,4.19-8.63,8.47h16.93Zm9.37-24.5v-4.52h-2.05v4.52h-3.21v-4.52h-4.6v-29.59h4.6v-4.52h3.21v4.52h2.05v-4.52h3.21v4.77c4.03.82,6.41,3.54,6.41,7.4,0,3.45-1.81,5.42-4.6,6.33v.17c3.37.74,5.67,3.29,5.67,7.31,0,4.36-3.04,7.48-7.48,8.06v4.6h-3.21Zm-5.75-30.41v8.79h6.08c2.88,0,4.68-1.56,4.68-3.62v-1.64c0-2.38-1.81-3.53-4.68-3.53h-6.08Zm0,12.49v9.7h6.66c3.21,0,5.1-1.32,5.1-4.03v-1.73c0-2.55-1.89-3.95-5.1-3.95h-6.66Z"/></svg>