<?xml version="1.0" encoding="UTF-8"?><svg id="_00" xmlns="http://www.w3.org/2000/svg" viewBox="0 0 100 100"><path d="m43.42,67.82v8.38h-7.4v4.27h7.4v6.9h-6.17c-4.85,0-7.4-2.47-7.4-6.41v-37.48c-6.82-1.15-12.08-7.07-12.08-14.3,0-7.97,6.49-14.47,14.55-14.47s14.47,6.49,14.47,14.47c0,7.15-5.18,13.07-11.92,14.3v24.33h8.55Zm-11.1-28.93c5.34,0,9.7-4.36,9.7-9.7s-4.36-9.7-9.7-9.7-9.7,4.36-9.7,9.7,4.36,9.7,9.7,9.7Zm48.99,27.45c0,3.04-1.81,4.93-5.01,4.93h-18.17c-3.12,0-5.01-1.89-5.01-4.93v-16.77c0-2.71,1.48-4.52,3.95-4.85v-5.26c0-7.64,3.78-11.84,10.03-11.84s10.11,4.11,10.11,11.84v5.18c2.63.41,4.11,2.14,4.11,4.93v16.77Zm-19.48-21.7h10.69v-5.1c0-4.19-1.23-7.23-5.34-7.23-3.86,0-5.34,3.04-5.34,7.23v5.1Zm3.7,12.66l-1.89,6.74v1.89h6.99v-1.97l-1.89-6.74c1.56-.58,2.47-1.89,2.47-3.78,0-2.47-1.64-4.11-4.11-4.11s-4.03,1.64-4.03,4.11c0,1.89.9,3.29,2.47,3.86Z"/></svg>