<?xml version="1.0" encoding="UTF-8"?><svg id="_00" xmlns="http://www.w3.org/2000/svg" viewBox="0 0 100 100"><path d="m50,14.63c20.06,0,36.33,16.28,36.33,36.33s-16.28,36.41-36.33,36.41S13.58,71.1,13.58,50.96,29.86,14.63,50,14.63Zm0,67.9c17.34,0,31.48-14.14,31.48-31.56s-14.14-31.48-31.48-31.48-31.56,14.14-31.56,31.48,14.14,31.56,31.56,31.56Zm-10.85-51.62h22.69v5.51h-17.92l-.99,13.97h.41c1.81-3.04,4.11-5.01,8.55-5.01,6.82,0,12,4.52,12,12.33s-5.18,13.4-14.22,13.4c-7.15,0-10.93-3.45-13.32-7.07l4.6-3.62c1.97,3.04,4.19,5.34,8.79,5.34,4.85,0,7.56-2.88,7.56-7.48v-.41c0-4.6-2.71-7.32-7.56-7.32-3.54,0-5.34,1.48-6.82,3.12l-5.26-.74,1.48-22.03Z"/></svg>