<?xml version="1.0" encoding="UTF-8"?><svg id="_00" xmlns="http://www.w3.org/2000/svg" viewBox="0 0 100 100"><path d="m88.96,82.2l.08,4.93H17.53c-8.05,0-9.37-8.06-6.08-12.66l9.86-13.73c2.88-4.03,6.08-6.08,10.03-6.08,1.4,0,2.96.25,4.6.82v-4.11l-8.71-1.48c-3.29-.58-6.66-4.44-2.96-9.7l7.56-10.93c2.55-8.38,4.36-12.17,16.44-12.17h16.03c3.45,0,6.82,1.48,6.82,5.51,0,1.48-1.15,3.21-2.63,4.19l5.26,17.43c.82,2.71-.41,5.34-3.12,5.1l-1.4-.08.33,3.86c.33,4.52-2.55,5.92-6.17,5.92h-3.78l.08,2.63c3.37,0,8.38,1.23,10.03,4.93.74,1.56.74,4.03.49,5.51,1.4-.66,3.04-1.31,4.44-1.31,4.69,0,9.7,2.88,12.25,7.56l2.05,3.86Zm-43.89-48.5c-.74-.82-1.07-1.97-3.45-1.97s-3.45,2.55-3.45,5.26c.08,2.63,1.56,5.34,3.29,5.34h1.32l2.3,10.19-4.93-.49v5.26l15.04,18.5v-15.78c0-2.63,1.48-4.52,5.1-4.77l5.67-.33-.33-9.04h4.19l-4.85-16.93c-2.79,1.81-10.85,4.36-17.84,4.69l-2.05.08Zm9.37,6.49c0-1.89,1.15-2.96,2.96-2.96s2.88,1.07,2.88,2.96-1.15,2.96-2.88,2.96-2.96-1.07-2.96-2.96Zm3.95,37.73l.08,5.42h26.96c-2.55-5.84-6.9-8.47-10.77-8.47-5.1,0-6.99,3.04-16.28,3.04Z"/></svg>