<?xml version="1.0" encoding="UTF-8"?><svg id="_00" xmlns="http://www.w3.org/2000/svg" viewBox="0 0 100 100"><path d="m50,14.63c20.06,0,36.33,16.28,36.33,36.33s-16.28,36.41-36.33,36.41S13.58,71.1,13.58,50.96,29.86,14.63,50,14.63Zm0,67.9c17.34,0,31.48-14.14,31.48-31.56s-14.14-31.48-31.48-31.48-31.48,14.14-31.48,31.48,14.06,31.56,31.48,31.56Zm0-58.11c14.63,0,26.55,11.92,26.55,26.55s-11.92,26.63-26.55,26.63-26.63-11.92-26.63-26.63,11.92-26.55,26.63-26.55Zm-12.74,41.67l8.38-8.3c1.23-1.23,2.88-1.89,4.52-1.89s3.21.66,4.44,1.89l8.38,8.3h5.18l-10.93-10.85c-1.97-1.97-4.52-2.88-7.07-2.88s-5.18.9-7.15,2.88l-10.93,10.85h5.18Zm25.65-29.92l-8.3,8.14c-1.23,1.23-2.88,1.81-4.52,1.81s-3.21-.58-4.52-1.81l-8.22-8.14h-5.18l10.85,10.77c1.97,1.89,4.52,2.88,7.15,2.88s5.1-.99,7.07-2.88l10.85-10.77h-5.18Z"/></svg>