<?xml version="1.0" encoding="UTF-8"?><svg id="_00" xmlns="http://www.w3.org/2000/svg" viewBox="0 0 100 100"><path d="m21.88,67.73v-14.8c-1.97-.66-3.45-2.22-4.03-4.27h-8.06v-4.6h8.06c.9-2.79,3.29-4.44,6.49-4.44s5.51,1.64,6.41,4.44h4.69l6.25-9.54,8.63,13.73,9.53-13.73,6.08,9.54h4.36c.9-2.79,3.21-4.44,6.41-4.44s5.51,1.64,6.41,4.44h7.07v4.6h-6.99c-.66,2.06-2.14,3.62-4.11,4.27v14.8H21.88Zm41.84-19.07l-3.7-5.92-9.62,13.48-8.3-13.32-4.36,5.75h-6.99c-.58,2.06-1.97,3.53-3.95,4.19v10.27h47.35v-10.27c-1.97-.66-3.37-2.14-3.95-4.19h-6.49Z"/></svg>