<?xml version="1.0" encoding="UTF-8"?><svg id="_00" xmlns="http://www.w3.org/2000/svg" viewBox="0 0 100 100"><path d="m8.16,85.49v-4.93l2.14-3.86c2.55-4.69,7.48-7.56,12.17-7.56,1.4,0,3.04.66,4.44,1.32-.25-1.48-.16-3.95.58-5.51,1.64-3.7,6.58-4.93,10.03-4.93v-2.63h-3.7c-3.7,0-6.58-1.4-6.17-5.92l.33-3.86-1.4.08c-2.79.25-4.19-2.38-3.21-5.1l4.77-13.32-9.45-9.37c6.66-3.7,14.8-6.25,23.76-6.25,11.59,0,22.69,4.85,27.54,12.82l-4.6,3.12c.99,1.15,1.97,4.03,1.97,7.15,0,4.6-1.15,7.32-3.62,10.52-1.64,2.14-2.47,3.12-2.47,5.67v.74c1.64-.58,3.12-.82,4.6-.82,3.86,0,7.07,2.05,9.95,6.08l9.95,13.89c3.29,4.6,1.89,12.66-6.08,12.66H8.16Zm3.53-3.78h27.04v-5.42c-9.29,0-11.18-3.04-16.19-3.04-4.6,0-8.22,2.63-10.85,8.47Zm45.29-31.23l2.22-3.29c1.89-2.88,3.62-6.33,3.62-11.18,0-5.34-5.75-11.01-11.84-11.01-7.64,0-10.52,2.38-14.47,6.49h-4.85l-4.27,12.74h4.11l-.33,9.04,5.75.33c3.62.25,5.01,2.14,5.01,4.77v15.78l15.04-18.66v-5.01Zm-20.14-9.78c0-1.89,1.15-2.96,2.96-2.96s2.96,1.07,2.96,2.96-1.15,2.96-2.96,2.96-2.96-1.07-2.96-2.96Zm13.97,9.78c-1.64,0-2.88-1.23-2.88-2.71s1.23-2.63,2.71-2.63h.9c1.31-2.47,1.89-3.37,1.89-4.85,0-1.23-1.07-1.89-1.89-1.89h-1.81v-3.45h3.37c1.89,0,3.37,1.56,3.86,2.88.74,2.47-1.15,5.34-4.03,8.22.33.41.66.9.66,1.73,0,1.48-1.31,2.71-2.79,2.71Z"/></svg>