<?xml version="1.0" encoding="UTF-8"?><svg id="_00" xmlns="http://www.w3.org/2000/svg" viewBox="0 0 100 100"><path d="m50,14.63c20.06,0,36.33,16.28,36.33,36.33s-16.28,36.41-36.33,36.41S13.58,71.1,13.58,50.96,29.86,14.63,50,14.63Zm-26.06,33.7c.58-5.75,2.96-10.93,6.66-15.04l-3.62-3.37c-4.44,4.85-7.32,11.02-8.05,17.84l5.01.58Zm-2.38,15.37c4.85,10.85,15.78,18.5,28.44,18.5,6.49,0,12.58-2.05,17.59-5.43l-2.88-4.11c-4.19,2.88-9.21,4.52-14.71,4.52-10.69,0-19.81-6.33-23.92-15.54l-4.52,2.05Zm39.04,4.11v-5.01h-17.92v-.33c1.97-1.15,3.86-3.86,3.86-7.56,0-.66,0-1.23-.17-1.81h9.12v-4.6h-10.6c-.58-1.73-1.15-3.37-1.15-5.51,0-4.19,2.38-6.33,6.33-6.33,3.12,0,5.34,1.32,7.15,3.95l4.19-3.04c-2.46-3.78-6.08-5.92-11.34-5.92-7.56,0-12.17,4.36-12.17,10.6,0,2.38.66,4.27,1.31,6.25h-3.54v4.6h5.1c.08.66.16,1.48.16,2.14,0,2.88-1.15,5.51-3.86,6.74v5.84h23.51Zm-17.26-42.25c2.14-.49,4.36-.82,6.66-.82,14.47,0,26.22,11.75,26.22,26.22h5.01c0-17.26-13.97-31.24-31.24-31.24-2.71,0-5.42.41-7.89,1.07l1.23,4.77Z"/></svg>