<?xml version="1.0" encoding="UTF-8"?><svg id="_00" xmlns="http://www.w3.org/2000/svg" viewBox="0 0 100 100"><path d="m8.16,87.13v-4.93l2.06-3.86c2.55-4.68,7.56-7.56,12.25-7.56,1.4,0,3.04.66,4.44,1.31-.25-1.48-.25-3.95.49-5.51,1.73-3.7,6.66-4.93,10.03-4.93l.08-2.63h-3.78c-3.62,0-6.49-1.4-6.08-5.92l.33-3.86-1.4.08c-2.79.25-4.03-2.38-3.21-5.1l5.26-17.43c-1.4-.99-2.63-2.71-2.63-4.19,0-4.03,3.37-5.51,6.82-5.51h16.11c12,0,13.81,3.78,16.44,12.17l7.48,10.93c3.7,5.26.33,9.12-2.96,9.7l-8.71,1.48v4.11c1.64-.58,3.21-.82,4.6-.82,3.95,0,7.15,2.05,10.03,6.08l9.95,13.73c3.29,4.6,1.89,12.66-6.17,12.66H8.16Zm3.53-3.78h27.04v-5.42c-9.29,0-11.18-3.04-16.28-3.04-3.86,0-8.14,2.63-10.77,8.47Zm38.3-49.73c-6.99-.33-15.04-2.88-17.84-4.69l-4.77,16.93h4.11l-.33,9.04,5.67.33c3.62.25,5.1,2.14,5.1,4.77v15.78l15.04-18.5v-5.26l-4.93.49,2.38-10.19h1.23c1.73,0,3.21-2.71,3.29-5.34.08-2.71-1.07-5.26-3.45-5.26s-2.71,1.15-3.45,1.97l-2.06-.08Zm-13.15,6.58c0-1.89,1.15-2.96,2.96-2.96s2.88,1.07,2.88,2.96-1.15,2.96-2.88,2.96-2.96-1.07-2.96-2.96Z"/></svg>