<?xml version="1.0" encoding="UTF-8"?><svg id="_00" xmlns="http://www.w3.org/2000/svg" viewBox="0 0 100 100"><path d="m29.61,29.43v1.64l14.8-8.55v-6.99h11.18v7.07l14.63,8.47v-1.64h11.18v11.59h-3.86v18.41h3.86v11.67h-10.77l-14.71,8.47v6.99h-11.18v-6.58l-15.45-8.88h-10.77v-11.67h3.86v-18.41h-3.86v-11.59h11.1Zm0,30v8.14l15.12,8.71v-1.32h11.18v.82l14.3-8.22v-8.14h4.03v-18.41h-4.03v-6.16l-14.63-8.47v.74h-11.18v-.82l-14.8,8.55v6.16h-3.95v18.41h3.95Zm20.22-18.66c6.9,0,13.97,4.36,16.52,10.27-1.73,3.95-7.48,10.19-16.52,10.19s-15.21-6.25-16.6-10.19c1.4-3.95,7.4-10.27,16.6-10.27Zm0,16.03c3.45,0,5.75-2.3,5.75-5.84s-2.3-5.75-5.75-5.75-5.84,2.3-5.84,5.75,2.3,5.84,5.84,5.84Z"/></svg>