<?xml version="1.0" encoding="UTF-8"?><svg id="_00" xmlns="http://www.w3.org/2000/svg" viewBox="0 0 100 100"><path d="m83.45,63.46l-12.33-12.33,3.53-3.45,3.45,3.45,3.04,3.62.25-.08-.41-6.99v-6.82h-27.62v6.82l-.41,6.99.25.08,3.04-3.62,3.45-3.45,3.53,3.45-12.33,12.33-12.33-12.33,3.54-3.45,3.45,3.45,3.12,3.62.16-.08-.41-6.99v-6.82h-27.04v6.82l-.41,6.99.16.08,3.12-3.62,3.45-3.45,3.54,3.45-12.33,12.33-12.33-12.33,3.54-3.45,3.45,3.45,3.04,3.62.25-.08-.41-6.99v-11.51h69.46v11.51l-.41,6.99.16.08,3.12-3.62,3.45-3.45,3.53,3.45-12.33,12.33Zm-36.41,6.17v5.92h9.54v-5.67h14.06v5.67h8.96v-5.75h14.06v14.71h-14.06v-5.67h-8.96v5.75h-14.06v-5.75h-9.54v5.51h-14.14v-5.51h-10.19v6.74H6.68v-16.77h16.03v6.74h10.19v-5.92h14.14Zm-12.08-38.22l-1.97-12.91,2.38-.9,8.71,7.89,5.18-10.69h2.3l5.51,10.69,9.37-7.89,2.22.9-1.81,12.91h-31.89Zm55.4,41.84h-7.48v7.97h7.48v-7.97Z"/></svg>