<?xml version="1.0" encoding="UTF-8"?><svg id="_00" xmlns="http://www.w3.org/2000/svg" viewBox="0 0 100 100"><path d="m69.64,80.8v4.6H13.17V16.36h68.96v43.98h-4.93V20.96H18.1v59.84h51.54ZM25.58,28.11c2.46,0,4.03,1.64,4.03,4.03s-1.56,4.03-4.03,4.03-3.95-1.64-3.95-4.03,1.56-4.03,3.95-4.03Zm.08,12.17c2.38,0,4.03,1.56,4.03,3.95s-1.64,4.03-4.03,4.03-4.03-1.56-4.03-4.03,1.64-3.95,4.03-3.95Zm0,12.08c2.38,0,4.03,1.56,4.03,3.95s-1.64,4.03-4.03,4.03-4.03-1.56-4.03-4.03,1.64-3.95,4.03-3.95Zm0,12.08c2.38,0,4.03,1.56,4.03,3.95s-1.64,4.03-4.03,4.03-4.03-1.56-4.03-4.03,1.64-3.95,4.03-3.95Zm12.66-17.67h-4.77v-4.77h4.77v4.77Zm0,12.08h-4.77v-4.77h4.77v4.77Zm0,12h-4.77v-4.77h4.77v4.77Zm6.08-41.1l-1.97-5.92,19.56,9.7h-28.11v-3.78h10.52Zm1.97,17.02h-4.85v-4.77h4.85v4.77Zm0,12.08h-4.85v-4.77h4.85v4.77Zm0,12h-4.85v-4.77h4.85v4.77Zm7.89-24.08h-4.77v-4.77h4.77v4.77Zm0,12.08h-4.77v-4.77h4.77v4.77Zm0,12h-4.77v-4.77h4.77v4.77Zm7.81-24.08h-4.85v-4.77h4.85v4.77Zm0,12.08h-4.85v-4.77h4.85v4.77Zm0,12h-4.85v-4.77h4.85v4.77Zm7.56-42.74c2.38,0,4.03,1.64,4.03,4.03s-1.64,4.03-4.03,4.03-4.03-1.64-4.03-4.03,1.64-4.03,4.03-4.03Zm0,12.17c2.47,0,4.03,1.56,4.03,3.95s-1.56,4.03-4.03,4.03-3.95-1.56-3.95-4.03,1.56-3.95,3.95-3.95Zm0,12.08c2.47,0,4.03,1.56,4.03,3.95s-1.56,4.03-4.03,4.03-3.95-1.56-3.95-4.03,1.56-3.95,3.95-3.95Zm6.33,33.13l-7.73-18h5.51l4.52,11.43,10.19-28.28h5.18l-12.91,34.85h-4.77Z"/></svg>