<?xml version="1.0" encoding="UTF-8"?><svg id="_00" xmlns="http://www.w3.org/2000/svg" viewBox="0 0 100 100"><path d="m91.01,79.98c0,4.6-2.79,7.4-7.56,7.4H16.46c-4.69,0-7.48-2.79-7.48-7.4V29.35c0-4.52,2.79-7.4,7.48-7.4h23.59v-1.97h4.77c0-2.88,2.3-5.18,5.18-5.18s5.18,2.3,5.18,5.18h4.85v1.97h23.43c4.77,0,7.56,2.88,7.56,7.4v50.63Zm-77.02,2.79h72.09v-15.78h-16.69l-5.26,5.26v5.92h-9.29v-9.7h6.66l5.67-5.59h18.91v-4.69h-21.95v2.88h-9.29v-9.7h9.29v2.71h21.95v-4.85h-18.91l-5.18-5.84h-7.15v-9.78h9.29v5.43l5.26,6.08h16.69v-18.49h-26.06v2.14h-19.97v-2.14H13.99v56.14Zm6.25-39.54v-4.6h27.29v4.6h-27.29Zm0,15.29v-4.6h27.29v4.6h-27.29Zm0,15.45v-4.6h27.29v4.6h-27.29Z"/></svg>