<?xml version="1.0" encoding="UTF-8"?><svg id="_00" xmlns="http://www.w3.org/2000/svg" viewBox="0 0 100 100"><path d="m38.74,59.76l-2.14-8.22c-6.16,0-6.99-11.42-3.21-11.42-5.43-15.12,3.21-24.5,16.03-24.5h.33c12.17,0,21.37,9.37,15.54,24.66,5.43.25,3.54,11.1-2.46,11.1l-1.48,4.69c-1.56,4.77-4.85,6.49-11.84,6.17l.41,2.96c3.86.49,11.26-.99,13.23-5.01l13.32,2.79c5.67,1.15,8.22,6,8.22,10.52v12H13.91v-11.59c0-4.93,2.06-10.52,8.88-11.59l15.95-2.55Zm-20.88,21.95h2.71c1.48-4.68,3.37-9.21,9.62-9.21,5.42,0,8.06,4.52,9.37,9.21h41.35v-7.97c0-4.19-2.63-6.66-5.75-7.4l-7.15-1.64c-1.64,6.17-9.29,10.44-18.17,10.44-7.48,0-16.28-3.95-17.34-11.01l-7.4,1.31c-4.36.82-7.23,2.88-7.23,7.81v8.47Zm17.43-48.91c.74-3.12,3.29-4.6,6.17-4.6,3.62,0,4.36,3.53,8.22,3.53s3.95-3.53,8.14-3.53c2.88,0,5.01,1.07,5.84,4.27.25-8.38-5.1-13.56-14.06-13.56-7.4,0-14.88,4.27-14.3,13.89Zm8.14,10.44c1.4,0,2.47-1.15,2.47-2.47,0-1.4-1.07-2.47-2.47-2.47-1.32,0-2.47,1.07-2.47,2.47,0,1.32,1.15,2.47,2.47,2.47Zm11.92,0c1.31,0,2.47-1.15,2.47-2.47,0-1.4-1.15-2.47-2.47-2.47-1.4,0-2.47,1.07-2.47,2.47,0,1.32,1.07,2.47,2.47,2.47Z"/></svg>