<?xml version="1.0" encoding="UTF-8"?><svg id="_00" xmlns="http://www.w3.org/2000/svg" viewBox="0 0 100 100"><path d="m33.23,29.35l-5.26,8.8-6.82-3.04-11.59,16.93-3.54-1.97,13.73-20.14,6.74,2.88,3.29-5.67,3.86-5.92-.16-.16-4.44,1.81-1.64.49-1.4-3.86,12.17-3.86,3.78,12.49-4.03.99-.41-1.4-.99-4.6-.25-.08-3.04,6.33Zm-8.71,22.69c9.21,0,16.6,7.48,16.6,16.69s-7.4,16.69-16.6,16.69-16.69-7.48-16.69-16.69,7.48-16.69,16.69-16.69Zm0,29.67c7.15,0,12.9-5.75,12.9-12.91s-5.75-12.99-12.9-12.99-12.99,5.84-12.99,12.99,5.84,12.91,12.99,12.91Zm0-22.19c5.1,0,9.21,4.19,9.21,9.29s-4.11,9.21-9.21,9.21-9.29-4.11-9.29-9.21,4.19-9.29,9.29-9.29Zm-4.28,5.51h8.3v-2.47h-8.3v2.47Zm0,9.78h8.3v-2.38h-8.3v2.38Zm.9-4.93h6.49v-2.47h-6.49v2.47Zm31.32,20.14h-4.93V11.51h4.93v78.5Zm2.88-40.36c0-2.55,1.23-3.86,3.86-3.86h31.15c2.63,0,3.86,1.32,3.86,3.86v3.45c0,2.55-1.23,3.86-3.86,3.86h-12.82v3.12h12.82c2.63,0,3.86,1.32,3.86,3.86v3.45c0,2.55-1.23,3.86-3.86,3.86h-12.82v3.04h12.82c2.63,0,3.86,1.32,3.86,3.86v3.45c0,2.55-1.23,3.86-3.86,3.86h-31.15c-2.63,0-3.86-1.31-3.86-3.86v-3.45c0-2.55,1.23-3.86,3.86-3.86h12.74v-3.04h-12.74c-2.63,0-3.86-1.32-3.86-3.86v-3.45c0-2.55,1.23-3.86,3.86-3.86h12.74v-3.12h-12.74c-2.63,0-3.86-1.32-3.86-3.86v-3.45Zm6.99,3.86c1.23,0,2.05-.82,2.05-2.14s-.82-2.14-2.05-2.14c-1.31,0-2.14.82-2.14,2.14s.82,2.14,2.14,2.14Zm0,14.3c1.23,0,2.05-.82,2.05-2.14s-.82-2.14-2.05-2.14c-1.31,0-2.14.82-2.14,2.14s.82,2.14,2.14,2.14Zm0,14.14c1.23,0,2.05-.82,2.05-2.05,0-1.32-.82-2.14-2.05-2.14-1.31,0-2.14.82-2.14,2.14,0,1.23.82,2.05,2.14,2.05Zm7.07-60.91c-1.97,1.56-3.29,4.03-3.29,6.82,0,4.85,3.95,8.8,8.79,8.8s8.88-3.95,8.88-8.8c0-2.79-1.32-5.34-3.37-6.9l3.12-3.95c3.29,2.63,5.18,6.58,5.18,10.85,0,7.56-6.17,13.73-13.81,13.73s-13.73-6.17-13.73-13.73c0-4.19,1.89-8.14,5.1-10.77l3.12,3.95Zm3.04-6.25h4.93v14.38h-4.93v-14.38Zm2.71,34.03v5.18h3.21v-5.18h-3.21Zm0,14.3v5.18h3.21v-5.18h-3.21Zm0,14.22v5.18h3.21v-5.18h-3.21Zm6.41-28.52v5.18h3.12v-5.18h-3.12Zm0,14.3v5.18h3.12v-5.18h-3.12Zm0,14.22v5.18h3.12v-5.18h-3.12Zm6.25-28.52v5.18h3.21v-5.18h-3.21Zm0,14.3v5.18h3.21v-5.18h-3.21Zm0,14.22v5.18h3.21v-5.18h-3.21Z"/></svg>