<?xml version="1.0" encoding="UTF-8"?><svg id="_00" xmlns="http://www.w3.org/2000/svg" viewBox="0 0 100 100"><path d="m52.46,90.01h-4.93v-4.6h-31.07c-4.69,0-7.48-2.79-7.48-7.32V23.76c0-4.6,2.79-7.4,7.48-7.4h31.07v-4.85h4.93v78.5ZM13.91,40.12h16.19v-9.21H13.91v9.21Zm0,13.56h16.19v-8.96H13.91v8.96Zm0,13.73h16.19v-9.04H13.91v9.04Zm0,13.48h16.19v-8.88H13.91v8.88Zm21.13-40.77h12.49v-9.21h-12.49v9.21Zm0,13.56h12.49v-8.96h-12.49v8.96Zm0,13.73h12.49v-9.04h-12.49v9.04Zm0,13.48h12.49v-8.88h-12.49v8.88ZM71.37,14.22c7.56,0,13.73,6.17,13.73,13.81,0,4.69-2.3,8.8-5.92,11.34,3.62,2.47,5.92,6.58,5.92,11.26s-2.47,9.12-6.25,11.59c3.7,2.63,5.92,6.82,5.92,11.34,0,7.64-6.17,13.81-13.81,13.81s-13.73-6.17-13.73-13.81c0-4.85,2.38-8.79,6.25-11.59-3.62-2.47-5.92-6.66-5.92-11.34s2.3-8.8,5.92-11.26c-3.62-2.55-5.92-6.66-5.92-11.34,0-7.64,6.17-13.81,13.81-13.81Zm-10.93,59.35c0,5.84,4.77,10.52,10.52,10.52s10.52-4.69,10.52-10.52c0-4.19-2.46-7.97-6.33-9.62-1.23.33-2.47.49-3.78.49-1.48,0-2.88-.25-4.19-.66-4.03,1.48-6.74,5.43-6.74,9.78Zm10.93-35.02c5.75,0,10.52-4.69,10.52-10.52s-4.77-10.52-10.52-10.52-10.52,4.69-10.52,10.52,4.68,10.52,10.52,10.52Zm-10.52,12.08c0,5.84,4.68,10.52,10.52,10.52s10.52-4.69,10.52-10.52c0-4.19-2.55-7.89-6.17-9.54-1.4.49-2.88.74-4.36.74-1.56,0-3.04-.25-4.44-.74-3.62,1.64-6.08,5.34-6.08,9.54Zm10.11,15.54c4.11,0,7.48,3.29,7.48,7.4s-3.37,7.48-7.48,7.48-7.4-3.37-7.4-7.48,3.29-7.4,7.4-7.4Zm.41-45.62c4.11,0,7.4,3.37,7.4,7.48s-3.29,7.4-7.4,7.4-7.48-3.29-7.48-7.4,3.37-7.48,7.48-7.48Zm0,22.69c4.11,0,7.4,3.29,7.4,7.4s-3.29,7.48-7.4,7.48-7.48-3.37-7.48-7.48,3.37-7.4,7.48-7.4Z"/></svg>