<?xml version="1.0" encoding="UTF-8"?><svg id="_00" xmlns="http://www.w3.org/2000/svg" viewBox="0 0 100 100"><path d="m13.01,48.58h9.95v4.68h-9.95v-4.68Zm5.67-32.55l7.07,7.07-3.62,3.54-6.99-7.07,3.53-3.53Zm-3.12,66.01l7.07-6.99,3.53,3.53-7.07,7.07-3.54-3.62Zm14.71-10.44l.08-41.35h39.37v41.35H30.27Zm5.01-4.6h2.14c.33-6.25,1.32-10.11,6.74-13.07-1.07-1.31-1.64-4.19-1.64-6.9,0-4.03,2.3-7.56,6.17-7.56,5.67,0,7.23,3.21,7.23,7.4v6.33c2.06.58,5.92,2.47,5.92,8.3v5.51h2.88v-32.14h-29.43v32.14Zm10.77-18.74c0,2.3,1.32,3.86,3.21,3.86s3.21-1.56,3.21-3.86v-4.52h-6.41v4.52Zm0,18.08h8.88c-.41-2.88-3.53-3.45-6-3.45-1.56,0-2.88.25-2.88.25v3.21Zm1.48-41.59v-9.95h5.01v9.95h-5.01Zm0,62.63v-9.95h5.01v9.95h-5.01Zm26.38-63.62l7.07-6.99,3.53,3.53-7.07,6.99-3.54-3.53Zm4.03,51.54l7.07,6.99-3.62,3.62-6.99-7.07,3.53-3.53Zm-1.07-26.71h9.95v4.68h-9.95v-4.68Z"/></svg>