<?xml version="1.0" encoding="UTF-8"?><svg id="_00" xmlns="http://www.w3.org/2000/svg" viewBox="0 0 100 100"><path d="m24.93,36c9.04,0,16.44,3.78,16.44,8.38s-7.4,8.38-16.44,8.38-16.44-3.78-16.44-8.38,7.32-8.38,16.44-8.38Zm16.44,17.26c-.16,4.52-7.48,8.22-16.44,8.22s-16.44-3.78-16.44-8.38v-4.44c0,4.52,7.4,8.22,16.44,8.22s16.44-3.7,16.44-8.22v4.6Zm0,8.71c-.16,4.52-7.48,8.22-16.44,8.22s-16.44-3.78-16.44-8.38v-4.52c0,4.6,7.4,8.3,16.44,8.3s16.44-3.7,16.44-8.3v4.69Zm0,8.3c-.16,4.52-7.48,8.22-16.44,8.22s-16.44-3.78-16.44-8.38v-4.44c0,4.52,7.4,8.22,16.44,8.22s16.44-3.7,16.44-8.22v4.6Zm0,8.71c-.16,4.52-7.48,8.22-16.44,8.22s-16.44-3.78-16.44-8.38v-4.52c0,4.6,7.4,8.3,16.44,8.3s16.44-3.7,16.44-8.3v4.69Zm3.37-64.28c9.12,0,16.52,3.78,16.52,8.38s-7.4,8.38-16.52,8.38-16.36-3.78-16.36-8.38,7.31-8.38,16.36-8.38Zm16.52,17.26c-.16,4.52-7.48,8.3-16.44,8.22h-.58c-1.48-2.63-4.52-4.52-7.73-5.67-2.3-.99-5.59-1.73-7.97-1.73-.08-.33-.16-.66-.16-.99v-4.44c0,2.63,2.55,5.01,6.41,6.58.58.16,1.15.33,1.73.58,2.47.66,5.26,1.07,8.3,1.07,9.04,0,16.44-3.7,16.44-8.22v4.6Zm-16.44,12.33c9.04,0,16.44-3.7,16.44-8.3v4.69c-.16,4.52-7.48,8.22-16.44,8.22v-4.6Zm8.22,11.75c-2.47.74-5.26,1.15-8.22,1.15v-4.6c4.03,0,7.73-.74,10.6-1.89,1.48-2.47,3.45-4.52,5.84-6.08v-.25.25c3.21-2.14,7.07-3.37,11.26-3.37,11.01,0,19.97,8.79,20.22,19.73v.41c0,11.18-9.12,20.22-20.22,20.22s-20.22-9.04-20.22-20.22c0-1.81.25-3.62.74-5.34Zm7.64,4.27c.25-2.63,1.4-5.01,3.04-6.82l-3.12-2.79c-2.22,2.47-3.7,5.59-4.11,9.12l4.19.49Zm-2.88,7.73c2.55,5.59,8.14,9.54,14.71,9.54,3.37,0,6.41-1.07,9.04-2.79l-2.38-3.45c-1.89,1.23-4.19,2.06-6.66,2.06-4.85,0-8.96-2.96-10.85-7.07l-3.86,1.73Zm11.67-18c.99-.33,1.97-.41,3.04-.41,6.49,0,11.84,5.26,11.84,11.84h4.19c0-8.88-7.15-16.03-16.03-16.03-1.4,0-2.79.17-4.11.49l1.07,4.11Z"/></svg>