<?xml version="1.0" encoding="UTF-8"?><svg id="_00" xmlns="http://www.w3.org/2000/svg" viewBox="0 0 100 100"><path d="m13.42,21.29c0-3.21,1.56-4.93,4.93-4.93h63.29c3.37,0,4.93,1.73,4.93,4.93v11.43c0,3.21-1.56,4.93-4.93,4.93h-25.24v2.63h25.24c3.37,0,4.93,1.64,4.93,4.93v11.43c0,3.21-1.56,4.85-4.93,4.85h-25.24v2.79h25.24c3.37,0,4.93,1.64,4.93,4.93v11.43c0,3.21-1.56,4.85-4.93,4.85H18.35c-3.37,0-4.93-1.64-4.93-4.85v-11.43c0-3.29,1.56-4.93,4.93-4.93h25.32v-2.79h-25.32c-3.37,0-4.93-1.64-4.93-4.85v-11.43c0-3.29,1.56-4.93,4.93-4.93h25.32v-2.63h-25.32c-3.37,0-4.93-1.73-4.93-4.93v-11.43Zm4.93,11.67h63.29v-12H18.35v12Zm0,23.92h63.29v-12H18.35v12Zm0,24h63.29v-12H18.35v12Zm5.51-56.72c1.64,0,2.71,1.07,2.71,2.88,0,1.64-1.07,2.71-2.71,2.71-1.73,0-2.88-1.07-2.88-2.71,0-1.81,1.15-2.88,2.88-2.88Zm0,23.92c1.64,0,2.71,1.07,2.71,2.79s-1.07,2.79-2.71,2.79c-1.73,0-2.88-1.15-2.88-2.79,0-1.73,1.15-2.79,2.88-2.79Zm0,24.17c1.64,0,2.71,1.07,2.71,2.88,0,1.64-1.07,2.71-2.71,2.71-1.73,0-2.88-1.07-2.88-2.71,0-1.81,1.15-2.88,2.88-2.88ZM61.42,23.92h3.29v6.08h-3.29v-6.08Zm0,23.92h3.29v6.08h-3.29v-6.08Zm0,24h3.29v6.08h-3.29v-6.08Zm6.82-47.92h3.37v6.08h-3.37v-6.08Zm0,23.92h3.37v6.08h-3.37v-6.08Zm0,24h3.37v6.08h-3.37v-6.08Zm6.9-47.92h3.29v6.08h-3.29v-6.08Zm0,23.92h3.29v6.08h-3.29v-6.08Zm0,24h3.29v6.08h-3.29v-6.08Z"/></svg>