<?xml version="1.0" encoding="UTF-8"?><svg id="_00" xmlns="http://www.w3.org/2000/svg" viewBox="0 0 100 100"><path d="m32.9,20.22h14.14v6h9.54v-5.75h14.06v5.67h8.96v-5.67h14.06v14.8h-4.77l-.08,11.59,9.37-3.29-12.74,20.96v-29.26h-5.84v-5.84h-8.96v5.84h-14.06v-5.75h-9.54v5.43h-14.14v-5.43h-10.19v6.74H6.68v-16.77h16.03v6.74h10.19v-6Zm8.88,47.35h5.26v5.92h9.54v-5.67h14.06v5.67h8.96v-5.67h14.06v14.71h-14.06v-5.75h-8.96v5.75h-14.06v-5.75h-9.54v5.51h-14.14v-14.71h5.42v-11.84l-9.29,3.29,12.66-20.96v6.33l.08,23.18Zm1.73,11.34v-7.64h-7.4v7.64h7.4Zm23.67,0v-7.64h-7.32v7.64h7.32Zm23.1,0v-7.64h-7.4v7.64h7.4Z"/></svg>