<?xml version="1.0" encoding="UTF-8"?><svg id="_00" xmlns="http://www.w3.org/2000/svg" viewBox="0 0 100 100"><path d="m76.3,80.97h8.05v4.6H15.64v-4.6h8.06V23.84c0-4.6,2.79-7.4,7.48-7.4h37.56c4.85,0,7.56,2.79,7.56,7.4v57.13Zm-47.59,0h8.63v-17.1h25.4v17.1h8.63V21.13H28.71v59.84Zm5.43-47.59v-7.4h6.99v7.4h-6.99Zm0,12.49v-7.4h6.99v7.4h-6.99Zm0,12.33v-7.4h6.99v7.4h-6.99Zm7.32,22.77h6.66v-12.99h-6.66v12.99Zm5.1-47.59v-7.4h7.07v7.4h-7.07Zm0,12.49v-7.4h7.07v7.4h-7.07Zm0,12.33v-7.4h7.07v7.4h-7.07Zm5.67,22.77h6.41v-12.99h-6.41v12.99Zm6.74-47.59v-7.4h7.07v7.4h-7.07Zm0,12.49v-7.4h7.07v7.4h-7.07Zm0,12.33v-7.4h7.07v7.4h-7.07Z"/></svg>