<?xml version="1.0" encoding="UTF-8"?><svg id="_00" xmlns="http://www.w3.org/2000/svg" viewBox="0 0 100 100"><path d="m84.19,78.17c0,4.52-2.71,7.32-7.56,7.32H22.71c-4.69,0-7.48-2.79-7.48-7.32V23.84c0-4.6,2.79-7.4,7.48-7.4h53.92c4.85,0,7.56,2.79,7.56,7.4v54.33Zm-13.15-35.92c0-.49,0-.99-.08-1.48,2.22-1.56,4.11-3.45,5.59-5.67-2.05.82-4.19,1.4-6.41,1.73,2.3-1.4,4.03-3.54,4.85-6.17-2.14,1.31-4.44,2.22-6.99,2.71-2.05-2.14-4.93-3.53-8.05-3.53-6.17,0-11.1,5.01-11.1,11.1,0,.9.08,1.73.25,2.55-9.21-.49-17.34-4.85-22.77-11.59-.99,1.64-1.56,3.54-1.56,5.59,0,3.78,1.97,7.23,4.93,9.21-1.81-.08-3.53-.58-5.01-1.4v.17c0,5.34,3.86,9.78,8.88,10.85-.9.25-1.89.41-2.88.41-.74,0-1.4-.08-2.05-.25,1.4,4.44,5.43,7.64,10.28,7.73-3.78,2.96-8.55,4.69-13.73,4.69-.9,0-1.81,0-2.63-.17,4.93,3.21,10.69,5.01,16.93,5.01,20.39,0,31.56-16.85,31.56-31.48Z"/></svg>