<?xml version="1.0" encoding="UTF-8"?><svg id="_00" xmlns="http://www.w3.org/2000/svg" viewBox="0 0 100 100"><path d="m16.46,37.57c0-10.52,4.85-16.28,13.4-16.28s13.4,5.75,13.4,16.28-4.85,16.28-13.4,16.28-13.4-5.75-13.4-16.28Zm19.97,2.38v-4.77c0-6-2.14-9.04-6.58-9.04s-6.58,3.04-6.58,9.04v4.77c0,6,2.14,9.04,6.58,9.04s6.58-3.04,6.58-9.04Zm-2.79,39.7h-7.23l39.78-57.38h7.23l-39.79,57.38Zm22.93-15.29c0-10.52,4.85-16.28,13.4-16.28s13.4,5.75,13.4,16.28-4.85,16.28-13.4,16.28-13.4-5.75-13.4-16.28Zm19.97,2.38v-4.77c0-6-2.14-9.04-6.58-9.04s-6.58,3.04-6.58,9.04v4.77c0,6,2.14,9.04,6.58,9.04s6.58-3.04,6.58-9.04Z"/></svg>