<?xml version="1.0" encoding="UTF-8"?><svg id="_00" xmlns="http://www.w3.org/2000/svg" viewBox="0 0 100 100"><path d="m84.19,78.17c0,4.52-2.71,7.32-7.56,7.32H22.71c-4.69,0-7.48-2.79-7.48-7.32V23.84c0-4.6,2.79-7.4,7.48-7.4h53.92c4.85,0,7.56,2.79,7.56,7.4v54.33Zm-47.43-27.04c0-7.32,5.92-13.15,13.15-13.15,6.58,0,11.92,4.77,12.99,10.93h13.23c-1.07-13.48-12.41-24.08-26.22-24.08s-26.3,11.75-26.3,26.3,11.84,26.3,26.3,26.3,25.15-10.6,26.22-24.17h-13.23c-1.07,6.25-6.41,11.02-12.99,11.02-7.23,0-13.15-5.92-13.15-13.15Z"/></svg>