<?xml version="1.0" encoding="UTF-8"?><svg id="_00" xmlns="http://www.w3.org/2000/svg" viewBox="0 0 100 100"><path d="m50,14.63c19.97,0,36.25,16.19,36.25,36.25s-16.28,36.17-36.25,36.17S13.75,70.86,13.75,50.88,30.02,14.63,50,14.63Zm0,67.9c17.34,0,31.48-14.14,31.48-31.56s-14.14-31.48-31.48-31.48-31.48,14.14-31.48,31.48,14.06,31.56,31.48,31.56Zm0-58.11c14.63,0,26.55,11.92,26.55,26.55s-11.92,26.63-26.55,26.63-26.63-11.92-26.63-26.63,11.92-26.55,26.63-26.55Zm12.58,38.06l-4.44-2.55c-1.32,2.96-3.21,5.01-6.91,5.01-4.44,0-6.99-2.88-7.73-7.64h11.51v-4.03h-11.75v-4.27h11.75v-3.95h-11.51c.74-4.77,3.29-7.73,7.73-7.73,3.7,0,5.59,2.14,6.91,5.1l4.44-2.55c-1.97-3.62-4.77-7.15-11.51-7.15-8.96,0-13.65,6.66-13.65,18.41s4.69,18.49,13.65,18.49c6.74,0,9.54-3.62,11.51-7.15Z"/></svg>