<?xml version="1.0" encoding="UTF-8"?><svg id="_00" xmlns="http://www.w3.org/2000/svg" viewBox="0 0 100 100"><path d="m50.08,14.8c20.06,0,36.33,16.28,36.33,36.33s-16.28,36.41-36.33,36.41S13.66,71.27,13.66,51.13,29.94,14.8,50.08,14.8Zm0,67.9c17.34,0,31.48-14.14,31.48-31.56s-14.14-31.48-31.48-31.48-31.48,14.14-31.48,31.48,14.06,31.56,31.48,31.56Zm0-58.12c14.63,0,26.55,11.92,26.55,26.55s-11.92,26.63-26.55,26.63-26.63-11.92-26.63-26.63,11.92-26.55,26.63-26.55Zm-23.18,31.73l35.35,15.87-4.36-11.75h13.07v-4.11H26.9Zm9.62-23.92l4.44,12.49h-13.07v4.11h44.06l-35.43-16.6Z"/></svg>