<?xml version="1.0" encoding="UTF-8"?><svg id="_00" xmlns="http://www.w3.org/2000/svg" viewBox="0 0 100 100"><path d="m88.96,82.2l.08,4.93H17.53c-8.05,0-9.37-8.06-6.08-12.66l9.86-13.73c2.88-4.03,6.08-6.08,10.03-6.08,1.4,0,2.96.25,4.6.82v-4.52c-4.6-4.85-8.55-10.77-5.84-20.63,2.3-8.47,6.08-13.89,18.17-13.89h15.7c7.32,0,9.95,7.56,5.26,12.82l4.52,14.96c.82,2.71-.41,5.34-3.12,5.1l-1.4-.08.33,3.86c.33,4.52-2.55,5.92-6.17,5.92h-3.78l.08,2.63c3.37,0,8.38,1.23,10.03,4.93.74,1.56.74,4.03.49,5.51,1.4-.66,3.04-1.31,4.44-1.31,4.69,0,9.7,2.88,12.25,7.56l2.05,3.86Zm-47.35-43.16c-2.38,0-3.45,2.55-3.45,5.26.08,2.63,1.56,5.34,3.29,5.34h1.32l-3.04,7.07,15.45,19.07v-15.78c0-2.63,1.48-4.52,5.1-4.77l5.67-.33-.33-9.04h4.11l-4.36-15.04c-1.56.41-2.88.58-4.03.58-5.67,0-7.23-4.27-11.51-3.62-7.73,1.31,1.07,12.08-1.23,15.29-.58.74-1.32,1.07-1.97,1.07-.99,0-1.89-.66-2.14-1.48-.16-1.73-.49-3.62-2.88-3.62Zm12.82,1.15c0-1.89,1.15-2.96,2.96-2.96s2.88,1.07,2.88,2.96-1.15,2.96-2.88,2.96-2.96-1.07-2.96-2.96Zm3.95,37.73l.08,5.42h26.96c-2.55-5.84-6.9-8.47-10.77-8.47-5.1,0-6.99,3.04-16.28,3.04Z"/></svg>