<?xml version="1.0" encoding="UTF-8"?><svg id="_00" xmlns="http://www.w3.org/2000/svg" viewBox="0 0 100 100"><path d="m24.27,78.83l-6-17.84c-.58,0-1.07-.08-1.64-.17l-3.04,3.95c1.56,1.15,2.47,3.04,2.55,5.42v.33c.08,4.27-2.88,7.15-7.15,7.15s-7.15-2.88-7.15-7.15,2.88-7.15,7.15-7.15c.66,0,1.32,0,1.89.16l3.29-4.27c-.9-.9-1.4-2.14-1.4-3.45,0-2.79,2.22-5.1,5.01-5.18l2.79-14.14c-2.14-1.15-3.45-3.37-3.45-6.25,0-4.36,2.88-7.15,7.23-7.15s7.15,2.79,7.15,7.15c0,.9-.16,1.73-.41,2.55l11.34,7.32c.41-.25.82-.41,1.32-.49l2.05-13.32c-1.73-.82-2.96-2.63-2.96-4.69,0-2.79,2.38-5.18,5.18-5.18,3.37,0,5.18,2.71,5.18,5.84l8.22,6.49c.99-.9,2.22-1.48,3.7-1.48,1.64,0,3.12.82,4.11,2.05l8.06-3.53c0-2.38,1.89-4.27,4.19-4.27s4.19,1.89,4.19,4.19-1.89,4.19-4.19,4.19c-1.23,0-2.38-.58-3.12-1.4l-8.14,3.62.08.08c0,1.23-.33,2.22-.82,2.96l8.88,11.51c.99-.49,2.14-.74,3.45-.74,1.56,0,2.88.33,4.03.99l4.6-5.01c-.41-.58-.58-1.32-.58-2.06,0-2.3,1.89-4.19,4.19-4.19s4.19,1.89,4.19,4.19-1.89,4.19-4.19,4.19c-.49,0-.99-.08-1.4-.25l-4.77,5.18c.74,1.15,1.07,2.55,1.07,4.11,0,4.11-2.55,6.91-6.49,7.15l-3.04,14.55c.9.9,1.56,2.22,1.56,3.62,0,2.88-2.38,5.18-5.18,5.18s-5.18-2.3-5.18-5.18c0-.74.16-1.56.49-2.22l-5.42-8.22c-.74.58-1.73.82-2.79.82-2.38,0-4.52-1.73-5.01-4.03l-10.03.41c-.25,2.05-1.15,3.62-2.55,4.69l5.59,7.4c.49-.17,1.07-.25,1.64-.25,2.88,0,5.18,2.3,5.18,5.18s-2.3,5.18-5.18,5.18-5.18-2.3-5.18-5.18c0-1.23.49-2.3,1.15-3.21l-5.92-7.81c-.58.08-1.23.17-1.89.17-.82,0-1.56-.08-2.22-.33l-6.41,8.88c.08.25.08.58.08.9,0,2.3-1.89,4.19-4.19,4.19s-4.19-1.89-4.19-4.19c0-.74.25-1.4.49-1.97Zm-15.29-4.93c2.05,0,3.37-1.4,3.37-3.37s-1.32-3.37-3.37-3.37-3.37,1.32-3.37,3.37,1.31,3.37,3.37,3.37Zm31.4-30.17c0-.49.08-.99.17-1.4l-10.93-6.99c-1.23,1.31-3.12,2.05-5.26,2.05-.33,0-.66,0-.99-.08l-2.88,13.97c.66.41,1.32.9,1.73,1.64l18.17-9.21Zm-16.03-10.11c1.97,0,3.37-1.4,3.37-3.37s-1.4-3.37-3.37-3.37-3.37,1.32-3.37,3.37,1.31,3.37,3.37,3.37Zm9.29,29.35l-11.18-4.52c-.41.58-.9,1.15-1.48,1.56l5.67,16.85c.41-.16.9-.25,1.31-.25.9,0,1.73.25,2.38.74l5.42-7.73c-1.4-1.23-2.22-3.12-2.22-5.43,0-.41,0-.82.08-1.23Zm-10.19-7.32l11.1,4.6c1.23-2.05,3.37-3.21,6.25-3.21l1.64-9.7c-.41-.25-.74-.49-.99-.9l-18,9.21Zm17.26,11.92c2.06,0,3.37-1.4,3.37-3.37s-1.31-3.37-3.37-3.37-3.37,1.32-3.37,3.37,1.4,3.37,3.37,3.37Zm17.34-5.59c.16-.49.33-.9.66-1.32l-12.66-13.07c-.25.08-.41.16-.66.25l-1.64,9.7c2.05.82,3.45,2.55,3.95,4.85l10.36-.41Zm1.97-30.58l-8.06-6.33c-.82.9-1.89,1.56-3.21,1.73l-2.14,13.23c.41.33.82.66,1.15.99l12.25-7.48c-.08-.33-.08-.74-.08-1.07,0-.41,0-.74.08-1.07Zm.99,27.45c.33-.17.74-.25,1.15-.33l1.15-21.21c-.74-.25-1.4-.66-1.89-1.23l-12.66,7.89c-.08.58-.25,1.15-.49,1.73l12.74,13.15Zm15.04-10.27l-8.8-11.43c-.33.16-.66.25-.99.33l-1.23,21.45c.41.17.82.41,1.15.66l8.8-4.03c-.25-.74-.33-1.56-.33-2.47,0-1.81.49-3.37,1.4-4.52Zm-2.96,25.4c.74-.41,1.73-.74,2.71-.74.33,0,.66.08.99.08l2.71-13.32c-1.31-.41-2.38-1.07-3.21-2.06l-8.47,3.95c.16.57.25,1.15.25,1.73,0,.82-.16,1.56-.49,2.22l5.51,8.14Zm8.71-17.51c2.06,0,3.37-1.32,3.37-3.37s-1.31-3.37-3.37-3.37-3.37,1.31-3.37,3.37,1.4,3.37,3.37,3.37Z"/></svg>