<?xml version="1.0" encoding="UTF-8"?><svg id="_00" xmlns="http://www.w3.org/2000/svg" viewBox="0 0 100 100"><path d="m50,14.63c20.06,0,36.33,16.28,36.33,36.33s-16.28,36.41-36.33,36.41S13.58,71.1,13.58,50.96,29.86,14.63,50,14.63Zm0,67.9c17.34,0,31.48-14.14,31.48-31.56s-14.14-31.48-31.48-31.48-31.56,14.14-31.56,31.48,14.14,31.56,31.56,31.56Zm-.25-11.43h-8.55c9.12-6.41,14.38-11.67,16.36-20.14l-.41-.16c-1.73,3.12-4.36,5.75-9.37,5.75-6.82,0-11.84-4.69-11.84-12.25s5.59-13.32,14.06-13.32,14.06,5.92,14.06,15.37c0,11.42-7.73,20.47-14.3,24.74Zm7.81-27.04v-.58c0-4.69-2.71-7.4-7.48-7.4s-7.64,2.71-7.64,7.4v.58c0,4.77,2.79,7.48,7.64,7.48s7.48-2.71,7.48-7.48Z"/></svg>