<?xml version="1.0" encoding="UTF-8"?><svg id="_00" xmlns="http://www.w3.org/2000/svg" viewBox="0 0 100 100"><path d="m57.15,85.49h-15.12l-8.47-6.49-16.28,4.27-4.93-15.45,4.69-16.44-6.17-23.67,4.19-12.33,22.19,9.78h24.58l22.19-9.78,4.27,12.33-6.25,23.67,4.77,16.44-5.01,15.45-16.19-4.27-8.47,6.49ZM18.1,21.29l-2.22,6.33,5.18,18.91,12.49-2.47,8.3-8.47-23.76-14.3Zm22.44,33.54l-7.56,4.03,11.75,4.11-4.19-8.14Zm14.3,17.02h-9.78l-1.31,6.9h12.41l-1.32-6.9Zm-.41-8.88l11.67-4.11-7.48-4.03-4.19,8.14Zm23.67-16.44l5.1-18.91-2.22-6.33-23.67,14.3,8.22,8.47,12.58,2.47Z"/></svg>