<?xml version="1.0" encoding="UTF-8"?><svg id="_00" xmlns="http://www.w3.org/2000/svg" viewBox="0 0 100 100"><path d="m96.77,53.43H3.14v-4.93h93.62v4.93ZM14.98,34.85l3.04-18.41h5.1l2.96,18.41h.41l1.89-18.41h4.44l-2.88,22.36h-6.66l-2.63-16.44h-.41l-2.63,16.44h-6.74l-2.88-22.36h4.68l1.89,18.41h.41Zm61.07,35.1H17.36v-4.77h22.36l-4.44-9.37,40.77,14.14Zm5.92,4.6v4.77h-18.17l3.21,7.73-39.29-12.49h54.25Zm-37.15-39.7l3.04-18.41h5.1l2.96,18.41h.41l1.97-18.41h4.36l-2.79,22.36h-6.74l-2.63-16.44h-.41l-2.63,16.44h-6.74l-2.79-22.36h4.6l1.89,18.41h.41Zm29.67,0l3.04-18.41h5.01l3.04,18.41h.41l1.89-18.41h4.44l-2.88,22.36h-6.66l-2.63-16.44h-.41l-2.63,16.44h-6.74l-2.88-22.36h4.69l1.89,18.41h.41Z"/></svg>