<?xml version="1.0" encoding="UTF-8"?><svg id="_00" xmlns="http://www.w3.org/2000/svg" viewBox="0 0 100 100"><path d="m94.06,80.47l.08,5.01h-41.67v4.52h-4.93v-2.63c-2.63-.25-4.69-2.47-4.69-5.18s2.05-4.93,4.69-5.18v-12l-4.85-.25c-.49,2.3-2.55,4.03-5.01,4.03-1.07,0-1.97-.25-2.79-.82l-5.42,8.22c.33.66.58,1.48.58,2.22,0,2.88-2.38,5.18-5.18,5.18s-5.18-2.3-5.18-5.18c0-1.4.58-2.71,1.48-3.62l-3.04-14.55c-3.95-.25-6.49-3.04-6.49-7.15,0-1.56.41-2.96,1.07-4.11l-4.77-5.18c-.41.16-.9.25-1.4.25-2.3,0-4.19-1.89-4.19-4.19s1.89-4.19,4.19-4.19,4.19,1.89,4.19,4.19c0,.74-.16,1.48-.57,2.06l4.6,5.01c1.15-.66,2.47-.99,4.03-.99,1.31,0,2.46.25,3.45.74l8.88-11.51c-.49-.74-.82-1.73-.74-2.96v-.08l-8.14-3.62c-.74.82-1.89,1.4-3.12,1.4-2.3,0-4.19-1.89-4.19-4.19s1.89-4.19,4.19-4.19,4.19,1.89,4.19,4.27l8.06,3.53c.99-1.23,2.47-2.05,4.11-2.05,1.48,0,2.71.58,3.7,1.48l8.38-6.58v-10.69h4.93v4.03c2.38-.49,4.85-.74,7.32-.74,9.04,0,17.1,2.79,23.84,6.74l-9.45,7.64,4.69,13.32c.99,2.71-.41,5.34-3.12,5.1l-1.4-.08.33,3.86c.33,4.52-2.55,5.92-6.16,5.92h-3.7v2.63c3.37,0,8.38,1.23,10.03,4.93.74,1.56.74,4.03.49,5.51,1.4-.66,3.04-1.32,4.44-1.32,4.68,0,9.7,2.88,12.25,7.56l2.06,3.86ZM18.76,49.73c-2.06,0-3.37,1.31-3.37,3.37s1.32,3.37,3.37,3.37,3.37-1.32,3.37-3.37-1.31-3.37-3.37-3.37Zm5.1,23.59c.25,0,.58-.08.99-.08.9,0,1.89.33,2.63.74l5.51-8.14c-.33-.66-.49-1.4-.49-2.22,0-.58.08-1.15.25-1.73l-8.47-3.95c-.82.99-1.89,1.64-3.21,2.06l2.79,13.32Zm1.73-17.75l8.79,4.03c.33-.25.74-.49,1.15-.66l-1.23-21.45c-.33-.08-.66-.16-.99-.33l-8.79,11.43c.9,1.15,1.4,2.71,1.4,4.52,0,.9-.08,1.73-.33,2.47Zm12.82,2.96c.41.08.82.16,1.23.33l7.89-8.22v-9.37l-8.38-5.18c-.49.58-1.15.99-1.89,1.23l1.15,21.21Zm2.14-24.99l6.99,4.27v-11.92l-6.99,5.51c.08.33.08.66.08,1.07,0,.33,0,.74-.08,1.07Zm6.99,21.29l-5.67,5.84c.33.41.49.82.66,1.32l5.01.16v-7.32Zm4.93,9.54l7.81,9.7v-15.78c0-2.63,1.48-4.52,5.1-4.77l5.67-.25-.33-9.12h4.11l-4.19-12.74h-4.93c-3.7-3.86-6.49-6.25-13.23-6.49v9.95h.08v3.45h-.08v6.82c1.07.33,1.89,1.4,1.89,2.55s-.82,2.22-1.89,2.55v14.14Zm7.07-23.76c0-1.89,1.15-2.96,2.96-2.96s2.88,1.07,2.88,2.96-1.15,2.96-2.88,2.96-2.96-1.07-2.96-2.96Zm3.95,35.59l.08,5.43h26.96c-2.55-5.84-6.91-8.47-10.77-8.47-5.1,0-6.99,3.04-16.28,3.04Z"/></svg>