<?xml version="1.0" encoding="UTF-8"?><svg id="_00" xmlns="http://www.w3.org/2000/svg" viewBox="0 0 100 100"><path d="m52.46,90.01h-4.93v-4.52H11.03v-5.01l2.06-3.86c2.55-4.6,7.56-7.56,12.25-7.56,1.4,0,3.04.66,4.44,1.32-.25-1.48-.25-3.95.49-5.51,1.73-3.7,6.66-4.85,10.03-4.85l.08-2.71h-3.78c-3.62,0-6.49-1.32-6.08-5.92l.25-3.86-1.31.17c-2.79.16-4.03-2.47-3.21-5.18l5.26-17.43c-1.48-.99-2.63-2.63-2.63-4.19,0-4.03,3.37-5.43,6.82-5.43h11.84v-3.95h4.93v78.5Zm-37.89-8.38h26.96l.08-5.42c-9.29,0-11.18-3.04-16.28-3.04-3.86,0-8.14,2.63-10.77,8.47Zm30.25-7.56l2.71-3.37V31.32c-5.34-.99-10.36-2.79-12.49-4.11l-4.77,17.01h4.11l-.33,9.04,5.67.33c3.62.16,5.1,2.05,5.1,4.69v15.78Zm-5.1-35.59c0-1.89,1.15-2.88,2.96-2.88s2.88.99,2.88,2.88-1.15,2.96-2.88,2.96-2.96-1.07-2.96-2.96Zm15.62,11.18c0-2.55,1.23-3.86,3.86-3.86h30.5c2.63,0,3.86,1.31,3.86,3.86v3.45c0,2.55-1.23,3.86-3.86,3.86h-12.82v3.12h12.82c2.63,0,3.86,1.31,3.86,3.86v3.45c0,2.55-1.23,3.86-3.86,3.86h-12.82v3.04h12.82c2.63,0,3.86,1.32,3.86,3.86v3.45c0,2.55-1.23,3.86-3.86,3.86h-30.5c-2.63,0-3.86-1.31-3.86-3.86v-3.45c0-2.55,1.23-3.86,3.86-3.86h12.08v-3.04h-12.08c-2.63,0-3.86-1.32-3.86-3.86v-3.45c0-2.55,1.23-3.86,3.86-3.86h12.08v-3.12h-12.08c-2.63,0-3.86-1.32-3.86-3.86v-3.45Zm6.99,3.86c1.23,0,2.05-.82,2.05-2.14s-.82-2.14-2.05-2.14c-1.31,0-2.14.82-2.14,2.14s.82,2.14,2.14,2.14Zm0,14.3c1.23,0,2.05-.82,2.05-2.14s-.82-2.14-2.05-2.14c-1.31,0-2.14.82-2.14,2.14s.82,2.14,2.14,2.14Zm0,14.14c1.23,0,2.05-.82,2.05-2.05,0-1.32-.82-2.14-2.05-2.14-1.31,0-2.14.82-2.14,2.14,0,1.23.82,2.05,2.14,2.05Zm7.07-60.91c-1.97,1.56-3.29,4.03-3.29,6.82,0,4.85,3.95,8.79,8.79,8.79s8.88-3.95,8.88-8.79c0-2.79-1.32-5.34-3.37-6.9l3.12-3.95c3.29,2.63,5.18,6.58,5.18,10.85,0,7.56-6.17,13.73-13.81,13.73s-13.73-6.17-13.73-13.73c0-4.19,1.89-8.14,5.1-10.77l3.12,3.95Zm3.04-6.25h4.93v14.38h-4.93v-14.38Zm2.05,34.03v5.18h3.21v-5.18h-3.21Zm0,14.3v5.18h3.21v-5.18h-3.21Zm0,14.22v5.18h3.21v-5.18h-3.21Zm6.41-28.52v5.18h3.12v-5.18h-3.12Zm0,14.3v5.18h3.12v-5.18h-3.12Zm0,14.22v5.18h3.12v-5.18h-3.12Zm6.25-28.52v5.18h3.21v-5.18h-3.21Zm0,14.3v5.18h3.21v-5.18h-3.21Zm0,14.22v5.18h3.21v-5.18h-3.21Z"/></svg>