<?xml version="1.0" encoding="UTF-8"?><svg id="_00" xmlns="http://www.w3.org/2000/svg" viewBox="0 0 100 100"><path d="m52.46,90.01h-4.93v-4.52H10.46v-51.46h8.88v-8.63h8.63v-8.88h19.56v-5.01h4.93v78.5Zm-4.93-42.33v-8.71H15.39v41.92h32.14v-28.19c-.74-.49-1.23-1.4-1.23-2.55,0-1.07.49-1.97,1.23-2.46Zm-25.4-.74c1.73,0,2.96,1.15,2.96,2.88s-1.23,2.96-2.96,2.96-2.96-1.15-2.96-2.96,1.15-2.88,2.96-2.88Zm2.14-12.91h23.26v-4.03h-23.26v4.03Zm.49,27.21h5.42l3.04,9.45,5.51-15.12h5.1l-8.06,21.62h-4.77l-6.25-15.95Zm6.33-19.73l14.63,9.78h-18.91v-3.45h5.84l-1.56-6.33Zm1.81-16.11h14.63v-4.27h-14.63v4.27Zm22.44,24.25c0-2.55,1.23-3.86,3.86-3.86h31.15c2.63,0,3.86,1.31,3.86,3.86v3.45c0,2.55-1.23,3.86-3.86,3.86h-12.82v3.12h12.82c2.63,0,3.86,1.31,3.86,3.86v3.45c0,2.55-1.23,3.86-3.86,3.86h-12.82v3.04h12.82c2.63,0,3.86,1.32,3.86,3.86v3.45c0,2.55-1.23,3.86-3.86,3.86h-31.15c-2.63,0-3.86-1.31-3.86-3.86v-3.45c0-2.55,1.23-3.86,3.86-3.86h12.82v-3.04h-12.82c-2.63,0-3.86-1.32-3.86-3.86v-3.45c0-2.55,1.23-3.86,3.86-3.86h12.82v-3.12h-12.82c-2.63,0-3.86-1.32-3.86-3.86v-3.45Zm6.99,3.86c1.23,0,2.14-.82,2.14-2.14s-.9-2.14-2.14-2.14c-1.31,0-2.14.82-2.14,2.14s.82,2.14,2.14,2.14Zm0,14.3c1.23,0,2.14-.82,2.14-2.14s-.9-2.14-2.14-2.14c-1.31,0-2.14.82-2.14,2.14s.82,2.14,2.14,2.14Zm0,14.14c1.23,0,2.14-.82,2.14-2.05,0-1.32-.9-2.14-2.14-2.14-1.31,0-2.14.82-2.14,2.14,0,1.23.82,2.05,2.14,2.05Zm7.4-60.91c-1.97,1.56-3.21,4.03-3.21,6.82,0,4.85,3.95,8.79,8.8,8.79s8.79-3.95,8.79-8.79c0-2.79-1.32-5.34-3.37-6.9l3.12-3.95c3.29,2.63,5.26,6.58,5.26,10.85,0,7.56-6.16,13.73-13.81,13.73s-13.81-6.17-13.81-13.73c0-4.19,1.89-8.14,5.18-10.77l3.04,3.95Zm3.04-6.25h4.93v14.38h-4.93v-14.38Zm2.47,34.03v5.18h3.12v-5.18h-3.12Zm0,14.3v5.18h3.12v-5.18h-3.12Zm0,14.22v5.18h3.12v-5.18h-3.12Zm6.33-28.52v5.18h3.12v-5.18h-3.12Zm0,14.3v5.18h3.12v-5.18h-3.12Zm0,14.22v5.18h3.12v-5.18h-3.12Zm6.33-28.52v5.18h3.12v-5.18h-3.12Zm0,14.3v5.18h3.12v-5.18h-3.12Zm0,14.22v5.18h3.12v-5.18h-3.12Z"/></svg>