<?xml version="1.0" encoding="UTF-8"?><svg id="_00" xmlns="http://www.w3.org/2000/svg" viewBox="0 0 100 100"><path d="m85.42,85.41H14.65l-.08-11.67c0-4.85,2.14-10.52,8.88-11.51l14.8-2.14-.82-4.85c-1.89,0-3.7-.99-3.7-3.12,0-.82.33-1.56.82-2.14-3.53-2.63-3.53-12-.58-12-1.56-6.91.49-14.63,11.1-14.63l3.37-9.62h3.86l2.79,9.37c9.45.82,14.79,6.99,10.77,15.04,5.1.41,2.96,12.33-1.81,12.33l-1.15,9.78,14.22,2.63c5.75,1.07,8.3,6,8.3,10.52v12Zm-45.13-4.03c-1.31-4.77-4.03-9.54-9.37-9.54-6.25,0-8.22,4.77-9.7,9.54h19.07Zm2.47-18l-7.07,1.15,13.97,16.85,14.96-16.69-9.21-1.73c-1.81.25-4.11.41-7.07.25l-.41-2.88c7.23.33,10.93-1.23,12-6.58l.74-4.52c1.89,0,3.29-1.32,3.7-3.12.9-4.19.33-6.49-1.23-6.49-.33,0-.82.17-1.31.41,2.63-6.41,0-12.66-6.66-12.66-1.48,2.14-2.79,4.93-5.01,4.93-2.47,0-3.37-2.79-4.69-5.01-8.38,0-9.12,6.33-7.23,12.74-.33-.17-.58-.25-.9-.25-1.31,0-1.81,1.81-1.56,3.45.25,2.71,1.64,6,3.86,6.08l3.12,14.06Zm4.6-22.69c0,1.56-.9,2.47-2.47,2.47-1.64,0-2.47-.9-2.47-2.47,0-1.64.82-2.47,2.47-2.47s2.47.82,2.47,2.47Zm5.26,0c0-1.64.82-2.47,2.47-2.47s2.46.82,2.46,2.47-.9,2.47-2.46,2.47c-1.64,0-2.47-.9-2.47-2.47Z"/></svg>