<?xml version="1.0" encoding="UTF-8"?><svg id="_00" xmlns="http://www.w3.org/2000/svg" viewBox="0 0 100 100"><path d="m2.57,61.16l.99-10.27c.41-4.36,6.08-6.25,9.04-6.33,1.07,3.37,4.11,6.9,8.14,6.9,3.78,0,6.25-3.86,7.48-6.9,1.73,0,6.49.82,8.63,3.86h9.29v4.93h-8.05l.66,7.81H2.57Zm13.56-3.04c-.58-2.3-1.89-4.6-4.52-4.6-3.04,0-4.03,2.3-4.69,4.6h9.21Zm4.27-10.77c-3.7,0-5.92-3.04-7.4-8.96-2.63,0-3.04-3.53-3.04-7.4,0-5.59,4.77-7.64,8.8-7.64h2.88c4.68,0,8.47,1.89,8.47,7.15,0,3.78-.41,7.73-2.63,7.73-.82,5.42-3.86,9.12-7.07,9.12Zm-4.44-10.44c.25,3.95,2.14,7.15,4.44,7.15s4.11-3.04,4.52-7.15l-.99-6.9c-1.81,2.22-4.69,3.04-8.05,3.04l.08,3.86Zm48.99,38.22l-10.44-18.99-10.19,18.91-4.36-2.38,11.75-21.62-11.75-21.37,4.36-2.38,10.19,18.58,9.78-18.08,4.36,2.3-11.34,20.88,11.92,21.78-4.27,2.38Zm-1.56-21.78v-4.93h6.41c1.32-6.25,6.9-10.93,13.48-10.93,7.64,0,13.81,6.17,13.81,13.81s-6.17,13.81-13.81,13.81c-6.9,0-12.58-5.1-13.56-11.75h-6.33Zm19.89,8.47c5.84,0,10.52-4.77,10.52-10.52s-4.69-10.52-10.52-10.52-10.44,4.69-10.44,10.52,4.69,10.52,10.44,10.52Zm0-18c4.11,0,7.48,3.37,7.48,7.48s-3.37,7.4-7.48,7.4-7.4-3.29-7.4-7.4,3.37-7.48,7.4-7.48Z"/></svg>