<?xml version="1.0" encoding="UTF-8"?><svg id="_00" xmlns="http://www.w3.org/2000/svg" viewBox="0 0 100 100"><path d="m84.93,87.21H14.16l-.08-11.67c0-4.93,2.14-10.6,8.88-11.51l15.54-2.3-1.48-6.82c-5.51-1.07-12.74-4.11-9.21-12.74l5.18-12.74c0-6.9,4.27-12.17,12-12.17h9.86c7.48,0,12.25,5.1,12.25,11.84l4.6,12.33c3.7,9.78-2.71,11.92-8.55,12.74l-1.81,7.64,15.29,2.88c5.75,1.07,8.3,6,8.3,10.52v12Zm-45.13-4.03c-1.32-4.85-4.03-9.54-9.37-9.54-6.25,0-8.22,4.68-9.7,9.54h19.07Zm7.64-21.13c7.31.41,11.01-1.15,12.16-6.58l.9-4.44c1.89,0,4.19-2.14,4.6-4.03.9-3.7-.08-5.42-1.81-5.42-.33,0-.74.08-1.15.25l-1.48-13.48c-4.19,3.95-15.12,5.75-22.03,5.26l-.58,8.22c-.33-.16-.74-.25-.99-.25-1.4,0-2.14,1.56-2.05,3.53.08,3.04,2.3,5.92,4.44,5.92l2.79,14.14-6.82,1.23c1.07,6.66,7.15,10.36,14.55,10.36s13.48-3.7,14.55-10.27l-9.86-1.81c-1.73.33-3.86.41-6.82.33l-.41-2.96Zm-2.79-22.11c1.4,0,2.46,1.15,2.46,2.47,0,1.4-1.07,2.47-2.46,2.47-1.32,0-2.47-1.07-2.47-2.47,0-1.31,1.15-2.47,2.47-2.47Zm10.19,0c1.4,0,2.47,1.15,2.47,2.47,0,1.4-1.07,2.47-2.47,2.47-1.32,0-2.47-1.07-2.47-2.47,0-1.31,1.15-2.47,2.47-2.47Z"/></svg>