<?xml version="1.0" encoding="UTF-8"?><svg id="_00" xmlns="http://www.w3.org/2000/svg" viewBox="0 0 100 100"><path d="m84.19,78.17c0,4.52-2.71,7.32-7.56,7.32H22.71c-4.69,0-7.48-2.79-7.48-7.32V23.84c0-4.6,2.79-7.4,7.48-7.4h53.92c4.85,0,7.56,2.79,7.56,7.4v54.33Zm-33.87.9h4.6v-6.58c6.41-.82,10.77-5.34,10.77-11.59,0-5.84-3.29-9.45-8.22-10.6v-.16c4.03-1.31,6.66-4.19,6.66-9.21,0-5.51-3.45-9.37-9.21-10.6v-6.82h-4.6v6.49h-3.04v-6.49h-4.6v6.49h-6.66v42.58h6.66v6.49h4.6v-6.49h3.04v6.49Zm-8.3-43.81h8.71c4.19,0,6.74,1.73,6.74,5.18v2.38c0,2.88-2.55,5.1-6.74,5.1h-8.71v-12.66Zm0,18h9.54c4.69,0,7.4,2.06,7.4,5.75v2.47c0,3.86-2.71,5.84-7.4,5.84h-9.54v-14.06Z"/></svg>