<?xml version="1.0" encoding="UTF-8"?><svg id="_00" xmlns="http://www.w3.org/2000/svg" viewBox="0 0 100 100"><path d="m52.46,90.01h-4.93v-2.71c-18.91-1.23-33.95-17.02-33.95-36.33S28.62,15.95,47.53,14.72v-3.21h4.93v4.11h2.47c8.47.08,15.04,8.47,12.25,18.82,1.48.25,2.22,1.31,2.22,3.04v11.26c0,2.3-1.32,3.37-4.36,3.37h-1.23l-.99,8.22,14.22,2.63c5.75,1.07,8.3,6,8.3,10.52v12h-32.88v4.52Zm-22.93-41.35c.25-4.27.99-8.63,2.38-12.58-2.55-1.15-4.85-2.47-7.07-4.11-3.54,4.69-5.75,10.52-6.25,16.69h10.93Zm-10.93,4.6c.41,5.67,2.38,11.1,5.34,15.54,2.3-1.73,4.77-3.21,7.32-4.44-.99-3.45-1.56-7.32-1.73-11.1h-10.93Zm22.93,28.11c-3.95-3.53-6.91-8.06-8.88-13.07-2.3.9-4.44,2.06-6.41,3.37,3.95,4.52,9.21,7.97,15.29,9.7Zm-8.06-49.24c2.05-4.44,4.93-8.47,8.63-11.67-5.75,1.48-10.85,4.52-14.8,8.71,1.89,1.15,4.03,2.14,6.17,2.96Zm13.97,16.52v-9.12c-3.78-.16-7.64-.74-11.26-1.89-.99,3.45-1.56,7.32-1.73,11.01h12.99Zm0,4.6h-12.99c.16,3.12.58,6.41,1.32,9.37,3.78-1.15,7.73-1.81,11.67-2.06v-7.32Zm0,12c-3.54.16-7.07.66-10.44,1.56,2.22,6.08,5.67,11.34,10.44,14.88v-16.44Zm0-45.29c-4.36,3.29-7.64,8.06-9.78,13.48,3.12.82,6.49,1.31,9.78,1.4v-14.88Zm5.01,14.38h10.36c.25-3.86-1.81-6.9-5.43-6.9-2.22,0-3.37,1.81-4.93,2.88v4.03Zm0,13.97h13.07v-10.11h-13.07v10.11Zm0,3.78v8.14c4.19-.49,6.58-2.3,7.4-6.41l.25-1.73h-7.64Zm0,22.85c6.25-.74,11.18-4.27,12.08-10.19l-9.29-1.73c-.82.08-1.73.25-2.79.25v11.67Z"/></svg>