<?xml version="1.0" encoding="UTF-8"?><svg id="_00" xmlns="http://www.w3.org/2000/svg" viewBox="0 0 100 100"><path d="m50,14.63c20.06,0,36.33,16.28,36.33,36.33s-16.28,36.41-36.33,36.41S13.58,71.1,13.58,50.96,29.86,14.63,50,14.63Zm0,67.9c17.34,0,31.48-14.14,31.48-31.56s-14.14-31.48-31.48-31.48-31.56,14.14-31.56,31.48,14.14,31.56,31.56,31.56Zm-14.06-22.77c0-5.18,3.12-8.22,7.81-9.45v-.49c-4.03-1.4-6.66-4.52-6.66-8.96,0-5.92,4.69-9.95,12.9-9.95s12.91,4.03,12.91,9.95c0,4.44-2.63,7.56-6.66,8.96v.49c4.69,1.23,7.81,4.27,7.81,9.45,0,6.49-4.85,11.34-14.06,11.34s-14.06-4.85-14.06-11.34Zm21.7.16v-1.15c0-3.86-2.79-6.17-7.64-6.17s-7.64,2.3-7.64,6.17v1.15c0,3.95,2.79,6.17,7.64,6.17s7.64-2.22,7.64-6.17Zm-.82-17.75v-.66c0-3.53-2.38-5.67-6.82-5.67s-6.82,2.14-6.82,5.67v.66c0,3.54,2.38,5.67,6.82,5.67s6.82-2.14,6.82-5.67Z"/></svg>