<?xml version="1.0" encoding="UTF-8"?><svg id="_00" xmlns="http://www.w3.org/2000/svg" viewBox="0 0 100 100"><path d="m43.42,67.82v8.38h-7.4v4.27h7.4v6.9h-6.17c-4.85,0-7.4-2.47-7.4-6.41v-37.48c-6.82-1.15-12.08-7.07-12.08-14.3,0-7.97,6.49-14.47,14.55-14.47s14.47,6.49,14.47,14.47c0,7.15-5.18,13.07-11.92,14.3v24.33h8.55Zm-11.1-28.93c5.34,0,9.7-4.36,9.7-9.7s-4.36-9.7-9.7-9.7-9.7,4.36-9.7,9.7,4.36,9.7,9.7,9.7Zm31.4,3.45c10.19,0,16.36,6.9,18.33,11.34-1.97,4.44-8.3,11.34-18.33,11.34s-16.93-6.99-18.5-11.34c1.56-4.36,8.22-11.34,18.5-11.34Zm0,17.51c3.62,0,6.08-2.47,6.08-6.17s-2.47-6.17-6.08-6.17-6.17,2.47-6.17,6.17,2.47,6.17,6.17,6.17Z"/></svg>