<?xml version="1.0" encoding="UTF-8"?><svg id="_00" xmlns="http://www.w3.org/2000/svg" viewBox="0 0 100 100"><path d="m50.08,20.96H13.99v59.92h36.08v4.6H16.46c-4.69,0-7.48-2.79-7.48-7.4V23.76c0-4.52,2.79-7.4,7.48-7.4h33.62v4.6Zm-29.76,13.32v-4.69h29.76v4.69h-29.76Zm0,12.66v-4.69h29.76v4.69h-29.76Zm0,12.33v-4.69h29.76v4.69h-29.76Zm0,12.33v-4.69h29.76v4.69h-29.76Zm32.88,1.31c0-4.52,3.12-8.38,6.49-10.36h6.17c-4.77,3.12-7.89,5.51-8.47,8.55l.33.08c.49-1.07,1.73-2.71,4.27-2.71,2.88,0,5.1,2.06,5.1,5.18,0,3.54-2.63,6-6.99,6s-6.9-2.71-6.9-6.74Zm1.07-34.77v-3.78l5.26-4.03c2.3-1.73,2.96-2.63,2.96-4.03v-.17c0-1.07-.99-1.64-2.14-1.64-1.48,0-2.38.99-2.88,2.38l-3.7-1.4c.74-2.22,2.63-4.44,6.74-4.44s6.58,2.14,6.58,5.1c0,2.71-2.14,4.52-5.26,6.66l-2.71,1.89h8.22v3.45h-13.07Zm-.25,17.92l3.12-2.05c.74,1.32,1.97,2.22,3.62,2.22,1.73,0,2.47-1.07,2.47-2.47v-.25c0-1.32-.9-2.22-2.22-2.22-1.23,0-2.3.82-2.63,1.15l-3.78-.33.66-9.7h11.59v3.45h-8.63l-.33,5.26h.25c.66-1.64,1.73-2.88,4.36-2.88,3.04,0,5.51,1.81,5.51,5.18s-2.55,6.08-7.32,6.08c-3.7,0-5.67-1.64-6.66-3.45Zm8.63,18.17v-.49c0-1.31-.66-2.3-2.38-2.3s-2.38.99-2.38,2.3v.49c0,1.4.66,2.3,2.38,2.3s2.38-.9,2.38-2.3Zm8.8-39.95v-4.69h4.69v4.69h-4.69Zm.08,12.66v-4.69h11.01v4.69h-11.01Zm0,12.33v-4.69h4.69v4.69h-4.69Zm0,12.33v-4.69h12.66v4.69h-12.66Zm7.56-37.32v-4.69h5.42v4.69h-5.42Zm.41,24.99v-4.69h4.93v4.69h-4.93Zm6.17-12.33v-4.69h6.66v4.69h-6.66Zm1.48,24.66v-4.69h5.18v4.69h-5.18Zm.49-37.32v-4.69h4.68v4.69h-4.68Zm0,24.99v-4.69h4.68v4.69h-4.68Z"/></svg>