<?xml version="1.0" encoding="UTF-8"?><svg id="_00" xmlns="http://www.w3.org/2000/svg" viewBox="0 0 100 100"><path d="m52.46,90.01h-4.93v-4.52H13.91V16.36h33.62v-4.85h4.93v42.25c.74-.08,1.48-.16,2.14-.16,3.95.16,7.64,1.64,10.69,5.92l9.21.74c1.31.08,2.55.58,3.45,1.15,2.71-1.15,7.15-2.79,10.11-2.79,4.6,0,8.22,3.78,8.22,7.81,0,.58.08,2.88-1.81,3.78l-24.25,10.85c-1.4.74-3.53,1.23-5.51,1.23-1.4,0-2.71-.25-3.7-.9-2.55-1.73-6-4.11-8.55-6v14.63Zm-33.62-9.12h28.69v-10.03h-3.78v-4.77h3.78v-7.23h-3.78v-4.77h3.78v-7.32h-3.78v-4.77h3.78v-8.47h-11.51l11.51-5.67v-6.9h-28.69v59.92Zm9.54-32.63c-2.38,0-4.03-1.56-4.03-4.03s1.64-3.95,4.03-3.95,4.03,1.56,4.03,3.95-1.64,4.03-4.03,4.03Zm0,12.08c-2.38,0-4.03-1.56-4.03-4.03s1.64-3.95,4.03-3.95,4.03,1.56,4.03,3.95-1.64,4.03-4.03,4.03Zm0,12.08c-2.38,0-4.03-1.56-4.03-4.03s1.64-3.95,4.03-3.95,4.03,1.56,4.03,3.95-1.64,4.03-4.03,4.03Zm.08-36.25c-2.47,0-4.03-1.64-4.03-4.03s1.56-4.03,4.03-4.03,3.95,1.64,3.95,4.03-1.56,4.03-3.95,4.03Zm12.33,10.6h-4.85v-4.77h4.85v4.77Zm0,12.08h-4.85v-4.77h4.85v4.77Zm0,12h-4.85v-4.77h4.85v4.77Zm24.74,4.03l-2.38-2.96,1.56-1.07-9.95-2.55.9-3.62,16.36,3.86c.49.16,1.07.16,1.48.16,1.56,0,2.79-.66,2.96-1.97.16-1.15-.66-2.71-2.22-2.88l-7.81-.49c-2.47-.16-3.37-.82-4.44-1.97-2.63-2.63-4.44-3.21-7.07-3.21-.82,0-1.64,0-2.47.16l-.08,12c1.89,1.4,5.92,4.27,9.29,6.66,1.07.74,2.71,1.15,4.27,1.15,1.23,0,2.38-.25,3.29-.74,7.23-3.7,15.45-7.15,22.93-10.44-.66-2.96-2.38-4.44-4.6-4.44-.58,0-1.15.16-1.81.33-1.97.66-3.45,1.23-5.34,1.89.08.25.16.58.16.82,0,5.34-3.78,6.99-7.48,6.99-1.15,0-2.3-.16-3.29-.41l-4.27,2.71Zm16.77-53.76c-2.05-2.05-4.77-3.12-7.4-3.12s-5.42,1.07-7.48,3.12c-4.11,4.11-4.11,10.77,0,14.88l-2.3,2.3c-5.42-5.34-5.42-14.14,0-19.48,2.71-2.71,6.25-4.11,9.78-4.11s7.07,1.4,9.7,4.11l-2.3,2.3Zm2.88,8.55c5.34,5.43,5.34,14.14,0,19.48-2.71,2.71-6.25,4.03-9.78,4.03s-7.07-1.31-9.78-4.03l2.3-2.3c2.14,2.05,4.85,3.04,7.48,3.04s5.42-.99,7.4-3.04c4.11-4.11,4.11-10.77,0-14.88l2.38-2.3Zm-15.54,4.19c-2.96-2.96-2.96-7.64-.08-10.52,1.48-1.48,3.37-2.22,5.26-2.22s3.86.74,5.26,2.22l-10.44,10.52Zm11.01.33c2.88,2.88,2.88,7.56,0,10.52-1.4,1.4-3.37,2.14-5.26,2.14s-3.78-.74-5.26-2.14l10.52-10.52Z"/></svg>