<?xml version="1.0" encoding="UTF-8"?><svg id="_00" xmlns="http://www.w3.org/2000/svg" viewBox="0 0 100 100"><path d="m12.68,39.46c3.12,0,5.75,2.05,6.66,4.77h8.06v-1.23c0-2.55,1.23-3.86,3.86-3.86h16.19v-9.04c-2.63-.99-4.52-3.53-4.52-6.49,0-3.95,3.21-7.07,7.07-7.07s7.07,3.12,7.07,7.07c0,3.04-1.97,5.59-4.69,6.58v8.96h16.85c2.63,0,3.86,1.32,3.86,3.86v1.23h7.64c.99-2.71,3.62-4.77,6.66-4.77,3.86,0,7.07,3.21,7.07,7.07s-3.21,6.99-7.07,6.99c-2.96,0-5.51-1.81-6.58-4.52h-7.73l.08,1.07c0,2.55-1.23,3.86-3.95,3.86H31.26c-2.63,0-3.86-1.31-3.86-3.86v-1.07h-8.14c-.99,2.71-3.62,4.52-6.58,4.52-3.86,0-7.07-3.12-7.07-6.99s3.21-7.07,7.07-7.07Zm3.78,46.03c-4.69,0-7.48-2.79-7.48-7.4v-9.7c0-4.52,2.79-7.4,7.48-7.4h67.08c4.68,0,7.48,2.88,7.48,7.4v9.7c0,4.6-2.79,7.4-7.48,7.4H16.46Zm69.54-4.6v-15.29H13.91v15.29h72.09Zm-67.81-5.51v-4.77h8.71v4.77h-8.71Zm13.15,0v-4.77h15.12v4.77h-15.12Zm19.73,0v-4.77h6.49v4.77h-6.49Zm11.18,0v-4.77h19.48v4.77h-19.48Z"/></svg>