<?xml version="1.0" encoding="UTF-8"?><svg id="_00" xmlns="http://www.w3.org/2000/svg" viewBox="0 0 100 100"><path d="m50,14.63c20.06,0,36.33,16.28,36.33,36.33s-16.28,36.41-36.33,36.41S13.58,71.1,13.58,50.96,29.86,14.63,50,14.63Zm-4.85,38.22h4.19c5.1,0,7.89,2.22,7.89,6.17v.41c0,4.03-2.71,6.41-7.56,6.41s-6.9-2.14-8.88-5.26l-4.6,3.54c2.47,3.53,6.16,6.99,13.4,6.99,8.55,0,14.22-4.6,14.22-11.34,0-5.67-3.95-8.8-8.38-9.62v-.33c4.19-.9,7.56-3.95,7.56-8.88,0-6.33-5.43-10.03-12.74-10.03-6.58,0-10.11,3.04-12.58,6.41l4.27,3.62c1.73-2.96,4.36-4.77,8.05-4.77,3.95,0,6.49,1.89,6.49,5.51v.33c0,3.21-2.38,5.59-7.32,5.59h-4.03v5.26Z"/></svg>