<?xml version="1.0" encoding="UTF-8"?><svg id="_00" xmlns="http://www.w3.org/2000/svg" viewBox="0 0 100 100"><path d="m9.06,21.29c0-3.37,1.64-4.93,4.93-4.93h71.92c3.21,0,5.1,1.56,5.1,4.93v59.27c0,3.29-1.56,4.93-4.93,4.93H13.91c-3.29,0-4.85-1.64-4.85-4.85V21.29Zm76.94-.25H13.99v59.84h72.01V21.04ZM18.93,75.95V25.89h11.84v50.06h-11.84Zm9.12-16.93v-3.29h-6.33v3.29h6.33Zm0,6.9v-3.37h-6.33v3.37h6.33Zm0,6.82v-3.29h-6.33v3.29h6.33Zm-6.16-41.35c0,1.64,1.07,2.79,2.71,2.79,1.81,0,2.88-1.15,2.88-2.79,0-1.73-1.07-2.88-2.88-2.88-1.64,0-2.71,1.15-2.71,2.88Zm13.81,44.55V25.89h11.84v50.06h-11.84Zm9.12-16.93v-3.29h-6.33v3.29h6.33Zm0,6.9v-3.37h-6.33v3.37h6.33Zm0,6.82v-3.29h-6.33v3.29h6.33Zm-6-41.35c0,1.64,1.07,2.79,2.71,2.79,1.81,0,2.88-1.15,2.88-2.79,0-1.73-1.07-2.88-2.88-2.88-1.64,0-2.71,1.15-2.71,2.88Zm13.73,44.55V25.89h11.75v50.06h-11.75Zm8.96-16.93v-3.29h-6.25v3.29h6.25Zm0,6.9v-3.37h-6.25v3.37h6.25Zm0,6.82v-3.29h-6.25v3.29h6.25Zm-5.92-41.35c0,1.64,1.15,2.79,2.79,2.79,1.73,0,2.88-1.15,2.88-2.79,0-1.73-1.15-2.88-2.88-2.88s-2.79,1.15-2.79,2.88Zm13.65,44.55V25.89h11.84v50.06h-11.84Zm9.04-16.93v-3.29h-6.33v3.29h6.33Zm0,6.9v-3.37h-6.33v3.37h6.33Zm0,6.82v-3.29h-6.33v3.29h6.33Zm-5.92-41.35c0,1.64,1.15,2.79,2.79,2.79,1.73,0,2.79-1.15,2.79-2.79,0-1.73-1.07-2.88-2.79-2.88s-2.79,1.15-2.79,2.88Z"/></svg>