<?xml version="1.0" encoding="UTF-8"?><svg id="_00" xmlns="http://www.w3.org/2000/svg" viewBox="0 0 100 100"><path d="m13.5,52.69c4.6,0,7.97,2.71,8.88,6.9l15.12-.08c3.95,0,6.41,2.55,6.41,7.4v3.45h-4.77v-6.08h-4.93v6.08h-4.69v-6.08h-7.07c-.9,4.36-4.36,7.15-9.12,7.15-5.67,0-9.37-3.78-9.45-9.37,0-5.84,3.86-9.37,9.62-9.37Zm10.28-31.73c10.19,0,16.44,6.91,18.41,11.26-1.97,4.44-8.38,11.43-18.41,11.43s-16.85-6.99-18.41-11.43c1.56-4.27,8.22-11.26,18.41-11.26Zm-15.21,41.1c0,2.79,1.89,4.69,4.77,4.69s4.69-1.89,4.69-4.69-1.89-4.77-4.69-4.77-4.77,1.89-4.77,4.77Zm15.21-23.67c3.7,0,6.16-2.47,6.16-6.17s-2.46-6.08-6.16-6.08-6.17,2.38-6.17,6.08,2.47,6.17,6.17,6.17Zm28.69,51.62h-4.93V11.51h4.93v10.77l8.22,6.49c.99-.9,2.22-1.48,3.7-1.48,1.64,0,3.12.82,4.11,2.05l8.05-3.53c0-2.38,1.89-4.27,4.19-4.27s4.19,1.89,4.19,4.19-1.89,4.19-4.19,4.19c-1.23,0-2.38-.58-3.12-1.4l-8.14,3.62.08.08c0,1.23-.33,2.22-.82,2.96l8.88,11.51c.99-.49,2.14-.74,3.45-.74,1.56,0,2.88.33,4.03.99l4.6-5.01c-.41-.58-.58-1.31-.58-2.05,0-2.3,1.89-4.19,4.19-4.19s4.19,1.89,4.19,4.19-1.89,4.19-4.19,4.19c-.49,0-.99-.08-1.4-.25l-4.77,5.18c.74,1.15,1.07,2.55,1.07,4.11,0,4.11-2.55,6.9-6.49,7.15l-3.04,14.55c.9.9,1.56,2.22,1.56,3.62,0,2.88-2.38,5.18-5.18,5.18s-5.18-2.3-5.18-5.18c0-.74.16-1.56.49-2.22l-5.42-8.22c-.74.58-1.73.82-2.79.82-2.38,0-4.52-1.73-5.01-4.03l-4.69.25v12c2.55.33,4.52,2.55,4.52,5.18s-1.97,4.85-4.52,5.18v2.63Zm6.82-58.61l-6.82-5.34v11.67l6.82-4.19c-.08-.33-.08-.74-.08-1.07,0-.41,0-.74.08-1.07Zm-6.82,19.4l7.81,8.06c.33-.17.74-.25,1.15-.33l1.15-21.21c-.74-.25-1.4-.66-1.89-1.23l-8.22,5.1v9.62Zm0,11.34l4.85-.17c.16-.49.33-.9.66-1.32l-5.51-5.67v7.15Zm22.85-13.56l-8.8-11.43c-.33.17-.66.25-.99.33l-1.23,21.45c.41.16.82.41,1.15.66l8.8-4.03c-.25-.74-.33-1.56-.33-2.47,0-1.81.49-3.37,1.4-4.52Zm-2.96,25.4c.74-.41,1.73-.74,2.71-.74.33,0,.66.08.99.08l2.71-13.32c-1.32-.41-2.38-1.07-3.21-2.05l-8.47,3.95c.16.58.25,1.15.25,1.73,0,.82-.17,1.56-.49,2.22l5.51,8.14Zm8.71-17.51c2.05,0,3.37-1.32,3.37-3.37s-1.31-3.37-3.37-3.37-3.37,1.31-3.37,3.37,1.4,3.37,3.37,3.37Z"/></svg>