<?xml version="1.0" encoding="UTF-8"?><svg id="_00" xmlns="http://www.w3.org/2000/svg" viewBox="0 0 100 100"><path d="m29.78,31.57v1.64l14.8-8.55v-6.99h11.18v7.07l14.63,8.47v-1.64h11.18v11.59h-3.86v18.41h3.86v11.67h-10.77l-14.71,8.47v6.99h-11.18v-6.58l-15.45-8.88h-10.77v-11.67h3.86v-18.41h-3.86v-11.59h11.1Zm0,30v8.14l15.12,8.71v-1.32h11.18v.82l14.3-8.22v-8.14h4.03v-18.41h-4.03v-6.17l-14.63-8.47v.74h-11.18v-.82l-14.8,8.55v6.17h-3.95v18.41h3.95Zm31.81,3.12c0,2.47-1.48,3.95-4.03,3.95h-14.55c-2.47,0-3.95-1.48-3.95-3.95v-13.4c0-2.14,1.15-3.62,3.12-3.86v-2.14c0-6.08,2.96-9.45,8.06-9.45s8.06,3.29,8.06,9.45v2.06c2.14.33,3.29,1.73,3.29,3.95v13.4Zm-15.62-17.34h8.55v-2.06c0-3.29-.9-5.67-4.27-5.67-3.04,0-4.27,2.38-4.27,5.67v2.06Zm3.04,10.11l-1.56,5.34v1.56h5.59v-1.56l-1.48-5.34c1.15-.49,1.97-1.56,1.97-3.04,0-1.97-1.31-3.29-3.29-3.29s-3.29,1.31-3.29,3.29c0,1.48.82,2.55,2.05,3.04Z"/></svg>