<?xml version="1.0" encoding="UTF-8"?><svg id="_00" xmlns="http://www.w3.org/2000/svg" viewBox="0 0 100 100"><path d="m51.39,87.38h-29.18c-4.69,0-7.48-2.79-7.48-7.4V22.2c0-4.6,2.79-7.4,7.48-7.4h49.81c4.77,0,7.56,2.79,7.56,7.4v29.43l-4.93-.08V19.4H19.67v63.38h31.73v4.6Zm-12.49-48.66h-14.63l.33-2.79c.33-2.06,1.56-3.12,2.46-3.12.49,1.48,1.56,3.12,4.36,3.12s4.03-1.73,4.69-3.12c.66,0,2.14.66,2.46,3.29l.33,2.63Zm0,17.59h-14.63l.33-2.79c.33-2.06,1.56-3.12,2.46-3.12.49,1.48,1.56,3.12,4.36,3.12s4.03-1.73,4.69-3.12c.66,0,2.14.66,2.46,3.29l.33,2.63Zm0,17.75h-14.63l.33-2.79c.33-2.06,1.56-3.12,2.46-3.12.49,1.56,1.56,3.12,4.36,3.12s4.03-1.73,4.69-3.12c.66,0,2.14.66,2.46,3.37l.33,2.55Zm-7.48-49.32c1.73,0,2.88,1.64,2.88,4.19s-1.15,4.11-2.88,4.11-2.88-1.64-2.88-4.11,1.15-4.19,2.88-4.19Zm0,17.59c1.73,0,2.88,1.73,2.88,4.19s-1.15,4.11-2.88,4.11-2.88-1.64-2.88-4.11,1.15-4.19,2.88-4.19Zm0,17.84c1.73,0,2.88,1.64,2.88,4.11s-1.15,4.19-2.88,4.19-2.88-1.73-2.88-4.19,1.15-4.11,2.88-4.11Zm12.25-21.54v-4.27h24.25v4.27h-24.25Zm0,17.59v-4.27h15.12v4.27h-15.12Zm0,17.84v-4.27h7.73v4.27h-7.73Zm30.58-14.71c1.4-.17,2.96-1.07,4.27-1.07.41-.08.82.08,1.15.33,1.48,1.07.66,3.62.99,5.43,1.56.82,4.28.82,4.85,2.55.58,1.73-1.64,3.29-2.47,4.93.82,1.64,3.04,3.21,2.47,4.93-.58,1.73-3.29,1.73-4.85,2.55-.33,1.81.49,4.36-.99,5.34-.33.25-.74.41-1.15.41-1.31,0-2.88-.99-4.27-1.15-1.23,1.23-2.06,3.78-3.86,3.78s-2.63-2.55-3.95-3.78c-1.32.17-2.88,1.07-4.19,1.07-.41.08-.82-.08-1.23-.33-1.48-.99-.66-3.53-.99-5.34-1.56-.82-4.11-.82-4.77-2.47l-.08-.08c-.49-1.73,1.64-3.29,2.46-4.93-.82-1.64-2.96-3.21-2.46-4.93.57-1.73,3.29-1.73,4.85-2.55.33-1.81-.49-4.36.99-5.43.41-.25.82-.41,1.23-.41,1.32,0,2.88.99,4.19,1.15,1.32-1.23,2.14-3.78,3.95-3.78s2.63,2.55,3.86,3.78Zm-6.58,4.44l-3.45,4.27,2.22,1.73,2.63-3.29h.25v8.79h-3.78v2.63h10.52v-2.63h-3.29v-11.51h-5.1Z"/></svg>