<?xml version="1.0" encoding="UTF-8"?><svg id="_00" xmlns="http://www.w3.org/2000/svg" viewBox="0 0 100 100"><path d="m40.46,31.4c7.32.74,17.26-1.4,20.88-4.19l2.3,12.91c.41-.17.82-.25,1.15-.25,1.64,0,2.22,1.89,2.14,3.7-.08,3.04-1.48,6.82-4.03,7.07l-1.56,5.42c-1.56,4.77-4.85,6.49-11.84,6.17l.41,2.96c3.86.49,11.26-.99,13.23-5.01l13.32,2.79c5.67,1.15,8.22,6,8.22,10.52v12H13.91v-11.59c0-4.93,2.06-10.6,8.88-11.59l19.73-2.79-2.47-8.88c-2.3,0-4.19-2.38-4.6-5.51-.41-2.88.58-5.59,3.29-5.01l1.73-8.71Zm-22.6,50.31h2.71c1.48-4.68,3.37-9.21,9.62-9.21,5.42,0,8.06,4.52,9.37,9.21h41.35v-7.97c0-4.19-2.63-6.66-5.75-7.4l-7.15-1.64c-1.64,6.17-9.29,10.44-18.17,10.44-7.48,0-16.28-3.95-17.34-11.01l-7.4,1.31c-4.36.82-7.23,2.88-7.23,7.81v8.47Zm20.8-24.08c-7.89,1.23-16.85-4.85-10.77-19.81l3.95-9.78c0-6.82,3.86-13.32,14.14-13.32h11.18c10.52,0,13.56,6.82,13.56,12.99l4.69,12.25c4.19,11.01-2.14,16.28-11.1,16.93l.82-3.12c5.75-.41,10.6-3.7,7.15-12.66l-4.85-12.82c.08-6.82-3.21-10.28-10.27-10.28h-11.18c-7.23,0-10.93,3.7-10.85,10.6l-4.19,10.44c-4.85,11.84,1.73,15.62,6.9,15.45l.82,3.12Zm6.82-14.38c1.32,0,2.47-1.15,2.47-2.47,0-1.4-1.15-2.47-2.47-2.47-1.4,0-2.47,1.07-2.47,2.47,0,1.32,1.07,2.47,2.47,2.47Zm10.93,0c1.32,0,2.47-1.15,2.47-2.47,0-1.4-1.15-2.47-2.47-2.47-1.4,0-2.47,1.07-2.47,2.47,0,1.32,1.07,2.47,2.47,2.47Z"/></svg>