<?xml version="1.0" encoding="UTF-8"?><svg id="_00" xmlns="http://www.w3.org/2000/svg" viewBox="0 0 100 100"><path d="m82.38,78.09c0,4.6-2.79,7.4-7.56,7.4H25.01c-4.69,0-7.48-2.79-7.48-7.4V23.76c0-4.6,2.79-7.4,7.48-7.4h49.81c4.77,0,7.56,2.79,7.56,7.4v54.33Zm-59.84,2.79h54.91V21.04H22.54v59.84Zm8.22-50.72c2.38,0,4.03,1.56,4.03,4.03s-1.64,3.95-4.03,3.95-4.03-1.56-4.03-3.95,1.64-4.03,4.03-4.03Zm0,11.92c2.38,0,4.03,1.56,4.03,4.03s-1.64,3.95-4.03,3.95-4.03-1.56-4.03-3.95,1.64-4.03,4.03-4.03Zm0,12.99c2.38,0,4.03,1.64,4.03,4.03s-1.64,4.03-4.03,4.03-4.03-1.64-4.03-4.03,1.64-4.03,4.03-4.03Zm0,12.41c2.38,0,4.03,1.56,4.03,3.95s-1.64,4.03-4.03,4.03-4.03-1.56-4.03-4.03,1.64-3.95,4.03-3.95Zm12.99-41.67l18.58,9.78h-24.25v-3.78h7.64l-1.97-6Zm-5.01,22.77v-4.69h4.77v4.69h-4.77Zm0,12.99v-4.69h4.77v4.69h-4.77Zm0,12.33v-4.77h4.77v4.77h-4.77Zm8.88-25.32v-4.69h4.85v4.69h-4.85Zm0,12.99v-4.69h4.85v4.69h-4.85Zm0,12.33v-4.77h4.85v4.77h-4.85Zm8.79-25.32v-4.69h4.77v4.69h-4.77Zm0,12.99v-4.69h4.77v4.69h-4.77Zm0,12.33v-4.77h4.77v4.77h-4.77Zm12.74-43.73c2.38,0,3.95,1.56,3.95,4.03s-1.56,3.95-3.95,3.95-4.03-1.56-4.03-3.95,1.56-4.03,4.03-4.03Zm0,11.92c2.38,0,3.95,1.56,3.95,4.03s-1.56,3.95-3.95,3.95-4.03-1.56-4.03-3.95,1.56-4.03,4.03-4.03Zm0,12.99c2.38,0,3.95,1.64,3.95,4.03s-1.56,4.03-3.95,4.03-4.03-1.64-4.03-4.03,1.56-4.03,4.03-4.03Zm0,12.41c2.38,0,3.95,1.56,3.95,3.95s-1.56,4.03-3.95,4.03-4.03-1.56-4.03-4.03,1.56-3.95,4.03-3.95Z"/></svg>