<?xml version="1.0" encoding="UTF-8"?><svg id="_00" xmlns="http://www.w3.org/2000/svg" viewBox="0 0 100 100"><path d="m84.11,48.5h12.66v4.93H3.14v-4.93h11.92V16.28h69.05v32.22ZM13.42,76.37H5.12v-4.52h8.3v-8.38h4.85v8.38h7.97v4.52h-7.97v8.3h-4.85v-8.3Zm6.58-55.48v27.62h59.18v-27.62H19.99Zm7.4,7.23c2.46,0,4.03,1.64,4.03,4.03s-1.56,4.03-4.03,4.03-3.95-1.64-3.95-4.03,1.56-4.03,3.95-4.03Zm.08,11.34c2.38,0,4.03,1.56,4.03,3.95s-1.64,4.03-4.03,4.03-4.03-1.56-4.03-4.03,1.64-3.95,4.03-3.95Zm15.29,47.84c-7.64,0-13.81-6.16-13.81-13.81v-.58c.33-7.32,6.41-13.23,13.81-13.23,4.27,0,8.05,1.97,10.6,5.01,2.55-3.04,6.33-5.01,10.52-5.01,3.45,0,6.66,1.32,9.04,3.37,2.47-2.05,5.59-3.37,9.04-3.37,7.64,0,13.81,6.17,13.81,13.81s-6.16,13.81-13.81,13.81c-3.45,0-6.58-1.31-9.04-3.37-2.38,2.05-5.59,3.37-9.04,3.37-4.19,0-8.06-1.89-10.52-4.93-2.55,3.04-6.33,4.93-10.6,4.93Zm0-21.21c3.86,0,6.99,2.88,7.4,6.58.08-1.81.58-3.54,1.32-5.1-1.89-2.79-5.1-4.6-8.71-4.6-5.84,0-10.52,4.69-10.52,10.52s4.69,10.52,10.52,10.52c3.62,0,6.82-1.81,8.71-4.6-.74-1.56-1.23-3.37-1.32-5.1-.41,3.7-3.53,6.66-7.4,6.66-4.11,0-7.48-3.37-7.48-7.48s3.37-7.4,7.48-7.4Zm-2.63-20.14h-4.77v-4.77h4.77v4.77Zm6.08-16.19l-1.97-5.92,19.56,9.7h-28.11v-3.78h10.52Zm1.97,16.19h-4.85v-4.77h4.85v4.77Zm7.89,0h-4.77v-4.77h4.77v4.77Zm7.81,20.14c2.14,0,3.95.82,5.34,2.14.41-.99.9-1.89,1.48-2.71-1.81-1.56-4.19-2.55-6.82-2.55-5.75,0-10.52,4.69-10.52,10.52s4.77,10.52,10.52,10.52c2.63,0,5.01-.9,6.82-2.55-.58-.82-1.07-1.73-1.48-2.71-1.4,1.32-3.21,2.22-5.34,2.22-4.11,0-7.4-3.37-7.4-7.48s3.29-7.4,7.4-7.4Zm0-20.14h-4.85v-4.77h4.85v4.77Zm7.56-17.84c2.38,0,4.03,1.64,4.03,4.03s-1.64,4.03-4.03,4.03-4.03-1.64-4.03-4.03,1.64-4.03,4.03-4.03Zm0,11.34c2.46,0,4.03,1.56,4.03,3.95s-1.56,4.03-4.03,4.03-3.95-1.56-3.95-4.03,1.56-3.95,3.95-3.95Zm10.52,44.55c5.84,0,10.52-4.69,10.52-10.52s-4.69-10.52-10.52-10.52-10.52,4.69-10.52,10.52,4.69,10.52,10.52,10.52Zm0-17.92c4.11,0,7.48,3.29,7.48,7.4s-3.37,7.48-7.48,7.48-7.4-3.37-7.4-7.48,3.29-7.4,7.4-7.4Z"/></svg>