<?xml version="1.0" encoding="UTF-8"?><svg id="_00" xmlns="http://www.w3.org/2000/svg" viewBox="0 0 100 100"><path d="m50,14.63c20.06,0,36.33,16.28,36.33,36.33s-16.28,36.41-36.33,36.41S13.58,71.1,13.58,50.96,29.86,14.63,50,14.63Zm0,16.36c-8.47,0-14.06,5.43-14.06,13.32s5.01,12.25,11.84,12.25c5.01,0,7.64-2.63,9.37-5.75l.41.16c-1.97,8.47-7.23,13.73-16.36,20.14h8.55c6.58-4.27,14.3-13.32,14.3-24.74,0-9.45-5.26-15.37-14.06-15.37Zm-7.56,13.07v-.58c0-4.69,2.79-7.4,7.64-7.4s7.48,2.71,7.48,7.4v.58c0,4.77-2.71,7.48-7.48,7.48s-7.64-2.71-7.64-7.48Z"/></svg>