<?xml version="1.0" encoding="UTF-8"?><svg id="_00" xmlns="http://www.w3.org/2000/svg" viewBox="0 0 100 100"><path d="m23.45,53.76c9.04,0,16.44,7.23,16.69,16.28v.41c0,9.21-7.48,16.6-16.69,16.6s-16.69-7.4-16.69-16.6,7.48-16.69,16.69-16.69Zm-.74-8.55l-13.15-13.15,3.45-3.53,4.36,4.36,3.12,3.62.17-.08-.41-6.99v-4.44c0-5.34,3.21-8.55,8.8-8.55h9.78v4.69h-13.65v8.3l-.41,6.99.25.08,3.04-3.62,4.36-4.36,3.53,3.53-13.23,13.15Zm-8.47,24.33c.16-2.06,1.07-3.86,2.38-5.26l-2.79-2.55c-1.81,2.05-2.96,4.6-3.29,7.4l3.7.41Zm-2.63,6.25c2.05,4.52,6.58,7.64,11.84,7.64,2.71,0,5.18-.82,7.23-2.3l-2.05-3.04c-1.48,1.07-3.29,1.64-5.18,1.64-3.78,0-6.99-2.3-8.47-5.51l-3.37,1.56Zm24.74-5.34c0-7.15-5.75-12.91-12.91-12.91-1.15,0-2.22.16-3.29.41l.9,3.62c.74-.25,1.56-.33,2.38-.33,5.1,0,9.21,4.11,9.21,9.21h3.7Zm2.96-25.56c-4.69.41-8.22,2.88-9.95,6.66l-3.62-1.97c2.3-5.01,6.99-8.22,13.23-8.8l.33,4.11Zm13.56,11.92c-6.66-2.14-10.77-7.89-10.77-15.78h4.11c0,5.75,2.88,10.03,7.64,11.75l-.99,4.03Zm5.26-28.11c-5.34,0-9.86,3.12-11.26,8.14l-3.86-1.73c2.05-6.49,7.64-10.11,14.88-10.52l.25,4.11Zm-1.73,32.47c-1.23,6.82-5.92,11.59-12.82,12.74l-.58-4.03c4.93-.99,8.38-4.44,9.37-9.37l4.03.66Zm2.3-7.32c4.44,0,8.06-1.73,10.19-4.69l3.45,2.38c-2.88,4.03-7.73,6.41-13.65,6.41v-4.11Zm18.41,3.04l13.15,13.15-3.53,3.53-4.28-4.36-3.12-3.62-.16.08.41,6.99v4.44c0,5.34-3.21,8.55-8.79,8.55h-11.01v-4.69h14.88v-8.3l.41-6.99-.25-.08-3.04,3.62-4.36,4.36-3.53-3.53,13.23-13.15Zm0-42.09c9.21,0,16.6,7.48,16.6,16.69s-7.4,16.69-16.6,16.69-16.69-7.48-16.69-16.69,7.48-16.69,16.69-16.69Zm-9.21,15.86c.16-2.06,1.07-3.86,2.38-5.34l-2.79-2.47c-1.81,1.97-2.96,4.52-3.29,7.4l3.7.41Zm-2.63,6.17c2.06,4.52,6.58,7.64,11.84,7.64,2.71,0,5.18-.82,7.23-2.22l-2.05-3.04c-1.48.99-3.29,1.56-5.18,1.56-3.78,0-6.99-2.22-8.47-5.42l-3.37,1.48Zm24.74-5.26c0-7.15-5.75-12.99-12.9-12.99-1.15,0-2.22.16-3.29.41l.9,3.62c.74-.16,1.56-.33,2.38-.33,5.1,0,9.21,4.19,9.21,9.29h3.7Z"/></svg>