<?xml version="1.0" encoding="UTF-8"?><svg id="_00" xmlns="http://www.w3.org/2000/svg" viewBox="0 0 100 100"><path d="m91.01,78.09c0,4.52-2.79,7.32-7.56,7.32H16.46c-4.69,0-7.48-2.79-7.48-7.32V23.76c0-4.6,2.79-7.4,7.48-7.4h66.99c4.77,0,7.56,2.79,7.56,7.4v54.33Zm-5.01,2.71V30.91H13.99v49.9h72.01ZM19.01,27.46c1.81,0,3.29-1.48,3.29-3.37s-1.48-3.29-3.29-3.29-3.37,1.48-3.37,3.29,1.48,3.37,3.37,3.37Zm18.58,39.87l-16.19-8.88v-4.69l16.19-9.04v4.85l-11.34,6.49,11.34,6.49v4.77Zm8.06,4.6h-4.69l12.49-32.14h4.69l-12.49,32.14Zm16.19-4.6v-4.77l11.34-6.41-11.34-6.49v-4.93l16.19,9.04v4.69l-16.19,8.88Z"/></svg>