<?xml version="1.0" encoding="UTF-8"?><svg id="_00" xmlns="http://www.w3.org/2000/svg" viewBox="0 0 100 100"><path d="m55.59,80.97v4.6H8.98V16.44h69.05v31.56h-4.93v-26.96H13.91v59.92h41.67ZM21.47,28.28c2.47,0,4.03,1.64,4.03,4.03s-1.56,4.03-4.03,4.03-3.95-1.64-3.95-4.03,1.56-4.03,3.95-4.03Zm.08,12.17c2.38,0,4.03,1.56,4.03,3.95s-1.64,4.03-4.03,4.03-4.03-1.56-4.03-4.03,1.64-3.95,4.03-3.95Zm0,12.08c2.38,0,4.03,1.56,4.03,3.95s-1.64,4.03-4.03,4.03-4.03-1.56-4.03-4.03,1.64-3.95,4.03-3.95Zm0,12.08c2.38,0,4.03,1.56,4.03,3.95s-1.64,4.03-4.03,4.03-4.03-1.56-4.03-4.03,1.64-3.95,4.03-3.95Zm12.66-17.67h-4.77v-4.77h4.77v4.77Zm0,12.08h-4.77v-4.77h4.77v4.77Zm0,12h-4.77v-4.77h4.77v4.77Zm6.08-41.1l-1.97-5.92,19.56,9.7h-28.11v-3.78h10.52Zm1.97,17.02h-4.85v-4.77h4.85v4.77Zm0,12.08h-4.85v-4.77h4.85v4.77Zm0,12h-4.85v-4.77h4.85v4.77Zm7.89-24.08h-4.77v-4.77h4.77v4.77Zm0,12.08h-4.77v-4.77h4.77v4.77Zm0,12h-4.77v-4.77h4.77v4.77Zm7.81-24.08h-4.85v-4.77h4.85v4.77Zm0,12.08h-4.85v-4.77h4.85v4.77Zm5.42,26.39l-6.25-16.03h5.42l3.04,9.54,9.04-24.91h5.1l-11.59,31.4h-4.77Zm2.14-57.13c2.38,0,4.03,1.64,4.03,4.03s-1.64,4.03-4.03,4.03-4.03-1.64-4.03-4.03,1.64-4.03,4.03-4.03Zm0,12.17c2.47,0,4.03,1.56,4.03,3.95s-1.56,4.03-4.03,4.03-3.95-1.56-3.95-4.03,1.56-3.95,3.95-3.95Zm0,12.08c2.47,0,4.03,1.56,4.03,3.95s-1.56,4.03-4.03,4.03-3.95-1.56-3.95-4.03,1.56-3.95,3.95-3.95Zm11.34,17.43l5.42-7.15h7.4v18.74h4.77v3.86h-15.7v-3.86h6.08v-15.21h-.33l-4.52,6.08-3.12-2.47Z"/></svg>