<?xml version="1.0" encoding="UTF-8"?><svg id="_00" xmlns="http://www.w3.org/2000/svg" viewBox="0 0 100 100"><path d="m84.19,78.17c0,4.52-2.71,7.31-7.56,7.31H22.71c-4.69,0-7.48-2.79-7.48-7.31V23.84c0-4.6,2.79-7.4,7.48-7.4h53.92c4.85,0,7.56,2.79,7.56,7.4v54.33Zm-29.34-37.32h13.4v-8.96H31.83v8.96h13.32v5.84c-10.85.49-18.99,2.63-18.99,5.18s8.14,4.77,18.99,5.26v18.74h9.7v-18.74c10.85-.49,18.99-2.63,18.99-5.26s-8.14-4.69-18.99-5.18v-5.84Zm-26.47,10.6c0-2.06,7.15-3.7,16.77-4.11v6.49c.66.08,2.47.17,4.93.17,2.96,0,4.44-.08,4.77-.17v-6.49c9.53.41,16.69,2.05,16.69,4.11,0,3.37-16.85,4.19-21.54,4.19s-21.62-.74-21.62-4.19Z"/></svg>