<?xml version="1.0" encoding="UTF-8"?><svg id="_00" xmlns="http://www.w3.org/2000/svg" viewBox="0 0 100 100"><path d="m50.16,14.71c-20.06,0-36.33,16.19-36.33,36.25s16.28,36.25,36.33,36.25,36.25-16.19,36.25-36.25S70.13,14.71,50.16,14.71Zm19.81,22.69l5.26-5.26c3.21,4.27,5.34,9.37,6.08,14.96h-11.34v-9.7Zm-20.88,25.56c2.47,0,5.67.57,6,3.45h-8.88v-3.21s1.32-.25,2.88-.25Zm-2.88-14.63v-4.52h6.41v4.52c0,2.3-1.31,3.86-3.21,3.86s-3.21-1.56-3.21-3.86Zm9.87,4.93v-6.41c0-4.11-1.56-7.32-7.15-7.32-3.86,0-6.16,3.54-6.16,7.56,0,2.71.57,5.59,1.56,6.91-5.34,2.88-6.33,7.73-6.74,13.07h-2.14v-32.14h29.51v32.14h-2.96l.08-5.51c0-5.84-3.86-7.73-6-8.3Zm-25.65,11.84l-5.1,5.1c-3.21-4.19-5.42-9.29-6.25-14.79h11.34v9.7Zm0-18h-11.43c.74-5.59,2.88-10.69,6.08-14.96l5.34,5.34v9.62Zm15.54-27.21v10.44h-10.85l-4.11-4.19c4.19-3.29,9.37-5.51,14.96-6.25Zm0,62.14c-5.42-.74-10.44-2.88-14.63-6l4.36-4.36h10.28v10.36Zm8.38,0v-10.36h10.36l4.27,4.36c-4.19,3.12-9.21,5.26-14.63,6Zm10.85-51.7h-10.85v-10.44c5.59.74,10.77,2.96,15.04,6.25l-4.19,4.19Zm9.78,39.78l-5.01-5.01v-9.7h11.26c-.82,5.51-3.04,10.52-6.25,14.71Z"/></svg>