<?xml version="1.0" encoding="UTF-8"?><svg id="_00" xmlns="http://www.w3.org/2000/svg" viewBox="0 0 100 100"><path d="m56.98,79.82H5.86l.99-9.45c.49-4.36,5.75-7.15,8.22-7.15.9,3.7,4.93,6.82,8.96,6.82,3.78,0,7.07-3.04,8.3-6.82,2.14,0,8.47,2.14,8.96,7.64l.33,4.36h5.26v-14.14l.41-7.07-.25-.08-3.04,3.7-2.05,2.05-3.54-3.53,10.93-10.93,10.85,10.93-3.54,3.53-2.05-2.05-3.04-3.7-.25.08.49,7.07v14.14h5.18v4.6Zm-37.57-3.04c-.57-2.38-1.89-4.69-4.52-4.69-3.04,0-4.03,2.3-4.68,4.69h9.21Zm4.28-10.44c-2.71,0-5.92-3.04-7.4-8.88-2.63,0-3.04-3.53-3.04-7.4,0-5.67,4.77-7.64,8.79-7.73h2.88c4.69,0,8.47,1.89,8.47,7.15,0,3.86-.41,7.73-2.63,7.73-.82,5.43-3.86,9.12-7.07,9.12Zm-4.44-10.36c.25,3.95,2.14,7.07,4.44,7.07s4.11-3.04,4.52-7.15l-.99-6.9c-1.81,2.22-4.69,3.12-8.06,3.12l.08,3.86ZM50,14.8c7.64,0,13.81,6.16,13.81,13.81s-6.17,13.73-13.81,13.73-13.81-6.17-13.81-13.73,6.16-13.81,13.81-13.81Zm-7.4,12.99c.17-1.64.9-3.21,1.97-4.36l-2.22-2.06c-1.56,1.64-2.55,3.78-2.79,6.08l3.04.33Zm-2.14,5.18c1.64,3.62,5.26,6.16,9.54,6.16,2.3,0,4.36-.74,6.08-1.97l-1.73-2.55c-1.23.9-2.71,1.4-4.36,1.4-2.96,0-5.59-1.73-6.74-4.36l-2.79,1.32Zm20.06-4.44c0-5.75-4.77-10.44-10.52-10.44-.82,0-1.64.08-2.46.25l.74,2.96c.58-.08,1.15-.16,1.73-.16,4.11,0,7.4,3.29,7.48,7.4h3.04Zm6.74,58.69l-3.53-5.42-3.54,5.42-4.11-2.71,4.68-7.23-4.6-6.99,4.11-2.71,3.45,5.26,3.37-5.26,4.11,2.71-4.52,6.99,4.69,7.23-4.11,2.71Zm9.12-7.4h-5.92v-4.6h5.92v4.6Zm-5.75-54.09c.49-3.29,2.05-6,4.27-7.89l2.22,2.47c-1.73,1.48-2.88,3.53-3.29,6l-3.21-.58Zm4.27,12.91c-2.38-2.05-3.78-4.85-4.27-7.89l3.21-.66c.41,2.38,1.48,4.44,3.29,6l-2.22,2.55Zm11.76,22.03h-4.93l.41-6.66-.25-.08-3.04,3.7-2.06,2.05-3.53-3.53,10.93-10.93,10.93,10.93-3.53,3.53-2.05-2.05-3.12-3.7-.17.08.41,6.66Zm0,19.15h-7.4v-4.6h2.47v-3.45h4.93v8.06Zm.57-61.24c-1.07-.33-2.22-.49-3.37-.49-1.23,0-2.38.16-3.37.49l-1.15-3.12c1.4-.41,2.88-.66,4.52-.66s3.04.25,4.44.66l-1.07,3.12Zm1.07,22.36c-1.4.41-2.88.66-4.52.66s-3.04-.25-4.44-.66l1.15-3.12c.99.33,2.14.49,3.37.49,1.15,0,2.3-.16,3.37-.49l1.07,3.12Zm-6.58,28.19v-5.59h4.93v5.59h-4.93Zm12.08-42.83c-.41-2.47-1.56-4.52-3.21-6l2.14-2.47c2.3,1.89,3.78,4.6,4.27,7.89l-3.21.58Zm-3.21,9.78c1.73-1.56,2.88-3.62,3.21-6l3.21.66c-.49,3.04-1.89,5.84-4.27,7.89l-2.14-2.55Z"/></svg>