<?xml version="1.0" encoding="UTF-8"?><svg id="_00" xmlns="http://www.w3.org/2000/svg" viewBox="0 0 100 100"><path d="m50,14.63c20.06,0,36.33,16.28,36.33,36.33s-16.28,36.41-36.33,36.41S13.58,71.1,13.58,50.97,29.86,14.63,50,14.63Zm0,67.9c17.34,0,31.48-14.14,31.48-31.56s-14.14-31.48-31.48-31.48-31.48,14.14-31.48,31.48,14.06,31.56,31.48,31.56Zm0-58.11c14.63,0,26.55,11.92,26.55,26.55s-11.92,26.63-26.55,26.63-26.63-11.92-26.63-26.63,11.92-26.55,26.63-26.55Zm2.3,43.65v5.75h3.95v-6.74c3.12-1.31,5.26-3.7,6.49-6.49l-3.62-2.47c-1.64,3.53-4.52,5.75-8.88,5.75-6.17,0-9.45-4.19-9.45-10.03v-5.59c0-5.75,3.37-9.95,9.29-9.95,4.11,0,6.9,1.97,8.06,5.34l4.11-2.14c-1.15-2.79-3.12-5.01-6-6.33v-6.82h-3.95v5.75c-.66-.08-1.4-.16-2.22-.16-.74,0-1.48.08-2.14.16v-5.75h-3.95v6.74c-5.51,2.38-8.71,8.14-8.71,15.95s3.12,13.65,8.71,16.03v6.74h3.95v-5.75c.74.08,1.48.16,2.22.16s1.48-.08,2.14-.16Z"/></svg>