<?xml version="1.0" encoding="UTF-8"?><svg id="_00" xmlns="http://www.w3.org/2000/svg" viewBox="0 0 100 100"><path d="m50,14.63c20.06,0,36.33,16.28,36.33,36.33s-16.28,36.41-36.33,36.41S13.58,71.1,13.58,50.96,29.86,14.63,50,14.63Zm0,67.9c17.34,0,31.48-14.14,31.48-31.56s-14.14-31.48-31.48-31.48-31.48,14.14-31.48,31.48,14.06,31.56,31.48,31.56Zm0-58.11c14.63,0,26.55,11.92,26.55,26.55s-11.92,26.63-26.55,26.63-26.63-11.92-26.63-26.63,11.92-26.55,26.63-26.55Zm-12,45.29h24v-4.52h-9.29v-7.89h9.29v-4.52h-6.41l9.21-18.99h-6l-8.55,18.99h-.33l-8.55-18.99h-6.08l9.21,18.99h-6.49v4.52h9.29v7.89h-9.29v4.52Z"/></svg>