<?xml version="1.0" encoding="UTF-8"?><svg id="_00" xmlns="http://www.w3.org/2000/svg" viewBox="0 0 100 100"><path d="m47.04,22.11v6h9.54v-5.75h14.06v5.67h8.96v-5.67h14.06v14.8h-4.85v2.96h-3.29v-2.96h-5.92v-5.84h-8.96v5.84h-14.06v-5.75h-9.62v5.51h-5.42v3.21h-3.29v-3.21h-5.34v-5.51h-10.19v6.74H6.68v-16.77h16.03v6.74h10.19v-6h14.14Zm48.74,29.43l-64.44,3.53v-3.45l6.9-.41v-5.51h3.29v5.34l43.98-2.38v-2.96h3.29v2.79l7.07-.41-.08,3.45Zm-55.81,17.59c2.38,0,3.95,1.56,3.95,3.95s-1.56,4.03-3.95,4.03-4.03-1.56-4.03-4.03,1.56-3.95,4.03-3.95Zm-1.73-11.18h3.29v6h-3.29v-6Zm15.95.08l26.22,12.99h-6.58l-26.88.08v-3.29h10.69l-3.45-9.78Zm-6.82,17.26h33.13v3.29h-10.27l3.37,10.19-26.22-13.48Zm39.7-6.17c2.38,0,4.03,1.56,4.03,3.95s-1.64,4.03-4.03,4.03-4.03-1.56-4.03-4.03,1.64-3.95,4.03-3.95Zm-1.56-11.18h3.29v6h-3.29v-6Z"/></svg>