<?xml version="1.0" encoding="UTF-8"?><svg id="_00" xmlns="http://www.w3.org/2000/svg" viewBox="0 0 100 100"><path d="m13.99,53.02v-1.97c0-21.62,14.38-36,36-36h1.97v33.95h34.03v2.05c0,21.62-14.38,36-36,36h-1.97v-34.03H13.99Zm23.59,13.89l1.81,17.75-17.75,1.81-.49-4.69,9.86-.99c-6.82-4.93-11.51-12.49-13.15-21.78l4.6-.74c1.48,8.06,5.51,14.47,11.43,18.74l-.99-9.7,4.68-.41Zm-8.05-18.33c.25-4.27,1.07-8.55,2.47-12.49-2.71-1.15-5.34-2.63-7.64-4.44-3.29,4.6-5.26,10.36-5.67,16.93h10.85Zm4.03-16.44c2.05-4.52,5.01-8.55,8.79-11.75-6.33,1.31-11.67,4.19-15.62,8.38,2.05,1.4,4.36,2.47,6.82,3.37Zm13.97,16.44v-8.96c-3.86-.16-7.64-.82-11.26-1.97-.99,3.53-1.56,7.23-1.81,10.93h13.07Zm0-28.52c-4.36,3.29-7.64,7.97-9.78,13.4,3.12.82,6.41,1.31,9.78,1.48v-14.88Zm4.93,33.37v9.04c3.86.16,7.64.82,11.26,1.89.99-3.45,1.56-7.15,1.81-10.93h-13.07Zm0,28.61c4.36-3.29,7.64-8.06,9.78-13.4-3.12-.82-6.41-1.32-9.78-1.48v14.88Zm20.8-8.8c-2.06-1.31-4.36-2.47-6.82-3.37-2.06,4.52-5.01,8.63-8.8,11.84,6.33-1.31,11.67-4.19,15.62-8.47Zm-10.6-38.06l-1.64-17.75,17.84-1.64.41,4.77-9.86.82c6.74,5.01,11.34,12.58,12.82,21.95l-4.52.66c-1.4-8.06-5.34-14.55-11.26-18.91l.9,9.7-4.69.41Zm7.81,18.25c-.25,4.36-1.07,8.55-2.47,12.58,2.71,1.15,5.34,2.63,7.64,4.44,3.29-4.6,5.26-10.36,5.67-17.02h-10.85Z"/></svg>