<?xml version="1.0" encoding="UTF-8"?><svg id="_00" xmlns="http://www.w3.org/2000/svg" viewBox="0 0 100 100"><path d="m29.94,77.19l-4.03.08v1.81H8.49v-22.52h17.43v2.47h1.89c2.71-2.22,6.49-3.29,9.54-3.29,5.75,0,10.85,2.55,14.38,6.99l11.92.99c2.38.16,4.44.9,5.84,1.89,3.62-1.48,9.45-3.7,13.4-3.7,5.67,0,10.11,2.96,10.11,6.16,0,.49-.08,2.47-2.38,3.53l-32.3,14.38c-1.89.9-4.52,1.48-7.07,1.48-1.89,0-3.7-.25-5.1-.99-5.75-2.96-14.63-8.38-16.19-9.29Zm27.04.08l-4.6,2.88-2.05-3.04,1.73-.99-13.4-3.21,1.15-3.86,20.96,4.6c.66.16,1.32.25,1.89.25,2.14,0,3.78-.9,4.03-2.63.16-1.64-1.32-3.21-3.37-3.37l-9.95-.58c-3.29-.16-4.44-1.07-5.92-2.55-3.7-3.86-6.25-4.44-10.28-4.36-5.75.16-7.23,2.88-10.44,2.88h-.82v9.45l1.73-.08c2.38,0,3.7.16,5.34,1.4.08.08,7.81,4.85,13.97,7.97,1.73.9,4.03,1.4,6.17,1.4,1.4,0,2.79-.25,3.86-.74,10.19-5.1,21.62-9.86,32.06-14.39-.82-1.97-2.63-2.96-5.26-2.96-.74,0-1.56.08-2.38.25-3.37.49-6.33,1.89-9.54,2.96.16.49.25.99.25,1.56,0,6.08-4.69,7.81-9.54,7.81-1.81,0-3.62-.25-5.18-.58l-.41-.08Zm-4.11-62.39c7.56,0,13.73,6.17,13.73,13.73,0,6.82-4.93,12.49-11.43,13.65v.9l-.41,6.99.25.08,3.04-3.62,1.89-1.89,3.53,3.45-10.77,10.77-10.77-10.77,3.53-3.45,1.89,1.89,3.04,3.62q.16,0,.25-.08l-.41-6.99v-.99c-6.41-1.23-11.18-6.82-11.18-13.56,0-7.56,6.16-13.73,13.81-13.73Zm0,24.25c5.75,0,10.52-4.69,10.52-10.52s-4.77-10.44-10.52-10.44-10.52,4.69-10.52,10.44,4.69,10.52,10.52,10.52Zm0-17.92c4.11,0,7.4,3.37,7.4,7.4s-3.29,7.48-7.4,7.48-7.48-3.37-7.48-7.48,3.37-7.4,7.48-7.4Zm26.8,9.86v-.58l.41-6.99q-.08-.08-.17-.08l-3.12,3.62-1.89,1.97-3.53-3.53,10.77-10.77,10.77,10.77-3.53,3.53-1.89-1.97-3.04-3.62q-.16,0-.25.08l.41,6.99v.58c6.49,1.15,11.34,6.74,11.34,13.56,0,7.64-6.16,13.81-13.81,13.81s-13.81-6.17-13.81-13.81c0-6.82,4.85-12.41,11.34-13.56Zm-4.85,12.08c.25-.9.58-1.73.99-2.47l-2.22-2.22c-.99,1.31-1.64,2.96-1.89,4.69h3.12Zm1.15,5.59c-.49-.74-.82-1.56-1.07-2.38h-3.12c.25,1.64.9,3.29,1.97,4.6l2.22-2.22Zm2.14-10.36c.74-.49,1.56-.82,2.46-1.07v-3.12c-1.73.25-3.37.99-4.77,1.97l2.3,2.22Zm2.46,13.48c-.82-.16-1.64-.49-2.38-.9l-2.22,2.22c1.32.99,2.88,1.64,4.6,1.89v-3.21Zm7.89-15.7c-1.32-.99-2.96-1.73-4.68-1.97v3.12c.9.25,1.73.58,2.46,1.07l2.22-2.22Zm-4.68,18.91c1.64-.25,3.21-.9,4.52-1.89l-2.22-2.22c-.66.41-1.48.74-2.3.9v3.21Zm6.82-4.11c.99-1.32,1.64-2.96,1.97-4.6h-3.21c-.17.82-.49,1.64-.99,2.38l2.22,2.22Zm1.97-7.81c-.25-1.73-.9-3.37-1.89-4.69l-2.22,2.22c.49.74.82,1.56.99,2.47h3.12Z"/></svg>