<?xml version="1.0" encoding="UTF-8"?><svg id="_00" xmlns="http://www.w3.org/2000/svg" viewBox="0 0 100 100"><path d="m96.77,48.5v4.93h-6c-.08,3.86-2.63,6.58-6.49,6.82l-3.04,14.55c.9.9,1.56,2.22,1.56,3.62,0,2.88-2.38,5.18-5.18,5.18s-5.18-2.3-5.18-5.18c0-.74.16-1.56.49-2.22l-5.42-8.22c-.74.58-1.73.82-2.79.82-2.38,0-4.52-1.73-5.01-4.03l-10.03.41c-.25,2.05-1.15,3.62-2.55,4.69l5.59,7.4c.49-.16,1.07-.25,1.64-.25,2.88,0,5.18,2.3,5.18,5.18s-2.3,5.18-5.18,5.18-5.18-2.3-5.18-5.18c0-1.23.49-2.3,1.15-3.21l-5.92-7.81c-.58.08-1.23.17-1.89.17-.82,0-1.56-.08-2.22-.33l-6.41,8.88c.08.25.08.58.08.9,0,2.3-1.89,4.19-4.19,4.19s-4.19-1.89-4.19-4.19c0-.74.25-1.4.49-1.97l-6-17.84c-.58,0-1.07-.08-1.64-.16l-3.04,3.95c1.56,1.15,2.47,3.04,2.55,5.42v.33c0,4.27-2.88,7.15-7.15,7.15s-7.15-2.88-7.15-7.15,2.88-7.15,7.15-7.15c.66,0,1.32,0,1.89.16l3.29-4.27c-.9-.9-1.4-2.14-1.4-3.45,0-.9.25-1.73.58-2.38H3.14v-4.93h93.62ZM10.79,73.9c2.06,0,3.37-1.4,3.37-3.37s-1.32-3.37-3.37-3.37-3.37,1.32-3.37,3.37,1.31,3.37,3.37,3.37Zm3.78-40.69h.41l3.04-18.41h5.1l2.96,18.41h.41l1.89-18.41h4.44l-2.88,22.36h-6.66l-2.63-16.44h-.41l-2.63,16.44h-6.74l-2.88-22.36h4.68l1.89,18.41Zm20.88,29.76l-11.18-4.52c-.41.58-.9,1.15-1.48,1.56l5.67,16.85c.41-.16.9-.25,1.31-.25.9,0,1.73.25,2.38.74l5.42-7.73c-1.4-1.23-2.22-3.12-2.22-5.42,0-.41,0-.82.08-1.23Zm-10.19-7.32l11.1,4.6c1.23-2.06,3.37-3.21,6.17-3.21l.74-3.62h-13.64l-4.36,2.22Zm19.15-22.44h.41l3.04-18.41h5.1l2.96,18.41h.41l1.97-18.41h4.36l-2.79,22.36h-6.74l-2.63-16.44h-.41l-2.63,16.44h-6.66l-2.88-22.36h4.6l1.89,18.41Zm-1.89,34.36c2.06,0,3.37-1.4,3.37-3.37s-1.31-3.37-3.37-3.37-3.37,1.32-3.37,3.37,1.4,3.37,3.37,3.37Zm17.34-5.59c.17-.49.33-.9.66-1.32l-7.07-7.23h-7.15l-.74,4.11c2.05.82,3.45,2.55,3.95,4.85l10.36-.41Zm-2.38-8.55l5.34,5.43c.33-.17.74-.25,1.15-.33l.25-5.1h-6.74Zm19.32,2.14c-.16-.66-.33-1.4-.33-2.14h-9.29l-.33,5.51c.41.16.82.41,1.15.66l8.79-4.03Zm-2.71-22.36h.41l3.04-18.41h5.01l3.04,18.41h.41l1.89-18.41h4.44l-2.88,22.36h-6.66l-2.63-16.44h-.41l-2.63,16.44h-6.74l-2.88-22.36h4.69l1.89,18.41Zm.82,40.77c.74-.41,1.73-.74,2.71-.74.33,0,.66.08.99.08l2.71-13.32c-1.31-.41-2.38-1.07-3.21-2.05l-8.47,3.95c.16.58.25,1.15.25,1.73,0,.82-.16,1.56-.49,2.22l5.51,8.14Zm5.34-20.55c.16,1.81,1.48,3.04,3.37,3.04s3.29-1.23,3.37-3.04h-6.74Z"/></svg>