<?xml version="1.0" encoding="UTF-8"?><svg id="_00" xmlns="http://www.w3.org/2000/svg" viewBox="0 0 100 100"><path d="m91.01,78.17c0,4.52-2.79,7.32-7.56,7.32H16.54c-4.68,0-7.48-2.79-7.48-7.32V23.84c0-4.6,2.79-7.4,7.48-7.4h66.91c4.77,0,7.56,2.79,7.56,7.4v54.33ZM13.99,40.2h16.19v-9.21H13.99v9.21Zm0,13.56h16.19v-8.96H13.99v8.96Zm0,13.73h16.19v-9.04H13.99v9.04Zm0,13.4h16.19v-8.88H13.99v8.88Zm21.21-40.69h50.8v-9.21h-50.8v9.21Zm0,13.56h50.8v-8.96h-50.8v8.96Zm0,13.73h50.8v-9.04h-50.8v9.04Zm50.8,13.4v-8.88h-50.8v8.88h50.8Z"/></svg>