<?xml version="1.0" encoding="UTF-8"?><svg id="_00" xmlns="http://www.w3.org/2000/svg" viewBox="0 0 100 100"><path d="m50,14.63c19.97,0,36.25,16.19,36.25,36.25s-16.28,36.17-36.25,36.17S13.75,70.86,13.75,50.88,30.02,14.63,50,14.63Zm-31.89,36.33c0,1.56,1.23,2.88,2.88,2.88s2.79-1.32,2.79-2.88-1.23-2.88-2.79-2.88c-1.64,0-2.88,1.31-2.88,2.88Zm6.74-17.34c-.99,0-1.97.49-2.47,1.4-.82,1.4-.33,3.12,1.07,3.86.41.25.9.41,1.4.41.99,0,1.97-.49,2.47-1.4.82-1.4.33-3.12-1.07-3.95-.41-.25-.9-.33-1.4-.33Zm-2.47,33.29c.49.9,1.48,1.4,2.47,1.4.49,0,.99-.16,1.4-.41,1.4-.74,1.89-2.55,1.07-3.86-.49-.9-1.48-1.48-2.47-1.48-.49,0-.99.16-1.4.41-1.4.82-1.89,2.55-1.07,3.95Zm13.07-43.98c-.49,0-.99.16-1.4.41-1.4.82-1.89,2.55-1.07,3.95.58.9,1.48,1.4,2.47,1.4.49,0,.99-.16,1.48-.41,1.31-.74,1.81-2.55.99-3.86-.49-.9-1.48-1.48-2.47-1.48Zm-1.4,55.65c.41.25.9.33,1.4.33.99,0,1.97-.49,2.47-1.4.82-1.4.33-3.12-.99-3.95-.49-.25-.99-.33-1.48-.33-.99,0-1.89.49-2.47,1.4-.82,1.4-.33,3.12,1.07,3.95Zm18.08-4.11v-5.26c6.58-.74,10.27-4.6,10.27-10.27,0-4.85-2.55-8.55-9.21-9.7l-1.32-.25v-10.52c2.79.41,4.85,1.64,6.41,3.7l3.62-3.29c-2.3-2.88-5.43-4.69-9.78-5.1v-5.18h-4.11v5.18c-6.33.58-10.03,4.11-10.03,9.7,0,4.69,2.46,8.55,9.12,9.7l1.15.16v11.43c-3.12-.41-5.67-1.89-7.89-4.52l-3.53,3.37c2.3,3.21,5.92,5.34,11.18,5.75v5.1h4.11Zm-3.86-36.09v9.95c-3.62-.82-5.01-2.22-5.01-5.01s1.64-4.52,5.01-4.93Zm1.73-13.56c1.56,0,2.79-1.32,2.79-2.88s-1.23-2.88-2.79-2.88c-1.64,0-2.88,1.31-2.88,2.88s1.23,2.88,2.88,2.88Zm0,58.03c1.56,0,2.79-1.31,2.79-2.88s-1.23-2.88-2.79-2.88c-1.64,0-2.88,1.32-2.88,2.88s1.23,2.88,2.88,2.88Zm1.89-18.17v-10.6c3.7.66,5.26,2.14,5.26,5.1s-1.81,5.01-5.26,5.51Zm11.18-36.41c.41.25.9.41,1.4.41.99,0,1.97-.49,2.47-1.4.82-1.4.33-3.12-1.07-3.95-.41-.25-.9-.41-1.4-.41-.99,0-1.89.58-2.47,1.48-.82,1.31-.33,3.12,1.07,3.86Zm1.4,44.96c-.49,0-.99.08-1.4.33-1.4.82-1.89,2.55-1.07,3.95.58.9,1.48,1.4,2.47,1.4.49,0,.99-.08,1.4-.33,1.4-.82,1.89-2.55,1.07-3.95-.49-.9-1.48-1.4-2.47-1.4Zm10.6-10.69c-.99,0-1.89.58-2.47,1.48-.82,1.31-.33,3.12,1.07,3.86.49.25.99.41,1.48.41.99,0,1.89-.49,2.38-1.4.82-1.4.33-3.12-.99-3.95-.49-.25-.99-.41-1.48-.41Zm-2.47-24.66c.58.9,1.48,1.4,2.47,1.4.49,0,.99-.16,1.48-.41,1.32-.74,1.81-2.47.99-3.86-.49-.9-1.4-1.4-2.38-1.4-.49,0-.99.08-1.48.33-1.4.82-1.89,2.55-1.07,3.95Zm3.54,13.07c0,1.56,1.23,2.88,2.88,2.88s2.79-1.32,2.79-2.88-1.23-2.88-2.79-2.88c-1.64,0-2.88,1.31-2.88,2.88Z"/></svg>