<?xml version="1.0" encoding="UTF-8"?><svg id="_00" xmlns="http://www.w3.org/2000/svg" viewBox="0 0 100 100"><path d="m4.05,60.83h51.95v4.85h-16.19l5.1,14.63L4.05,60.83ZM22.62,15.95c9.78,0,17.75,7.97,17.75,17.75s-7.97,17.76-17.75,17.76-17.76-7.97-17.76-17.76S12.76,15.95,22.62,15.95Zm0,31.89c7.73,0,14.06-6.33,14.06-14.06s-6.33-14.06-14.06-14.06-14.06,6.25-14.06,14.06,6.25,14.06,14.06,14.06Zm0-24.41c5.67,0,10.27,4.6,10.27,10.36s-4.6,10.28-10.27,10.28-10.36-4.6-10.36-10.28,4.6-10.36,10.36-10.36Zm0,17.1c3.7,0,6.74-3.04,6.74-6.74s-3.04-6.82-6.74-6.82-6.82,3.04-6.82,6.82,3.04,6.74,6.82,6.74Zm31.15-17.1l40.77,20.3h-51.21v-4.77h15.54l-5.1-15.54Zm23.43,30.66c9.21,0,16.69,7.4,16.69,16.6s-7.48,16.69-16.69,16.69-16.6-7.48-16.6-16.69,7.48-16.6,16.6-16.6Zm0,29.59c7.15,0,12.99-5.75,12.99-12.91s-5.84-12.99-12.99-12.99-12.91,5.84-12.91,12.99,5.75,12.91,12.91,12.91Zm0-22.11c5.1,0,9.29,4.11,9.29,9.21s-4.19,9.21-9.29,9.21-9.21-4.11-9.21-9.21,4.11-9.21,9.21-9.21Z"/></svg>