<?xml version="1.0" encoding="UTF-8"?><svg id="_00" xmlns="http://www.w3.org/2000/svg" viewBox="0 0 100 100"><path d="m61.42,60.17l15.29,2.79c5.75,1.07,8.3,6,8.3,10.52v12H14.24l-.08-11.59c0-4.93,2.14-10.6,8.88-11.59l15.87-2.3-2.47-9.29c-5.51,0-6.16-12.66-2.63-12.66-5.42-11.59.99-22.52,11.51-22.52l9.62.08c9.54.08,16.6,10.69,10.77,22.61,5.1.41,2.96,12.33-1.81,12.33l-2.47,9.62Zm-21.54,21.37c-1.32-4.85-4.03-9.62-9.37-9.62-6.25,0-8.22,4.77-9.7,9.62h19.07Zm7.64-21.12c6.99.33,10.69-1.07,12-5.92l.99-5.18c1.89,0,3.29-1.32,3.7-3.12.9-4.19.33-6.49-1.23-6.49-.33,0-.82.16-1.32.41,2.63-6.41.74-12.66-4.27-12.66-3.12,0-4.11,3.7-7.4,3.7s-3.7-3.78-7.07-3.78c-5.92,0-6.82,6.33-4.85,12.74-.33-.17-.66-.25-.9-.25-1.32,0-1.81,1.81-1.56,3.45.25,2.71,1.64,6,3.78,6.08l3.12,14.06-6.99,1.23c1.07,6.66,7.15,10.44,14.55,10.44s13.48-3.7,14.55-10.36l-9.86-1.81c-1.73.33-3.86.49-6.82.33l-.41-2.88Zm-2.88-22.11c1.4,0,2.46,1.07,2.46,2.47,0,1.32-1.07,2.47-2.46,2.47-1.32,0-2.47-1.15-2.47-2.47,0-1.4,1.15-2.47,2.47-2.47Zm10.19,0c1.4,0,2.47,1.07,2.47,2.47,0,1.32-1.07,2.47-2.47,2.47-1.32,0-2.47-1.15-2.47-2.47,0-1.4,1.15-2.47,2.47-2.47Z"/></svg>