<?xml version="1.0" encoding="UTF-8"?><svg id="_00" xmlns="http://www.w3.org/2000/svg" viewBox="0 0 100 100"><path d="m50,14.63c20.06,0,36.33,16.28,36.33,36.33s-16.28,36.41-36.33,36.41S13.58,71.1,13.58,50.96,29.86,14.63,50,14.63Zm-31.89,36.33c0,1.56,1.23,2.88,2.88,2.88s2.79-1.32,2.79-2.88-1.23-2.88-2.79-2.88c-1.64,0-2.88,1.32-2.88,2.88Zm6.74-17.34c-.99,0-1.97.49-2.47,1.4-.82,1.4-.33,3.12,1.07,3.86.41.25.9.41,1.4.41.99,0,1.97-.49,2.47-1.4.82-1.4.33-3.12-1.07-3.95-.41-.25-.9-.33-1.4-.33Zm-2.47,33.29c.49.9,1.48,1.4,2.47,1.4.49,0,.99-.16,1.4-.41,1.4-.74,1.89-2.55,1.07-3.86-.49-.9-1.48-1.48-2.47-1.48-.49,0-.99.17-1.4.41-1.4.82-1.89,2.55-1.07,3.95Zm13.07-43.98c-.49,0-.99.16-1.4.41-1.4.82-1.89,2.55-1.07,3.95.58.9,1.48,1.4,2.47,1.4.49,0,.99-.17,1.48-.41,1.31-.74,1.81-2.55.99-3.86-.49-.9-1.48-1.48-2.47-1.48Zm-1.4,55.65c.41.25.9.33,1.4.33.99,0,1.97-.49,2.47-1.4.82-1.4.33-3.12-.99-3.95-.49-.25-.99-.33-1.48-.33-.99,0-1.89.49-2.47,1.4-.82,1.4-.33,3.12,1.07,3.95Zm3.95-8.88h24v-4.52h-9.29v-7.89h9.29v-4.52h-6.41l9.21-18.99h-6l-8.55,18.99h-.33l-8.55-18.99h-6.08l9.21,18.99h-6.49v4.52h9.29v7.89h-9.29v4.52Zm12-44.88c1.56,0,2.79-1.32,2.79-2.88s-1.23-2.88-2.79-2.88c-1.64,0-2.88,1.31-2.88,2.88s1.23,2.88,2.88,2.88Zm0,58.03c1.56,0,2.79-1.32,2.79-2.88s-1.23-2.88-2.79-2.88c-1.64,0-2.88,1.32-2.88,2.88s1.23,2.88,2.88,2.88Zm13.07-54.58c.41.25.9.41,1.4.41.99,0,1.97-.49,2.47-1.4.82-1.4.33-3.12-1.07-3.95-.41-.25-.9-.41-1.4-.41-.99,0-1.89.58-2.47,1.48-.82,1.31-.33,3.12,1.07,3.86Zm1.4,44.96c-.49,0-.99.08-1.4.33-1.4.82-1.89,2.55-1.07,3.95.58.9,1.48,1.4,2.47,1.4.49,0,.99-.08,1.4-.33,1.4-.82,1.89-2.55,1.07-3.95-.49-.9-1.48-1.4-2.47-1.4Zm10.6-10.69c-.99,0-1.89.58-2.47,1.48-.82,1.31-.33,3.12,1.07,3.86.49.25.99.41,1.48.41.99,0,1.89-.49,2.38-1.4.82-1.4.33-3.12-.99-3.95-.49-.25-.99-.41-1.48-.41Zm-2.47-24.66c.58.9,1.48,1.4,2.47,1.4.49,0,.99-.17,1.48-.41,1.32-.74,1.81-2.47.99-3.86-.49-.9-1.4-1.4-2.38-1.4-.49,0-.99.08-1.48.33-1.4.82-1.89,2.55-1.07,3.95Zm3.54,13.07c0,1.56,1.23,2.88,2.88,2.88s2.79-1.32,2.79-2.88-1.23-2.88-2.79-2.88c-1.64,0-2.88,1.32-2.88,2.88Z"/></svg>