<?xml version="1.0" encoding="UTF-8"?><svg id="_00" xmlns="http://www.w3.org/2000/svg" viewBox="0 0 100 100"><path d="m14.57,62.56v-30.82h27.95v-5.01h-4.93v-11.92h14.71v11.92h-4.85v5.01h27.37v30.82h-27.37v4.85h4.85v14.06h-4.85v5.92h-4.93v-5.92h-4.93v-14.06h4.93v-4.85H14.57Zm4.93-4.6h50.39v-21.62H19.5v21.62Zm7.81-13.65c2.47,0,4.03,1.56,4.03,4.03s-1.56,3.95-4.03,3.95-3.95-1.56-3.95-3.95,1.56-4.03,3.95-4.03Zm11.01-4.27l17.1,9.7h-19.32v-3.78h4.19l-1.97-5.92Zm23.92,4.27c2.38,0,3.95,1.56,3.95,4.03s-1.56,3.95-3.95,3.95-4.03-1.56-4.03-3.95,1.56-4.03,4.03-4.03Zm4.44,25.81h5.51l3.04,9.54,8.96-24.99h5.18l-11.67,31.4h-4.77l-6.25-15.95Z"/></svg>