<?xml version="1.0" encoding="UTF-8"?><svg id="_00" xmlns="http://www.w3.org/2000/svg" viewBox="0 0 100 100"><path d="m70.38,76.2l-5.42-8.22c-.74.58-1.73.82-2.79.82-2.38,0-4.52-1.73-5.01-4.03l-4.69.25v12c2.55.33,4.52,2.55,4.52,5.18s-1.97,4.85-4.52,5.18v2.63h-4.93v-4.44h-31.15c-4.69,0-7.48-2.79-7.48-7.4V23.84c0-4.6,2.79-7.4,7.48-7.4h31.15v-4.93h4.93v10.77l8.22,6.49c.99-.9,2.22-1.48,3.7-1.48,1.64,0,3.12.82,4.11,2.05l8.05-3.53c0-2.38,1.89-4.27,4.19-4.27s4.19,1.89,4.19,4.19-1.89,4.19-4.19,4.19c-1.23,0-2.38-.58-3.12-1.4l-8.14,3.62.08.08c0,1.23-.33,2.22-.82,2.96l8.88,11.51c.99-.49,2.14-.74,3.45-.74,1.56,0,2.88.33,4.03.99l4.6-5.01c-.41-.58-.58-1.31-.58-2.05,0-2.3,1.89-4.19,4.19-4.19s4.19,1.89,4.19,4.19-1.89,4.19-4.19,4.19c-.49,0-.99-.08-1.4-.25l-4.77,5.18c.74,1.15,1.07,2.55,1.07,4.11,0,4.11-2.55,6.9-6.49,7.15l-3.04,14.55c.9.9,1.56,2.22,1.56,3.62,0,2.88-2.38,5.18-5.18,5.18s-5.18-2.3-5.18-5.18c0-.74.16-1.56.49-2.22Zm-56.47,4.77h33.62v-10.77c-2.55-.74-4.85-2.3-6.49-4.27-2.55,2.96-6.33,4.93-10.6,4.93-7.64,0-13.81-6.17-13.81-13.81s6.17-13.81,13.81-13.81c4.27,0,8.05,1.97,10.6,5.01,1.64-2.06,3.95-3.62,6.49-4.36v-12.82H13.91v49.89Zm5.01-53.35c2.05,0,3.29-1.31,3.29-3.37s-1.23-3.37-3.29-3.37-3.37,1.32-3.37,3.37,1.23,3.37,3.37,3.37Zm11.51,22.03c3.86,0,6.99,2.88,7.4,6.58.08-1.81.58-3.53,1.32-5.1-1.89-2.79-5.1-4.6-8.71-4.6-5.84,0-10.52,4.69-10.52,10.52s4.69,10.52,10.52,10.52c4.44,0,7.48-2.14,8.71-4.52-.74-1.64-1.23-3.37-1.32-5.18-.41,3.7-3.53,6.66-7.4,6.66-4.11,0-7.48-3.37-7.48-7.48s3.37-7.4,7.48-7.4Zm17.1,1.15v-3.45c-3.78,1.56-6.49,5.34-6.49,9.7s2.71,8.14,6.49,9.7v-3.45c-2.06-1.32-3.37-3.62-3.37-6.25s1.32-4.93,3.37-6.25Zm11.75-19.4l-6.82-5.34v11.67l6.82-4.19c-.08-.33-.08-.74-.08-1.07,0-.41,0-.74.08-1.07Zm-6.82,19.4l7.81,8.06c.33-.17.74-.25,1.15-.33l1.15-21.21c-.74-.25-1.4-.66-1.89-1.23l-8.22,5.1v9.62Zm0,11.34l4.85-.17c.16-.49.33-.9.66-1.32l-5.51-5.67v7.15Zm22.85-13.56l-8.8-11.43c-.33.17-.66.25-.99.33l-1.23,21.45c.41.16.82.41,1.15.66l8.8-4.03c-.25-.74-.33-1.56-.33-2.47,0-1.81.49-3.37,1.4-4.52Zm-2.96,25.4c.74-.41,1.73-.74,2.71-.74.33,0,.66.08.99.08l2.71-13.32c-1.32-.41-2.38-1.07-3.21-2.05l-8.47,3.95c.16.58.25,1.15.25,1.73,0,.82-.17,1.56-.49,2.22l5.51,8.14Zm8.71-17.51c2.05,0,3.37-1.32,3.37-3.37s-1.31-3.37-3.37-3.37-3.37,1.31-3.37,3.37,1.4,3.37,3.37,3.37Z"/></svg>