<?xml version="1.0" encoding="UTF-8"?><svg id="_00" xmlns="http://www.w3.org/2000/svg" viewBox="0 0 100 100"><path d="m39.97,85.49H12.68l2.63-21.54,18.33-3.29v10.19l6.33,14.63Zm21.95-28.11l-8.63,7.32h-6.99l-8.14-7.32-1.81-6.58c-5.42,0-6.08-12.66-2.63-12.66-5.42-11.67.99-22.6,11.51-22.52h9.62c9.53.08,16.6,10.69,10.77,22.69,5.1.33,3.04,12.25-1.81,12.25l-1.89,6.82Zm-21.04-2.3l6.82,6.41h4.11l7.4-6.08,1.23-6.08c1.89,0,3.29-1.32,3.7-3.12.99-4.19.41-6.49-1.23-6.49-.33,0-.82.16-1.32.41,2.63-6.41.74-12.66-4.27-12.66-3.12,0-4.11,3.7-7.4,3.7s-3.7-3.7-7.07-3.7c-5.92,0-6.74,6.25-4.85,12.66-.33-.16-.58-.16-.82-.16-1.4,0-1.89,1.73-1.64,3.37.33,2.71,1.73,6,4.11,6.08l1.23,5.67Zm6.25-14.3c0,1.56-.9,2.47-2.46,2.47-1.64,0-2.47-.9-2.47-2.47,0-1.64.82-2.47,2.47-2.47s2.46.82,2.46,2.47Zm4.77,26.55l3.45,4.36-3.12,2.47,2.46,11.34h-9.86l2.71-11.43-3.12-2.38,3.62-4.36h3.86Zm.49-26.55c0-1.64.82-2.47,2.47-2.47s2.47.82,2.47,2.47-.9,2.47-2.47,2.47c-1.64,0-2.47-.9-2.47-2.47Zm14.06,19.81l17.34,3.37,3.21,21.54h-26.71l6.17-14.71v-10.19Z"/></svg>