<?xml version="1.0" encoding="UTF-8"?><svg id="_00" xmlns="http://www.w3.org/2000/svg" viewBox="0 0 100 100"><path d="m31.17,15.87c8.71,0,14.47,5.84,14.47,14.55,0,7.89-4.69,13.32-12,14.38v22.93h8.63v5.67h-7.4v7.64h7.4v5.01h-6.25c-4.77,0-7.32-2.47-7.32-6.41v-34.85c-7.4-.99-12.08-6.49-12.08-14.38,0-8.71,5.75-14.55,14.55-14.55Zm0,24.25c5.75,0,9.62-3.86,9.62-9.7s-3.86-9.7-9.62-9.7-9.7,3.86-9.7,9.7,3.86,9.7,9.7,9.7Zm8.71,19.48v-4.69h17.1v4.69h-17.1Zm5.75-11.75v-4.69h6.33v4.69h-6.33Zm1.31,23.51v-4.77h5.01v4.77h-5.01Zm0,11.26v-4.77h22.52v4.77h-22.52Zm2.3-57.62v-4.69h4.69v4.69h-4.69Zm0,11.43v-4.69h8.55v4.69h-8.55Zm5.84,34.93v-4.77h11.67v4.77h-11.67Zm.49-23.51v-4.69h5.01v4.69h-5.01Zm1.89-22.85v-4.69h4.69v4.69h-4.69Zm2.71,34.61v-4.69h5.1v4.69h-5.1Zm1.15-23.18v-4.69h17.76v4.69h-17.76Zm2.79,11.43v-4.69h13.48v4.69h-13.48Zm1.48-22.85v-4.69h8.71v4.69h-8.71Zm2.96,34.61v-4.69h5.01v4.69h-5.01Zm1.23,11.75v-4.77h14.06v4.77h-14.06Zm2.79,11.26v-4.77h5.1v4.77h-5.1Zm4.19-23.02v-4.69h5.01v4.69h-5.01Zm1.15-34.61v-4.69h5.92v4.69h-5.92Z"/></svg>