<?xml version="1.0" encoding="UTF-8"?><svg id="_00" xmlns="http://www.w3.org/2000/svg" viewBox="0 0 100 100"><path d="m22.21,85.49h-14.06v-14.71h5.51v-8.63h12.17v-5.18h-13.64v-12.08h13.64v-17.02h9.04v3.37h-5.75v13.65h13.73v12.08h-13.73v5.18h10.69v8.63h5.51v14.71h-14.38v-14.71h5.59v-5.26h-19.56v5.26h5.26v14.71Zm23.76-45.7h-4.11l.99-5.84h-3.45v-4.11h4.19l.82-4.36h-3.78v-4.11h4.52l.99-5.67h4.03l-.99,5.67h3.86l.99-5.67h4.03l-.99,5.67h3.53v4.11h-4.27l-.74,4.36h3.78v4.11h-4.52l-.99,5.84h-4.11l1.07-5.84h-3.86l-.99,5.84Zm2.47-14.3l-.74,4.36h3.86l.74-4.36h-3.86Zm20.3,60.01h-14.14v-14.71h5.26v-8.63h11.26v-5.18h-13.73v-12.08h13.64v-13.65h-5.67v-3.37h9.04v17.02h13.64v12.08h-13.64v5.18h11.84v8.63h5.59v14.71h-14.14v-14.71h5.26v-5.26h-19.81v5.26h5.59v14.71Z"/></svg>