<?xml version="1.0" encoding="UTF-8"?><svg id="_00" xmlns="http://www.w3.org/2000/svg" viewBox="0 0 100 100"><path d="m91.01,78.09c0,4.52-2.79,7.32-7.56,7.32H16.54c-4.68,0-7.48-2.79-7.48-7.32V23.76c0-4.6,2.79-7.4,7.48-7.4h66.91c4.77,0,7.56,2.79,7.56,7.4v54.33Zm-77.02,2.71h72.01V30.91H13.99v49.9Zm5.01-53.35c1.81,0,3.37-1.48,3.37-3.37s-1.56-3.29-3.37-3.29-3.37,1.48-3.37,3.29,1.48,3.37,3.37,3.37Zm11.51,43.4c-7.64,0-13.81-6.17-13.81-13.81s6.17-13.81,13.81-13.81c4.27,0,8.05,1.97,10.6,5.01,2.55-3.04,6.33-5.01,10.52-5.01,3.45,0,6.9,1.48,9.12,3.37,2.38-2.05,5.51-3.37,8.96-3.37,7.64,0,13.81,6.17,13.81,13.81s-6.17,13.81-13.81,13.81c-3.45,0-6.58-1.32-9.04-3.37-2.38,2.05-5.59,3.37-9.04,3.37-4.19,0-8.06-1.97-10.52-4.93-2.55,2.96-6.33,4.93-10.6,4.93Zm0-21.21c3.86,0,6.99,2.88,7.4,6.58.08-1.81.57-3.53,1.31-5.1-1.89-2.79-5.1-4.6-8.71-4.6-5.84,0-10.52,4.69-10.52,10.52s4.69,10.52,10.52,10.52c4.44,0,7.48-2.14,8.71-4.52-.74-1.64-1.23-3.37-1.31-5.18-.41,3.7-3.54,6.66-7.4,6.66-4.11,0-7.48-3.37-7.48-7.48s3.37-7.4,7.48-7.4Zm21.12,0c2.14,0,3.95.82,5.34,2.14.41-.99.9-1.89,1.48-2.71-1.81-1.56-4.19-2.55-6.82-2.55-5.75,0-10.52,4.69-10.52,10.52s4.77,10.52,10.52,10.52c2.63,0,5.01-.99,6.82-2.55-.58-.82-1.07-1.73-1.48-2.71-1.4,1.32-3.21,2.22-5.34,2.22-4.11,0-7.4-3.37-7.4-7.48s3.29-7.4,7.4-7.4Zm18.08,17.92c5.84,0,10.52-4.69,10.52-10.52s-4.69-10.52-10.52-10.52-10.52,4.69-10.52,10.52,4.69,10.52,10.52,10.52Zm0-17.92c4.11,0,7.48,3.29,7.48,7.4s-3.37,7.48-7.48,7.48-7.4-3.37-7.4-7.48,3.29-7.4,7.4-7.4Z"/></svg>