<?xml version="1.0" encoding="UTF-8"?><svg id="_00" xmlns="http://www.w3.org/2000/svg" viewBox="0 0 100 100"><path d="m7.99,61.9v-4.85h4.52v4.85h-4.52Zm9.21,0v-4.85h4.52v4.85h-4.52Zm3.37-16.85v-4.85h4.52v4.85h-4.52Zm14.06,34.69l3.12-17.75h-10.85v-5.01h11.84l1.89-11.92h-10.77v-4.93h11.75l3.12-17.76h5.51l-3.12,17.76h10.11l3.12-17.76h5.51l-3.12,17.76h10.85v4.93h-11.84l-1.89,11.92h10.77v5.01h-11.75l-3.12,17.75h-5.51l3.12-17.75h-10.11l-3.12,17.75h-5.51Zm9.54-22.77h10.11l2.05-11.92h-10.11l-2.05,11.92Zm31.15,4.85v-4.93h4.52v4.93h-4.52Zm2.71-16.77v-4.93h4.52v4.93h-4.52Zm9.54,0v-4.93h4.52v4.93h-4.52Z"/></svg>