<?xml version="1.0" encoding="UTF-8"?><svg id="_00" xmlns="http://www.w3.org/2000/svg" viewBox="0 0 100 100"><path d="m52.46,90.01h-4.93v-4.52H10.54v-11.67c0-4.85,2.05-10.52,8.88-11.51l14.8-2.14-.9-4.85c-1.89,0-3.62-.99-3.62-3.12,0-.82.33-1.56.82-2.14-3.54-2.71-3.62-12-.58-12-1.64-6.9.49-14.63,11.1-14.63l3.86-8.71h2.63v-3.21h4.93v10.77l8.22,6.49c.99-.9,2.22-1.48,3.7-1.48,1.64,0,3.12.82,4.11,2.05l8.05-3.53c0-2.38,1.89-4.27,4.19-4.27s4.19,1.89,4.19,4.19-1.89,4.19-4.19,4.19c-1.23,0-2.38-.58-3.12-1.4l-8.14,3.62q.08.16.08.33c0,.99-.33,1.97-.82,2.71l8.88,11.51c.99-.49,2.14-.74,3.45-.74,1.56,0,2.88.33,4.03.99l4.6-5.01c-.41-.58-.58-1.31-.58-2.06,0-2.3,1.89-4.19,4.19-4.19s4.19,1.89,4.19,4.19-1.89,4.19-4.19,4.19c-.49,0-.99-.08-1.4-.25l-4.77,5.18c.74,1.15,1.07,2.55,1.07,4.11,0,4.11-2.55,6.9-6.49,7.15l-3.04,14.55c.9.9,1.56,2.22,1.56,3.62,0,2.88-2.38,5.18-5.18,5.18s-5.18-2.3-5.18-5.18c0-.74.16-1.56.49-2.22l-5.42-8.22c-.74.58-1.73.82-2.79.82-2.38,0-4.52-1.73-5.01-4.03l-4.69.25v12c2.55.33,4.52,2.55,4.52,5.18s-1.97,4.85-4.52,5.18v2.63Zm-16.28-8.55c-1.23-4.77-3.95-9.53-9.29-9.53-6.25,0-8.22,4.77-9.7,9.53h18.99Zm2.47-18l-6.99,1.15,13.89,16.85,1.97-2.14v-16.03c-1.15,0-2.22.08-3.21,0l-.41-2.88c1.31,0,2.55-.08,3.62-.16v-28.28c-.41.25-.9.41-1.4.41-2.46,0-3.45-2.79-4.68-5.01-8.38,0-9.21,6.33-7.23,12.74-.33-.16-.66-.25-.9-.25-1.32,0-1.81,1.81-1.56,3.45.25,2.63,1.64,6,3.78,6.08l3.12,14.06Zm4.6-22.69c0,1.56-.82,2.47-2.46,2.47s-2.47-.9-2.47-2.47c0-1.64.9-2.47,2.47-2.47,1.64,0,2.46.82,2.46,2.47Zm16.03-9.37l-6.82-5.34v11.67l6.82-4.19c-.08-.33-.08-.74-.08-1.07,0-.41,0-.74.08-1.07Zm-6.82,19.4l7.81,8.06c.33-.16.74-.25,1.15-.33l1.15-21.21c-.74-.25-1.4-.66-1.89-1.23l-8.22,5.1v9.62Zm0,4.19v7.15l4.85-.16c.16-.49.33-.9.66-1.32l-5.51-5.67Zm22.85-6.41l-8.8-11.43c-.33.16-.66.25-.99.33l-1.23,21.45c.41.16.82.41,1.15.66l8.8-4.03c-.25-.74-.33-1.56-.33-2.47,0-1.81.49-3.37,1.4-4.52Zm-2.96,25.4c.74-.41,1.73-.74,2.71-.74.33,0,.66.08.99.08l2.71-13.32c-1.32-.41-2.38-1.07-3.21-2.06l-8.47,3.95c.16.58.25,1.15.25,1.73,0,.82-.17,1.56-.49,2.22l5.51,8.14Zm8.71-17.51c2.05,0,3.37-1.32,3.37-3.37s-1.31-3.37-3.37-3.37-3.37,1.31-3.37,3.37,1.4,3.37,3.37,3.37Z"/></svg>