<?xml version="1.0" encoding="UTF-8"?><svg id="_00" xmlns="http://www.w3.org/2000/svg" viewBox="0 0 100 100"><path d="m8.16,82.2l2.06-3.86c2.55-4.68,7.56-7.56,12.25-7.56,1.4,0,3.04.66,4.44,1.31-.25-1.48-.25-3.95.49-5.51,1.73-3.7,6.66-4.93,10.03-4.93l.08-2.63h-3.78c-3.62,0-6.49-1.4-6.08-5.92l.33-3.86-1.4.08c-2.79.25-4.03-2.38-3.21-5.1l4.6-14.96c-4.77-5.26-2.05-12.82,5.18-12.82h15.7c12.08,0,15.87,5.42,18.17,13.89,2.71,9.86-1.23,15.78-5.84,20.63v4.52c1.64-.58,3.21-.82,4.6-.82,3.95,0,7.15,2.05,10.03,6.08l9.95,13.73c3.29,4.6,1.89,12.66-6.17,12.66H8.16v-4.93Zm3.53,1.15h27.04v-5.42c-9.29,0-11.18-3.04-16.28-3.04-3.86,0-8.14,2.63-10.77,8.47Zm38.8-39.21c-.66,0-1.4-.33-1.89-1.07-2.38-3.21,6.41-13.97-1.32-15.29-4.27-.66-5.84,3.62-11.51,3.62-1.15,0-2.47-.16-4.03-.58l-4.36,15.04h4.11l-.33,9.04,5.67.33c3.62.25,5.1,2.14,5.1,4.77v15.78l15.45-19.07-2.96-7.07h1.23c1.73,0,3.21-2.71,3.29-5.34.08-2.71-1.07-5.26-3.45-5.26s-2.71,1.89-2.79,3.62c-.33.82-1.23,1.48-2.22,1.48Zm-13.65-3.95c0-1.89,1.15-2.96,2.96-2.96s2.88,1.07,2.88,2.96-1.15,2.96-2.88,2.96-2.96-1.07-2.96-2.96Z"/></svg>