<?xml version="1.0" encoding="UTF-8"?><svg id="_00" xmlns="http://www.w3.org/2000/svg" viewBox="0 0 100 100"><path d="m32.98,43.16h14.14v2.79h7.89l-3.37-9.54,25.48,12.74h-30v8.71h-14.14v-5.51h-10.19v6.74H6.76v-16.77h16.03v6.74h10.19v-5.92Zm7.07,11.59c2.38,0,3.95-1.64,3.95-4.03s-1.56-4.03-3.95-4.03-4.03,1.64-4.03,4.03,1.64,4.03,4.03,4.03Zm35.43,10.77l-25.48-13.07h29.67v3.12h-7.48l3.29,9.95Zm4.19-22.11h14.06v14.71h-14.06v-14.71Zm6.91,11.34c2.38,0,4.03-1.64,4.03-4.03s-1.64-4.03-4.03-4.03-4.03,1.64-4.03,4.03,1.64,4.03,4.03,4.03Z"/></svg>