<?xml version="1.0" encoding="UTF-8"?><svg id="_00" xmlns="http://www.w3.org/2000/svg" viewBox="0 0 100 100"><path d="m10.79,63.38c.66,0,1.32,0,1.89.16l3.29-4.27c-.9-.9-1.4-2.14-1.4-3.45,0-.9.25-1.73.58-2.38H3.14v-4.93h93.62v4.93h-6c-.08,3.86-2.63,6.58-6.49,6.82l-3.04,14.55c.9.9,1.56,2.22,1.56,3.62,0,2.88-2.38,5.18-5.18,5.18s-5.18-2.3-5.18-5.18c0-.74.16-1.56.49-2.22l-5.42-8.22c-.74.58-1.73.82-2.79.82-2.38,0-4.52-1.73-5.01-4.03l-10.03.41c-.25,2.06-1.15,3.62-2.55,4.69l5.59,7.4c.49-.16,1.07-.25,1.64-.25,2.88,0,5.18,2.3,5.18,5.18s-2.3,5.18-5.18,5.18-5.18-2.3-5.18-5.18c0-1.23.49-2.3,1.15-3.21l-5.92-7.81c-.58.08-1.23.16-1.89.16-.82,0-1.56-.08-2.22-.33l-6.41,8.88c.08.25.08.58.08.9,0,2.3-1.89,4.19-4.19,4.19s-4.19-1.89-4.19-4.19c0-.74.16-1.4.49-1.97l-6.08-17.84c-.58,0-1.07-.08-1.56-.16l-3.04,3.95c1.64,1.23,2.55,3.29,2.55,5.75,0,4.27-2.88,7.15-7.15,7.15s-7.15-2.88-7.15-7.15,2.88-7.15,7.15-7.15Zm22.77-34.11h14.06v6h9.54v-5.67h14.06v5.59h9.04v-5.75h14.06v14.8h-14.06v-5.75h-9.04v5.84h-14.06v-5.75h-9.54v5.51h-14.06v-5.51h-10.19v6.74H7.34v-16.77h16.03v6.74h10.19v-6Zm-22.77,44.63c2.06,0,3.37-1.4,3.37-3.37s-1.32-3.37-3.37-3.37-3.37,1.31-3.37,3.37,1.31,3.37,3.37,3.37Zm24.66-10.93l-11.18-4.52c-.41.58-.9,1.15-1.48,1.56l5.67,16.85c.41-.16.9-.25,1.31-.25.9,0,1.73.25,2.38.74l5.42-7.73c-1.4-1.23-2.22-3.12-2.22-5.43,0-.41,0-.82.08-1.23Zm-5.84-9.54l-4.36,2.22,11.1,4.6c1.23-2.06,3.37-3.21,6.33-3.21l.57-3.62h-13.64Zm12.91,14.14c2.06,0,3.37-1.4,3.37-3.37s-1.31-3.37-3.37-3.37-3.37,1.32-3.37,3.37,1.31,3.37,3.37,3.37Zm3.7-14.14l-.66,4.11c2.05.82,3.45,2.55,3.95,4.85l10.36-.41c.17-.49.33-.9.66-1.32l-7.07-7.23h-7.23Zm11.26,0l5.34,5.43c.33-.16.74-.25,1.15-.33l.25-5.1h-6.74Zm9.7,0l-.33,5.51c.41.16.82.41,1.15.66l8.79-4.03c-.16-.66-.33-1.4-.33-2.14h-9.29Zm7.73,20.55c.74-.41,1.73-.74,2.71-.74.33,0,.66.08.9.08l2.79-13.32c-1.31-.41-2.38-1.07-3.21-2.06l-8.47,3.95c.16.58.25,1.15.25,1.73,0,.82-.16,1.56-.49,2.22l5.51,8.14Zm5.34-20.55c.16,1.81,1.48,3.04,3.37,3.04s3.29-1.23,3.37-3.04h-6.74Zm10.69-12.49v-8.14h-7.4v8.14h7.4Z"/></svg>