<?xml version="1.0" encoding="UTF-8"?><svg id="_00" xmlns="http://www.w3.org/2000/svg" viewBox="0 0 100 100"><path d="m27.97,14.8c9.21,0,16.69,7.48,16.69,16.69s-7.48,16.6-16.69,16.6-16.69-7.4-16.69-16.6,7.48-16.69,16.69-16.69Zm0,29.67c7.15,0,12.91-5.84,12.91-12.99s-5.75-12.91-12.91-12.91-12.99,5.75-12.99,12.91,5.84,12.99,12.99,12.99Zm0-22.19c5.1,0,9.21,4.11,9.21,9.21s-4.11,9.29-9.21,9.29-9.29-4.19-9.29-9.29,4.19-9.21,9.29-9.21Zm-4.85,12.66h9.62l-4.77-8.3-4.85,8.3Zm17.92,19.07c9.21,0,16.69,7.48,16.69,16.69s-7.48,16.69-16.69,16.69-16.69-7.48-16.69-16.69,7.48-16.69,16.69-16.69Zm0,29.67c7.15,0,12.91-5.75,12.91-12.91s-5.75-12.99-12.91-12.99-12.99,5.84-12.99,12.99,5.84,12.91,12.99,12.91Zm0-22.19c5.1,0,9.21,4.19,9.21,9.29s-4.11,9.21-9.21,9.21-9.21-4.11-9.21-9.21,4.11-9.29,9.21-9.29Zm-3.45,12.82h6.82v-6.82h-6.82v6.82Zm36.74-44.39c9.21,0,16.69,7.48,16.69,16.69s-7.48,16.6-16.69,16.6-16.6-7.4-16.6-16.6,7.4-16.69,16.6-16.69Zm0,29.67c7.15,0,12.99-5.84,12.99-12.99s-5.84-12.91-12.99-12.91-12.91,5.75-12.91,12.91,5.75,12.99,12.91,12.99Zm0-22.19c5.1,0,9.29,4.11,9.29,9.21s-4.19,9.29-9.29,9.29-9.21-4.19-9.21-9.29,4.11-9.21,9.21-9.21Zm0,13.07c2.38,0,3.86-1.56,3.86-3.86s-1.48-3.86-3.86-3.86-3.86,1.56-3.86,3.86,1.56,3.86,3.86,3.86Z"/></svg>