<?xml version="1.0" encoding="UTF-8"?><svg id="_00" xmlns="http://www.w3.org/2000/svg" viewBox="0 0 100 100"><path d="m50,14.63c19.97,0,36.25,16.19,36.25,36.25s-16.28,36.17-36.25,36.17S13.75,70.86,13.75,50.88,30.02,14.63,50,14.63Zm0,67.9c17.34,0,31.48-14.14,31.48-31.56s-14.14-31.48-31.48-31.48-31.48,14.14-31.48,31.48,14.06,31.56,31.48,31.56Zm0-58.11c14.63,0,26.55,11.92,26.55,26.55s-11.92,26.63-26.55,26.63-26.63-11.92-26.63-26.63,11.92-26.55,26.63-26.55Zm2.14,50.06v-5.26c6.58-.74,10.27-4.6,10.27-10.27,0-4.85-2.55-8.55-9.21-9.7l-1.32-.25v-10.52c2.79.41,4.85,1.64,6.41,3.7l3.62-3.29c-2.3-2.88-5.43-4.69-9.78-5.1v-5.18h-4.11v5.18c-6.33.58-10.03,4.11-10.03,9.7,0,4.69,2.46,8.55,9.12,9.7l1.15.16v11.43c-3.12-.41-5.67-1.89-7.89-4.52l-3.53,3.37c2.3,3.21,5.92,5.34,11.18,5.75v5.1h4.11Zm-3.86-36.09v9.95c-3.62-.82-5.01-2.22-5.01-5.01s1.64-4.52,5.01-4.93Zm3.62,26.3v-10.6c3.7.66,5.26,2.14,5.26,5.1s-1.81,5.01-5.26,5.51Z"/></svg>