<?xml version="1.0" encoding="UTF-8"?><svg id="_00" xmlns="http://www.w3.org/2000/svg" viewBox="0 0 100 100"><path d="m20.08,29.1h-4.93v-12.74h12.41v4.6h-7.48v8.14Zm0,31.4h-4.93v-20.22h4.93v20.22Zm7.48,20.3v4.69h-12.41v-14.06h4.93v9.37h7.48Zm0-52.69c2.47,0,4.03,1.64,4.03,4.03s-1.56,4.03-4.03,4.03-3.95-1.64-3.95-4.03,1.56-4.03,3.95-4.03Zm.08,12.17c2.38,0,4.03,1.56,4.03,3.95s-1.64,4.03-4.03,4.03-4.03-1.56-4.03-4.03,1.64-3.95,4.03-3.95Zm0,12.08c2.38,0,4.03,1.56,4.03,3.95s-1.64,4.03-4.03,4.03-4.03-1.56-4.03-4.03,1.64-3.95,4.03-3.95Zm0,12.08c2.38,0,4.03,1.56,4.03,3.95s-1.64,4.03-4.03,4.03-4.03-1.56-4.03-4.03,1.64-3.95,4.03-3.95Zm12.66-17.67h-4.77v-4.77h4.77v4.77Zm0,12.08h-4.77v-4.77h4.77v4.77Zm0,12h-4.77v-4.77h4.77v4.77Zm6.08-41.1l-1.97-5.92,19.56,9.7h-28.11v-3.78h10.52Zm-7.81-8.8v-4.6h22.28v4.6h-22.28Zm22.28,59.84v4.69h-22.28v-4.69h22.28Zm-12.5-34.03h-4.85v-4.77h4.85v4.77Zm0,12.08h-4.85v-4.77h4.85v4.77Zm0,12h-4.85v-4.77h4.85v4.77Zm7.89-24.08h-4.77v-4.77h4.77v4.77Zm0,12.08h-4.77v-4.77h4.77v4.77Zm0,12h-4.77v-4.77h4.77v4.77Zm7.81-24.08h-4.85v-4.77h4.85v4.77Zm0,12.08h-4.85v-4.77h4.85v4.77Zm0,12h-4.85v-4.77h4.85v4.77Zm7.56-42.74c2.38,0,3.95,1.64,3.95,4.03s-1.56,4.03-3.95,4.03-4.03-1.64-4.03-4.03,1.56-4.03,4.03-4.03Zm0,12.17c2.47,0,4.03,1.56,4.03,3.95s-1.56,4.03-4.03,4.03-3.95-1.56-3.95-4.03,1.56-3.95,3.95-3.95Zm0,12c2.47,0,4.03,1.64,4.03,4.03s-1.56,4.03-4.03,4.03-3.95-1.64-3.95-4.03,1.56-4.03,3.95-4.03Zm0,12.08c2.47,0,4.03,1.64,4.03,4.03s-1.56,4.03-4.03,4.03-3.95-1.64-3.95-4.03,1.56-4.03,3.95-4.03Zm-.08-43.4v-4.6h12.66v12.74h-4.93v-8.14h-7.73Zm7.73,50.47h4.93v14.06h-12.66v-4.69h7.73v-9.37Zm0-31.15h4.93v20.22h-4.93v-20.22Z"/></svg>