<?xml version="1.0" encoding="UTF-8"?><svg id="_00" xmlns="http://www.w3.org/2000/svg" viewBox="0 0 100 100"><path d="m41.28,48.33h5.43v5.92h9.54v-5.67h14.06v5.67h9.04v-5.67h14.06v14.71h-14.06v-5.75h-9.04v5.75h-5.84v4.19l12.08,9.62h2.88v-5.42h14.06v14.8h-14.06v-6.08h-3.53l-14.71-12.08v-5.01h-4.93v-5.75h-9.54v5.51h-14.06v-5.51h-10.19v6.74H6.43v-16.77h16.03v6.74h10.19v-5.92h5.34v-4.6l14.71-12.08h3.54v-6h14.06v6h9.04v-6h14.06v14.71h-14.06v-5.43h-9.04v5.43h-14.06v-5.43h-2.88l-12.08,9.62v3.78Zm-14.63-20.96h-6.9v-4.52h6.9v-7.48h4.93v7.48h6.99v4.52h-6.99v7.23h-4.93v-7.23Zm40.28,9.62v-7.97h-7.32v7.97h7.32Zm23.18,0v-7.97h-7.4v7.97h7.4Zm.08,46.11v-8.06h-7.48v8.06h7.48Z"/></svg>