<?xml version="1.0" encoding="UTF-8"?><svg id="_00" xmlns="http://www.w3.org/2000/svg" viewBox="0 0 100 100"><path d="m16.87,65.68l-11.18-11.18,3.54-3.45,2.3,2.3,3.04,3.62.25-.08-.41-6.99v-12.82h4.93v12.82l-.41,6.99.16.08,3.12-3.62,2.3-2.3,3.45,3.45-11.1,11.18Zm-7.81-44.39c0-3.21,1.56-4.93,4.85-4.93h72.17c3.29,0,4.85,1.73,4.85,4.93v6.17c0,3.21-1.56,4.85-4.85,4.85H13.91c-3.29,0-4.85-1.64-4.85-4.85v-6.17Zm0,54.17c0-3.29,1.56-4.93,4.85-4.93h72.17c3.29,0,4.85,1.64,4.85,4.93v6.17c0,3.21-1.56,4.85-4.85,4.85H13.91c-3.29,0-4.85-1.64-4.85-4.85v-6.17Zm10.93-47.02c2.38,0,3.95-1.56,3.95-3.95s-1.56-4.03-3.95-4.03-4.03,1.56-4.03,4.03,1.56,3.95,4.03,3.95Zm0,54.09c2.38,0,3.95-1.56,3.95-3.95s-1.56-4.03-3.95-4.03-4.03,1.56-4.03,4.03,1.56,3.95,4.03,3.95Zm29.43-34.44h14.06c3.86,0,6.33,2.55,6.41,7.32v3.45h-4.77v-6h-3.86v6h-4.77v-6h-7.07c-.82,4.36-4.28,7.07-9.12,7.07-5.59,0-9.37-3.7-9.37-9.37s3.78-9.37,9.37-9.37c4.77,0,8.22,2.71,9.12,6.9Zm-13.89,2.47c0,2.88,1.97,4.77,4.77,4.77s4.77-1.89,4.77-4.77-1.89-4.77-4.77-4.77-4.77,1.97-4.77,4.77Zm25.73-29.59v6.82h4.93v-6.82h-4.93Zm0,54.09v6.9h4.93v-6.9h-4.93Zm9.95-54.09v6.82h4.93v-6.82h-4.93Zm0,54.09v6.9h4.93v-6.9h-4.93Zm11.92-38.63l11.18,11.18-3.54,3.45-2.3-2.3-3.04-3.62-.25.08.41,6.99v12.74h-4.93v-12.74l.41-6.99-.17-.08-3.12,3.62-2.3,2.3-3.45-3.45,11.1-11.18Zm-2.05-15.45v6.82h4.93v-6.82h-4.93Zm0,54.09v6.9h4.93v-6.9h-4.93Z"/></svg>