<?xml version="1.0" encoding="UTF-8"?><svg id="_00" xmlns="http://www.w3.org/2000/svg" viewBox="0 0 100 100"><path d="m34.3,51.95c0,2.79-1.64,4.44-4.52,4.44H13.5c-2.88,0-4.52-1.64-4.52-4.44v-14.96c0-2.47,1.32-4.11,3.53-4.44v-4.52c0-6.82,3.37-10.6,9.04-10.6s9.04,3.7,9.04,10.6v4.52c2.38.33,3.7,1.89,3.7,4.44v14.96Zm-17.84,33.54c-4.69,0-7.48-2.79-7.48-7.4v-10.52c0-4.6,2.79-7.4,7.48-7.4h67.08c4.68,0,7.48,2.79,7.48,7.4v10.52c0,4.6-2.79,7.4-7.48,7.4H16.46Zm69.62-4.6v-16.11H13.91v16.11h72.17ZM16.79,32.55h9.54v-4.44c0-3.78-.99-6.49-4.77-6.49-3.45,0-4.77,2.71-4.77,6.49v4.44Zm3.21,11.59l-1.89,6.74v1.97h6.9v-1.97l-1.89-6.74c1.56-.58,2.47-1.97,2.47-3.78,0-2.47-1.64-4.11-4.03-4.11s-4.11,1.64-4.11,4.11c0,1.89.99,3.29,2.55,3.78Zm-1.81,30.82v-4.77h9.12v4.77h-9.12Zm13.56,0v-4.77h14.71v4.77h-14.71Zm32.8-35.92h21.87c3.95,0,6.41,2.55,6.41,7.32v6.25h-6.9v-7.4h-5.51v7.4h-7.15v-8.55h-8.71c-.99,5.92-5.59,9.7-12.08,9.7-7.32,0-12.25-4.93-12.25-12.25s4.93-12.25,12.25-12.25c6.49,0,11.1,3.78,12.08,9.78Zm-19.56,2.46c0,4.52,3.04,7.48,7.48,7.48s7.56-2.96,7.56-7.48-3.04-7.48-7.56-7.48-7.48,2.96-7.48,7.48Zm6.08,33.46v-4.77h6.49v4.77h-6.49Zm11.18,0v-4.77h19.48v4.77h-19.48Z"/></svg>