<?xml version="1.0" encoding="UTF-8"?><svg id="_00" xmlns="http://www.w3.org/2000/svg" viewBox="0 0 100 100"><path d="m50,14.63c19.97,0,36.25,16.19,36.25,36.25s-16.28,36.17-36.25,36.17S13.75,70.86,13.75,50.88,30.02,14.63,50,14.63Zm-26.06,33.7c.58-5.75,2.96-10.93,6.66-15.04l-3.62-3.37c-4.44,4.85-7.32,11.02-8.05,17.84l5.01.58Zm-2.38,15.37c4.85,10.85,15.78,18.5,28.44,18.5,6.49,0,12.58-2.05,17.59-5.43l-2.88-4.11c-4.19,2.88-9.21,4.52-14.71,4.52-10.69,0-19.81-6.33-23.92-15.54l-4.52,2.05Zm20.14-26.63h4.36c2.88,0,5.51,1.56,5.51,5.84v18.17h4.36v-17.67c0-6.82-3.95-10.19-9.62-10.19h-9.12v35.84h4.52v-31.97Zm1.64-11.51c2.14-.49,4.36-.82,6.66-.82,14.47,0,26.22,11.75,26.22,26.22h5.01c0-17.26-13.97-31.24-31.24-31.24-2.71,0-5.42.41-7.89,1.07l1.23,4.77Zm10.19,43.48c5.67,0,9.7-3.29,9.7-10.11v-25.73h-4.52v26.14c0,4.36-2.71,5.84-5.59,5.84h-4.36v-24h-4.27v27.87h9.04Z"/></svg>