<?xml version="1.0" encoding="UTF-8"?><svg id="_00" xmlns="http://www.w3.org/2000/svg" viewBox="0 0 100 100"><path d="m30.76,37.65h21.37c3.95,0,6.41,2.55,6.41,7.4v6.25h-6.9v-7.48h-5.51v7.48h-7.15v-8.63h-8.22c-.99,5.92-5.59,9.7-12.08,9.7-7.32,0-12.25-4.85-12.25-12.25s4.93-12.25,12.25-12.25c6.49,0,11.1,3.86,12.08,9.78Zm-14.3,47.84c-4.69,0-7.48-2.79-7.48-7.4v-10.52c0-4.6,2.79-7.4,7.48-7.4h67.08c4.68,0,7.48,2.79,7.48,7.4v10.52c0,4.6-2.79,7.4-7.48,7.4H16.46Zm-5.26-45.37c0,4.52,3.04,7.56,7.48,7.56s7.48-3.04,7.48-7.56-2.96-7.48-7.48-7.48-7.48,3.04-7.48,7.48Zm74.88,40.77v-16.11H13.91v16.11h72.17Zm-67.9-5.92v-4.77h9.12v4.77h-9.12Zm13.56,0v-4.77h14.71v4.77h-14.71Zm19.32,0v-4.77h6.49v4.77h-6.49Zm11.18,0v-4.77h19.48v4.77h-19.48Zm9.12-20.8l-8.63-24.08,5.67-1.4,6.33,17.67h.41l9.78-31.56,5.51,1.64-12.08,37.73h-6.99Z"/></svg>