<?xml version="1.0" encoding="UTF-8"?><svg id="_00" xmlns="http://www.w3.org/2000/svg" viewBox="0 0 100 100"><path d="m23.61,16.52c9.21,0,16.69,7.48,16.69,16.69s-7.48,16.6-16.69,16.6-16.69-7.48-16.69-16.6,7.48-16.69,16.69-16.69Zm-9.21,15.78c.25-2.06,1.07-3.86,2.38-5.26l-2.71-2.55c-1.89,1.97-3.04,4.6-3.37,7.4l3.7.41Zm-2.63,6.25c2.06,4.44,6.58,7.64,11.84,7.64,2.71,0,5.18-.82,7.32-2.3l-2.14-3.04c-1.48.99-3.29,1.64-5.18,1.64-3.78,0-6.99-2.3-8.47-5.51l-3.37,1.56Zm67.98-8.71l-18.91,32.55-18.41-6.82-22.03,31.89-4.44-3.04,24.74-35.84,18.25,7.23,16.36-28.28,3.86-5.92-.16-.17-4.44,1.81-4.69,1.48-1.48-4.77,16.69-5.18,5.18,16.6-4.77,1.48-1.48-4.68-.99-4.6-.25-.08-3.04,6.33Zm-43.24,3.37c0-7.15-5.75-12.91-12.9-12.91-1.15,0-2.22.16-3.29.41l.9,3.62c.74-.25,1.56-.33,2.38-.33,5.1,0,9.21,4.11,9.21,9.21h3.7Z"/></svg>