<?xml version="1.0" encoding="utf-8"?>
<!-- Generator: Adobe Illustrator 27.2.0, SVG Export Plug-In . SVG Version: 6.00 Build 0)  -->
<svg version="1.1" id="_00" xmlns="http://www.w3.org/2000/svg" xmlns:xlink="http://www.w3.org/1999/xlink" x="0px" y="0px"
	 viewBox="0 0 100 100" style="enable-background:new 0 0 100 100;" xml:space="preserve">
<path d="M47.5,14.8v-3.3h4.9v43.7l10-25.7h6.2L52.5,71v19h-4.9v-2.9c-18.8-1.2-33.8-17-33.8-36.2S28.7,16,47.5,14.8z M30.3,47.1
	v-9.6L25,32.1c-3.2,4.3-5.4,9.4-6.1,15H30.3L30.3,47.1z M30.3,65.1v-9.7H19c0.8,5.5,3,10.6,6.2,14.8L30.3,65.1L30.3,65.1z M35,30.3
	h10.9V19.9c-5.6,0.7-10.8,3-15,6.2C30.8,26.1,35,30.3,35,30.3z M35.5,71.7L31.2,76c4.3,3.1,9.3,5.3,14.7,6V71.7H35.5L35.5,71.7z
	 M35.4,67.1H36c0.3-5.3,1.3-10.2,6.7-13.1c-1-1.3-1.6-4.2-1.6-6.9c0-3.9,2.1-7.6,6.3-7.6v-4.6H35.4L35.4,67.1L35.4,67.1z M44.6,48.3
	c0,2.2,1.2,3.7,3,3.9v-8.4h-3V48.3z M44.7,66.4h2.9V63c-1.6,0-2.9,0.2-2.9,0.2V66.4L44.7,66.4z M74,65.6v-6.3L88.7,51L74,42.5V36
	l21.1,11.8v6.2C95.1,53.9,74,65.6,74,65.6z"/>
</svg>
