<?xml version="1.0" encoding="UTF-8"?><svg id="_00" xmlns="http://www.w3.org/2000/svg" viewBox="0 0 100 100"><path d="m18.51,29.51h11.18v1.64l14.8-8.55v-7.07h11.18v7.15l14.63,8.47v-1.64h11.18v11.59h-3.95v18.41h3.95v11.59h-10.77l-14.71,8.55v6.99h-11.18v-6.58l-15.54-8.96h-10.77v-11.59h3.95v-18.41h-3.95v-11.59Zm7.15,30h4.03v1.48l1.97-1.15,1.56,2.88-3.54,2.06v2.79l15.12,8.71v-1.23h3.62v-3.62h3.29v3.62h4.27v.82l14.3-8.3v-2.88l-3.53-1.97,1.64-2.88,1.89,1.15v-1.48h4.03v-18.41h-3.7l-2.22,1.31-1.64-2.79,3.53-2.05v-2.63l-14.63-8.47v.74h-3.95v3.62h-3.29v-3.62h-3.95v-.82l-14.8,8.55v2.55l3.54,2.14-1.56,2.79-2.22-1.31h-3.78v18.41Zm8.96-15.37l1.64-2.88,6.66,3.95-1.64,2.79-6.66-3.86Zm1.64,16.85l-1.64-2.79,6.66-3.95,1.64,2.88-6.66,3.86Zm8.22-16.11h11.18v11.59h-11.18v-11.59Zm7.23-2.88h-3.29v-7.73h3.29v7.73Zm0,25.98h-3.29v-7.73h3.29v7.73Zm6.99-19.97l-1.64-2.79,6.74-3.95,1.64,2.88-6.74,3.86Zm-1.64,9.12l1.64-2.88,6.74,3.95-1.64,2.79-6.74-3.86Z"/></svg>