<?xml version="1.0" encoding="UTF-8"?><svg id="_00" xmlns="http://www.w3.org/2000/svg" viewBox="0 0 100 100"><path d="m96.77,48.5v4.93h-5.84v24.74c0,4.6-2.79,7.4-7.56,7.4H16.46c-4.69,0-7.48-2.79-7.48-7.4v-24.74H3.14v-4.93h93.62ZM14.57,34.94h.41l3.04-18.5h5.1l2.96,18.5h.41l1.89-18.5h4.44l-2.88,22.44h-6.66l-2.63-16.44h-.41l-2.63,16.44h-6.74l-2.88-22.44h4.68l1.89,18.5Zm6.58,39.62v-21.13h-7.23v27.54h72.01v-27.54h-40.2v21.13h-24.58Zm23.26-39.62h.41l3.04-18.5h5.1l2.96,18.5h.41l1.97-18.5h4.36l-2.79,22.44h-6.74l-2.63-16.44h-.41l-2.63,16.44h-6.66l-2.88-22.44h4.6l1.89,18.5Zm8.55,24.17v-3.53h25.65v3.53h-25.65Zm0,7.73v-3.53h25.65v3.53h-25.65Zm0,7.64v-3.62h25.65v3.62h-25.65Zm21.12-39.54h.41l3.04-18.5h5.01l3.04,18.5h.41l1.89-18.5h4.44l-2.88,22.44h-6.66l-2.63-16.44h-.41l-2.63,16.44h-6.74l-2.88-22.44h4.69l1.89,18.5Z"/></svg>