<?xml version="1.0" encoding="UTF-8"?><svg id="_00" xmlns="http://www.w3.org/2000/svg" viewBox="0 0 100 100"><path d="m50,14.63c20.06,0,36.33,16.28,36.33,36.33s-16.28,36.41-36.33,36.41S13.58,71.1,13.58,50.96,29.86,14.63,50,14.63Zm0,67.9c17.34,0,31.48-14.14,31.48-31.56s-14.14-31.48-31.48-31.48-31.48,14.14-31.48,31.48,14.06,31.56,31.48,31.56Zm0-58.11c14.63,0,26.55,11.92,26.55,26.55s-11.92,26.63-26.55,26.63-26.63-11.92-26.63-26.63,11.92-26.55,26.63-26.55Zm4.11,18.25h11.51v-7.56h-31.24v7.56h11.51v5.01c-9.37.49-16.36,2.3-16.36,4.52s7.07,4.03,16.36,4.44v16.11h8.22v-16.11c9.37-.41,16.36-2.22,16.36-4.44s-6.99-4.03-16.36-4.52v-5.01Zm-22.6,9.12c0-1.73,6.17-3.12,14.38-3.53v5.59c.49.08,2.05.17,4.19.17,2.55,0,3.86-.08,4.03-.17v-5.59c8.22.41,14.39,1.81,14.39,3.53,0,2.96-14.55,3.62-18.5,3.62s-18.49-.66-18.49-3.62Z"/></svg>