<?xml version="1.0" encoding="UTF-8"?><svg id="_00" xmlns="http://www.w3.org/2000/svg" viewBox="0 0 100 100"><path d="m52.46,90.01h-4.93v-4.6h-31.07c-4.69,0-7.48-2.79-7.48-7.32V23.76c0-4.6,2.79-7.4,7.48-7.4h31.07v-4.85h4.93v10.77l8.22,6.49c.99-.9,2.22-1.48,3.7-1.48,1.64,0,3.12.82,4.11,2.05l8.05-3.53c0-2.38,1.89-4.27,4.19-4.27s4.19,1.89,4.19,4.19-1.89,4.19-4.19,4.19c-1.23,0-2.38-.58-3.12-1.4l-8.14,3.62.08.08c0,1.23-.33,2.22-.82,2.96l8.88,11.51c.99-.49,2.14-.74,3.45-.74,1.56,0,2.88.33,4.03.99l4.6-5.01c-.41-.58-.58-1.31-.58-2.06,0-2.3,1.89-4.19,4.19-4.19s4.19,1.89,4.19,4.19-1.89,4.19-4.19,4.19c-.49,0-.99-.08-1.4-.25l-4.77,5.18c.74,1.15,1.07,2.55,1.07,4.11,0,4.11-2.55,6.9-6.49,7.15l-3.04,14.55c.9.9,1.56,2.22,1.56,3.62,0,2.88-2.38,5.18-5.18,5.18s-5.18-2.3-5.18-5.18c0-.74.16-1.56.49-2.22l-5.42-8.22c-.74.58-1.73.82-2.79.82-2.38,0-4.52-1.73-5.01-4.03l-4.69.25v12c2.55.33,4.52,2.55,4.52,5.18s-1.97,4.85-4.52,5.18v2.63Zm-17.18-19.32l-3.86,6.74-6.82-3.04-4.52,6.41h27.46V30.91H13.91v49.9h1.23l8.05-11.67,6.66,2.96,1.97-3.62,3.86-5.92-.16-.16-4.44,1.81-1.64.49-1.4-3.95,12.17-3.78,3.78,12.49-4.03.9-.41-1.32-.99-4.69h-.25l-3.04,6.33ZM18.93,27.46c1.81,0,3.37-1.48,3.37-3.37s-1.56-3.29-3.37-3.29-3.37,1.48-3.37,3.29,1.48,3.37,3.37,3.37Zm9.04,7.32c5.92,0,10.77,4.85,10.77,10.77s-4.85,10.77-10.77,10.77-10.77-4.85-10.77-10.77,4.77-10.77,10.77-10.77Zm0,18.66c4.36,0,7.89-3.53,7.89-7.89s-3.53-7.89-7.89-7.89-7.97,3.53-7.97,7.89,3.62,7.89,7.97,7.89Zm0-12.91c2.79,0,5.01,2.22,5.01,5.01s-2.22,5.1-5.01,5.1-5.1-2.3-5.1-5.1,2.3-5.01,5.1-5.01Zm31.32-9.12l-6.82-5.34v11.67l6.82-4.19c-.08-.33-.08-.74-.08-1.07,0-.41,0-.74.08-1.07Zm-6.82,19.4l7.81,8.06c.33-.16.74-.25,1.15-.33l1.15-21.21c-.74-.25-1.4-.66-1.89-1.23l-8.22,5.1v9.62Zm0,11.34l4.85-.16c.16-.49.33-.9.66-1.32l-5.51-5.67v7.15Zm22.85-13.56l-8.8-11.43c-.33.16-.66.25-.99.33l-1.23,21.45c.41.16.82.41,1.15.66l8.8-4.03c-.25-.74-.33-1.56-.33-2.47,0-1.81.49-3.37,1.4-4.52Zm-2.96,25.4c.74-.41,1.73-.74,2.71-.74.33,0,.66.08.99.08l2.71-13.32c-1.32-.41-2.38-1.07-3.21-2.06l-8.47,3.95c.16.58.25,1.15.25,1.73,0,.82-.17,1.56-.49,2.22l5.51,8.14Zm8.71-17.51c2.05,0,3.37-1.32,3.37-3.37s-1.31-3.37-3.37-3.37-3.37,1.31-3.37,3.37,1.4,3.37,3.37,3.37Z"/></svg>