<?xml version="1.0" encoding="UTF-8"?><svg id="_00" xmlns="http://www.w3.org/2000/svg" viewBox="0 0 100 100"><path d="m87.73,85.49h-35.26v4.52h-4.93v-4.52H10.54v-51.46h8.79v-8.63h8.63v-8.88h19.56v-5.01h4.93v64.61l.08-.9c.41-4.36,6.08-6.33,9.04-6.33,1.07,3.37,4.11,6.9,8.06,6.9s6.33-3.86,7.56-6.9c2.14,0,9.29,1.31,9.7,6.82l.82,9.78Zm-40.2-38.22v-8.63H15.47v42.25h32.06v-28.44c-.82-.49-1.32-1.4-1.32-2.63,0-1.15.49-2.05,1.32-2.55Zm-25.56-.33c1.81,0,2.96,1.15,2.96,2.88s-1.15,2.96-2.96,2.96-2.96-1.15-2.96-2.96,1.23-2.88,2.96-2.88Zm2.3-12.91h23.26v-4.03h-23.26v4.03Zm.33,27.21h5.51l3.04,9.45,5.42-15.12h5.18l-8.14,21.62h-4.77l-6.25-15.95Zm6.41-19.73l14.55,9.78h-18.82v-3.45h5.75l-1.48-6.33Zm1.89-16.11h14.63v-4.27h-14.63v4.27Zm32.22,57.05c-.66-2.38-1.89-4.6-4.52-4.6-3.04,0-4.03,2.22-4.77,4.6h9.29Zm4.27-10.77c-2.71,0-5.92-3.12-7.4-8.96-2.63,0-3.04-3.53-3.04-7.4,0-5.18,3.95-7.23,7.73-7.64v-6.41h5.01v6.41c4.19.25,7.4,2.3,7.4,7.15,0,3.78-.41,7.73-2.63,7.73-.82,5.34-3.86,9.12-7.07,9.12Zm-8.47-49.73h4.85l3.29,8.88,5.75-16.03h5.01l-8.06,21.29h-5.26l-5.59-14.14Zm4.03,39.29c.41,3.78,2.55,7.15,4.44,7.15s3.78-3.37,4.52-7.15l-1.07-6.9c-1.73,2.22-4.6,3.04-7.97,3.04l.08,3.86Z"/></svg>