<?xml version="1.0" encoding="UTF-8"?><svg id="_00" xmlns="http://www.w3.org/2000/svg" viewBox="0 0 100 100"><path d="m6.43,49.65c0-2.55,1.23-3.86,3.86-3.86h30.5c2.63,0,3.86,1.31,3.86,3.86v3.45c0,2.55-1.23,3.86-3.86,3.86h-12.82v3.12h12.82c2.63,0,3.86,1.31,3.86,3.86v3.45c0,2.55-1.23,3.86-3.86,3.86h-12.82v3.04h12.82c2.63,0,3.86,1.32,3.86,3.86v3.45c0,2.55-1.23,3.86-3.86,3.86H10.29c-2.63,0-3.86-1.31-3.86-3.86v-3.45c0-2.55,1.23-3.86,3.86-3.86h12.17v-3.04h-12.17c-2.63,0-3.86-1.32-3.86-3.86v-3.45c0-2.55,1.23-3.86,3.86-3.86h12.17v-3.12h-12.17c-2.63,0-3.86-1.32-3.86-3.86v-3.45Zm12.17-28.61c-1.97,1.56-3.29,4.03-3.29,6.82,0,4.85,3.95,8.79,8.88,8.79s8.8-3.95,8.8-8.79c0-2.79-1.32-5.34-3.37-6.9l3.12-3.95c3.29,2.63,5.18,6.58,5.18,10.85,0,7.56-6.17,13.73-13.73,13.73s-13.81-6.17-13.81-13.73c0-4.19,1.89-8.14,5.1-10.77l3.12,3.95Zm-5.18,32.47c1.23,0,2.05-.82,2.05-2.14s-.82-2.14-2.05-2.14c-1.31,0-2.14.82-2.14,2.14s.82,2.14,2.14,2.14Zm0,14.3c1.23,0,2.05-.82,2.05-2.14s-.82-2.14-2.05-2.14c-1.31,0-2.14.82-2.14,2.14s.82,2.14,2.14,2.14Zm0,14.14c1.23,0,2.05-.82,2.05-2.05,0-1.32-.82-2.14-2.05-2.14-1.31,0-2.14.82-2.14,2.14,0,1.23.82,2.05,2.14,2.05ZM21.64,14.8h4.93v14.38h-4.93v-14.38Zm4.03,34.03v5.18h3.12v-5.18h-3.12Zm0,14.3v5.18h3.12v-5.18h-3.12Zm0,14.22v5.18h3.12v-5.18h-3.12Zm6.33-28.52v5.18h3.12v-5.18h-3.12Zm0,14.3v5.18h3.12v-5.18h-3.12Zm0,14.22v5.18h3.12v-5.18h-3.12Zm6.33-28.52v5.18h3.12v-5.18h-3.12Zm0,14.3v5.18h3.12v-5.18h-3.12Zm0,14.22v5.18h3.12v-5.18h-3.12Zm37.89-14.38c5.75,1.07,8.3,6,8.3,10.52v12h-32.06v4.52h-4.93V11.51h4.93v4.11h1.64c9.54.08,16.6,10.69,10.77,22.61,5.01.41,2.96,12.17-1.73,12.33l-1.15,9.78,14.22,2.63Zm-23.76-20.22v17.43c3.53-.58,5.59-2.3,6.41-5.75l.82-5.1c1.81,0,3.29-1.32,3.7-3.12.9-4.19.33-6.49-1.23-6.49-.33,0-.82.16-1.31.41,2.63-6.41.74-12.66-4.28-12.66-1.81,0-2.88,1.23-4.11,2.22v9.04c.41-.33.9-.41,1.56-.41,1.64,0,2.47.82,2.47,2.47s-.82,2.47-2.47,2.47c-.66,0-1.15-.16-1.56-.49Zm0,32.14c5.84-.99,10.36-4.52,11.26-10.11l-9.29-1.73c-.58.08-1.23.16-1.97.25v11.59Z"/></svg>