<?xml version="1.0" encoding="UTF-8"?><svg id="_00" xmlns="http://www.w3.org/2000/svg" viewBox="0 0 100 100"><path d="m50,14.63c20.06,0,36.33,16.28,36.33,36.33s-16.28,36.41-36.33,36.41S13.58,71.1,13.58,50.96,29.86,14.63,50,14.63Zm0,67.9c17.34,0,31.48-14.14,31.48-31.56s-14.14-31.48-31.48-31.48-31.48,14.14-31.48,31.48,14.06,31.56,31.48,31.56Zm0-58.11c14.63,0,26.55,11.92,26.55,26.55s-11.92,26.63-26.55,26.63-26.63-11.92-26.63-26.63,11.92-26.55,26.63-26.55Zm13.65,37.32c0-2.3-.58-4.6-1.81-6.58-1.4-2.22-4.6-4.03-7.23-4.03-.66.08-1.31.25-1.97.49l10.52-10.52-1.64-1.73h-17.18v-7.4l-1.73-.82h-4.36v1.23l1.48,1.48v5.51h-6.66v2.47h6.66v12.99c0,4.85,3.12,6.17,7.48,6.17,2.47,0,4.36-1.48,5.34-3.7.08-.25.08-.41.08-.66,0-.49-.33-1.15-.9-1.15-.08,0-.16.08-.16.08-.25.08-.33.25-.41.33-.82,1.32-2.3,2.63-3.95,2.63-2.14,0-2.88-1.81-2.88-3.7v-12.99h12.99l-9.45,12.49v1.07l2.14-1.07c1.15-.58,2.06-.9,2.88-.9,4.6,0,6.25,4.27,6.25,8.3s-1.48,8.38-6.25,8.38c-1.48,0-3.78-.33-4.68-1.56,1.23-.41,1.81-1.56,1.81-2.71,0-1.73-1.07-2.88-2.88-2.88s-2.79,1.15-2.79,2.88c0,4.77,4.36,6.74,8.55,6.74,6.49,0,10.77-4.11,10.77-10.85Z"/></svg>