<?xml version="1.0" encoding="UTF-8"?><svg id="_00" xmlns="http://www.w3.org/2000/svg" viewBox="0 0 100 100"><path d="m50,14.63c20.06,0,36.33,16.28,36.33,36.33s-16.28,36.41-36.33,36.41S13.58,71.1,13.58,50.97,29.86,14.63,50,14.63Zm0,67.9c17.34,0,31.48-14.14,31.48-31.56s-14.14-31.48-31.48-31.48-31.48,14.14-31.48,31.48,14.06,31.56,31.48,31.56Zm0-58.11c14.63,0,26.55,11.92,26.55,26.55s-11.92,26.63-26.55,26.63-26.63-11.92-26.63-26.63,11.92-26.55,26.63-26.55Zm-17.75,21.37l-5.1,5.18,5.1,5.1,5.18-5.1-5.18-5.18Zm31.56-3.62l-13.97-13.97-13.97,13.97,5.18,5.18,8.79-8.88,8.88,8.88,5.1-5.18Zm-5.1,12.41l-8.88,8.8-8.79-8.8-5.18,5.18,13.97,13.89,13.97-13.97-5.1-5.1Zm-8.88,1.56l5.26-5.18-5.26-5.18-5.18,5.18,5.18,5.18Zm17.59-10.36l-5.1,5.18,5.1,5.1,5.18-5.1-5.18-5.18Z"/></svg>