<?xml version="1.0" encoding="UTF-8"?><svg id="_00" xmlns="http://www.w3.org/2000/svg" viewBox="0 0 100 100"><path d="m91.26,79.98c0,4.6-2.79,7.4-7.56,7.4h-31.24v2.63h-4.93v-4.52H14.65v-12c0-4.52,2.55-9.45,8.3-10.52l14.22-2.63-1.15-9.78c-4.69-.17-6.74-11.92-1.73-12.33-5.84-11.92,1.23-22.52,10.77-22.61h2.47v-4.11h4.93v3.29h31.24c4.77,0,7.56,2.79,7.56,7.4v57.79Zm-48.58-39.21c0-1.64.82-2.47,2.46-2.47,1.32,0,2.22.58,2.38,1.81v-9.78c-1.56-1.07-2.71-2.88-4.93-2.88-5.01,0-6.91,6.25-4.27,12.66-.49-.25-.99-.41-1.31-.41-1.56,0-2.14,2.3-1.23,6.49.41,1.81,1.89,3.12,3.7,3.12l.82,5.1c.9,3.7,3.21,5.42,7.23,5.84v-18.91c-.17,1.23-1.07,1.89-2.38,1.89-1.64,0-2.46-.9-2.46-2.47Zm4.85,22.52c-1.07,0-1.97-.16-2.88-.25l-9.21,1.73c.9,5.92,5.84,9.45,12.08,10.19v-11.67Zm4.93,19.48h33.87V19.4h-33.87v36.58h16.11v4.6h-16.11v7.07h5.59v4.6h-5.59v10.52Zm16.6-59.18c7.64,0,13.81,6.25,13.81,13.89s-6.17,13.81-13.81,13.81-13.81-6.25-13.81-13.81,6.16-13.89,13.81-13.89Zm-7.32,12.41c.25-.9.58-1.73.99-2.55l-2.22-2.22c-.99,1.4-1.64,2.96-1.89,4.77h3.12Zm1.15,5.51c-.49-.66-.82-1.48-1.07-2.38h-3.12c.25,1.73.9,3.29,1.97,4.6l2.22-2.22Zm-.25,24.82l4.69-1.56,3.29,6,6.33-13.89,4.52,2.38-8.88,18.91h-3.7l-6.25-11.84Zm2.38-35.1c.74-.49,1.56-.9,2.47-1.07v-3.12c-1.73.25-3.37.9-4.68,1.97l2.22,2.22Zm2.47,13.48c-.82-.17-1.64-.49-2.38-.99l-2.22,2.22c1.31.99,2.88,1.64,4.6,1.89v-3.12Zm7.89-15.7c-1.32-1.07-2.96-1.73-4.69-1.97v3.12c.9.17,1.73.58,2.47,1.07l2.22-2.22Zm-4.69,18.82c1.64-.25,3.21-.9,4.52-1.89l-2.22-2.22c-.66.49-1.48.82-2.3.99v3.12Zm6.82-4.11c.99-1.32,1.64-2.88,1.97-4.6h-3.21c-.16.9-.49,1.64-.99,2.38l2.22,2.22Zm1.97-7.73c-.25-1.81-.9-3.37-1.89-4.77l-2.22,2.3c.49.74.82,1.56.99,2.47h3.12Z"/></svg>