<?xml version="1.0" encoding="UTF-8"?><svg id="_00" xmlns="http://www.w3.org/2000/svg" viewBox="0 0 100 100"><path d="m36.02,39.87v4.52l-1.15.08c-3.45,0-5.92,2.14-5.92,7.23v2.3c0,3.29,2.22,6.58,7.73,6.58h14.14c5.26,0,5.59-1.89,5.59-3.45v-4.52c0-2.63-1.07-3.45-3.45-3.45h-4.69v-4.52h4.69c4.52,0,7.97,2.55,7.97,7.97v4.52c0,4.6-2.96,7.97-10.11,7.97h-14.14c-8.06,0-12.17-5.34-12.17-11.1v-.99h-7.64v3.78H5.69v-11.59h11.18v3.7h7.81c.9-5.42,4.52-8.96,10.19-8.96l1.15-.08Zm27.87,22.19l-.08-4.52h1.07c3.53-.08,5.92-2.22,5.92-7.32v-2.3c0-3.21-2.3-6.58-7.73-6.58h-15.62c-3.21,0-4.03,1.56-4.03,3.54v4.44c0,2.63,1.07,3.45,3.37,3.45h4.6v4.52h-4.6c-4.44,0-7.89-2.55-7.89-7.97v-4.44c0-4.36,2.71-8.06,8.55-8.06h15.62c7.89,0,12.25,5.34,12.25,11.1v.99h10.11c.74-2.14,2.63-3.53,5.26-3.53,3.29,0,5.51,2.22,5.51,5.59s-2.22,5.59-5.51,5.59c-2.63,0-4.52-1.4-5.26-3.54h-10.36c-.9,5.43-4.52,8.96-10.11,9.04h-1.07Z"/></svg>