<?xml version="1.0" encoding="UTF-8"?><svg id="_00" xmlns="http://www.w3.org/2000/svg" viewBox="0 0 100 100"><polygon points="71.94 48.01 68.49 44.55 64.96 48.09 77.29 60.42 89.62 48.09 86.08 44.55 82.63 48.09 79.51 51.71 79.34 51.62 79.75 44.64 79.75 35.92 89.45 35.92 77.29 14.8 65.12 35.92 74.74 35.92 74.74 44.64 75.23 51.62 74.99 51.71 71.94 48.01"/><polygon points="32.82 29.59 45.15 29.59 52.13 29.18 52.22 29.35 48.6 32.47 45.06 35.92 48.6 39.46 60.93 27.13 48.6 14.8 45.06 18.33 48.6 21.79 52.22 24.83 52.13 25.07 45.15 24.58 32.82 24.58 32.82 17.76 14.82 17.76 14.82 36.5 32.82 36.5 32.82 29.59"/><path d="m76.88,64.61c-5.51,0-9.45,3.21-10.27,8.14h-11.02l-7.07.49-.08-.25,3.7-3.04,3.45-3.45-3.53-3.53-12.33,12.33,12.33,12.33,3.53-3.53-3.45-3.45-3.7-3.12.08-.16,7.07.41h11.1c.99,4.77,4.85,7.81,10.19,7.81,6.25,0,10.44-4.19,10.44-10.52s-4.19-10.44-10.44-10.44Z"/><polygon points="34.54 50.06 24.52 78.67 17.36 62.39 10.46 62.39 22.13 87.3 27.64 87.3 41.04 50.06 34.54 50.06"/></svg>