<?xml version="1.0" encoding="UTF-8"?><svg id="_00" xmlns="http://www.w3.org/2000/svg" viewBox="0 0 100 100"><path d="m50,14.63c20.06,0,36.33,16.28,36.33,36.33s-16.28,36.41-36.33,36.41S13.58,71.1,13.58,50.96,29.86,14.63,50,14.63Zm0,67.9c17.34,0,31.48-14.14,31.48-31.56s-14.14-31.48-31.48-31.48-31.56,14.14-31.56,31.48,14.14,31.56,31.56,31.56Zm-14.14-26.88c0-11.43,7.73-20.55,14.38-24.82h8.47c-9.12,6.49-14.3,11.67-16.28,20.22l.41.08c1.64-3.12,4.36-5.75,9.37-5.75,6.74,0,11.75,4.77,11.75,12.25,0,7.89-5.51,13.4-14.06,13.4s-14.06-5.92-14.06-15.37Zm21.62,2.79v-.58c0-4.77-2.79-7.48-7.56-7.48s-7.56,2.71-7.56,7.48v.58c0,4.77,2.79,7.48,7.56,7.48s7.56-2.71,7.56-7.48Z"/></svg>