<?xml version="1.0" encoding="UTF-8"?><svg id="_00" xmlns="http://www.w3.org/2000/svg" viewBox="0 0 100 100"><path d="m84.19,78.17c0,4.52-2.71,7.31-7.56,7.31H22.71c-4.69,0-7.48-2.79-7.48-7.31V23.84c0-4.6,2.79-7.4,7.48-7.4h53.92c4.85,0,7.56,2.79,7.56,7.4v54.33Zm-16.6-14.88c0-2.88-.74-5.67-2.3-8.05-1.64-2.71-5.59-5.01-8.79-5.01-.82.08-1.64.25-2.47.58l12.99-12.91-2.14-2.14-21.12.08v-9.12l-2.05-1.07h-5.43v1.56l1.89,1.81v6.82h-8.14v2.96h8.14v16.03c0,5.92,3.78,7.56,9.21,7.56,3.04,0,5.34-1.89,6.58-4.52.08-.33.08-.58.16-.82,0-.41-.16-.82-.41-1.15-.33-.17-.58-.25-.82-.25-.08,0-.25,0-.33.08-.16.08-.25.25-.33.41-1.07,1.56-2.88,3.21-4.85,3.21-2.71,0-3.62-2.22-3.62-4.52v-16.03h16.03l-11.59,15.37v1.32l2.63-1.32c1.4-.74,2.55-1.15,3.45-1.15,5.75,0,7.73,5.26,7.73,10.28s-1.81,10.28-7.73,10.28c-1.73,0-4.52-.41-5.67-1.89,1.48-.49,2.22-1.89,2.22-3.37,0-2.05-1.4-3.45-3.53-3.45s-3.53,1.31-3.53,3.45.82,3.95,2.55,5.67c1.64,1.81,4.36,2.63,7.97,2.63,8.05,0,13.32-5.01,13.32-13.32Z"/></svg>