<?xml version="1.0" encoding="UTF-8"?><svg id="_00" xmlns="http://www.w3.org/2000/svg" viewBox="0 0 100 100"><path d="m74,24.58l-42.58,62.8-4.11-2.71,2.55-3.7c-13.56-4.85-22.6-17.75-22.6-32.14,0-18.91,15.29-34.19,34.2-34.19,9.86,0,19.07,4.19,25.56,11.51l2.96-4.27,4.03,2.71Zm-41.51,52.44l2.71-4.03c-11.02-2.79-18.74-12.74-18.74-24.17,0-13.81,11.18-24.99,24.99-24.99,8.06,0,15.45,3.78,20.22,10.27l2.71-4.03c-5.67-6.9-13.97-10.85-22.93-10.85-16.36,0-29.59,13.23-29.59,29.59,0,12.91,8.38,24.33,20.63,28.19Zm-3.45-45.29v6h24.66v-6h-24.66Zm0,28.36v6h10.85l4.11-6h-14.96Zm3.04-14.63v6.08h17.75l.74-1.15v-4.93h-18.5Zm36.17,17.26c3.78,0,6.74,2.96,6.74,6.74s-2.96,6.74-6.74,6.74-6.74-3.04-6.74-6.74,3.04-6.74,6.74-6.74Z"/></svg>