<?xml version="1.0" encoding="UTF-8"?><svg id="_00" xmlns="http://www.w3.org/2000/svg" viewBox="0 0 100 100"><path d="m50,14.71c19.97,0,36.25,16.19,36.25,36.25s-16.28,36.25-36.25,36.25S13.66,71.02,13.66,50.96,29.94,14.71,50,14.71Zm-26.14,32.39c.58-4.27,2.22-8.14,4.6-11.51l-3.54-3.45c-3.21,4.27-5.34,9.37-6.08,14.96h5.01Zm4.85,19.56c-2.38-3.29-4.11-7.07-4.77-11.26h-5.01c.82,5.51,3.04,10.6,6.25,14.79l3.54-3.53Zm5.59-36.99c3.37-2.47,7.32-4.19,11.51-4.85v-4.93c-5.59.74-10.69,2.96-14.96,6.25l3.45,3.54Zm-3.12,46.36c4.19,3.12,9.21,5.26,14.63,6v-4.93c-4.11-.66-7.89-2.3-11.18-4.6l-3.45,3.53Zm6.33-25.07l12.58,12.49,12.49-12.49-12.49-12.58-12.58,12.58Zm16.69-26.14c4.27.66,8.22,2.38,11.51,4.85l3.53-3.54c-4.27-3.29-9.45-5.51-15.04-6.25v4.93Zm0,57.21c5.42-.74,10.44-2.88,14.63-6l-3.45-3.53c-3.29,2.3-7.07,3.95-11.18,4.6v4.93Zm20.63-11.92c3.21-4.19,5.43-9.21,6.25-14.71h-5.01c-.66,4.19-2.38,7.97-4.77,11.26l3.53,3.45Zm6.33-23.02c-.74-5.59-2.88-10.69-6.08-14.96l-3.53,3.45c2.38,3.37,4.03,7.23,4.6,11.51h5.01Z"/></svg>