<?xml version="1.0" encoding="UTF-8"?><svg id="_00" xmlns="http://www.w3.org/2000/svg" viewBox="0 0 100 100"><path d="m84.19,78.17c0,4.52-2.71,7.32-7.56,7.32H22.71c-4.69,0-7.48-2.79-7.48-7.32V23.84c0-4.6,2.79-7.4,7.48-7.4h53.92c4.85,0,7.56,2.79,7.56,7.4v54.33ZM28.79,35.92c-1.23,0-2.63,1.07-2.79,5.92-.33,6.74-.33,19.89,2.79,26.06.58.99,1.23,1.4,2.05,1.4,1.07,0,2.47-.74,4.28-2.06,2.88-2.14,13.23-11.67,17.59-15.86,3.29-3.12,9.21-10.77,12.66-10.77,1.07,0,1.97.82,2.38,2.79.82,3.45,1.64,6.33.99,13.89-.16,1.48-.58,2.71-1.97,2.71-.82,0-2.05-.49-3.78-1.73-3.45-2.22-6.74-4.6-6.74-4.6,0,0-.25-.33-.66-.33-.33,0-.82.16-1.48.99-1.15,1.48-1.73,1.89.08,2.96,1.89,1.15,11.43,7.73,15.12,8.71.82.25,1.64.41,2.22.41,1.64,0,2.55-1.15,2.63-5.43,0-4.77-.33-18.25-2.05-23.92-.74-2.14-1.73-3.62-3.29-3.62-1.07,0-2.38.74-4.03,2.38-3.29,3.29-26.96,26.39-30.25,26.39-.9,0-1.73-.9-2.38-3.29-1.15-4.03-2.55-15.95,1.15-15.95.33,0,.74.08,1.15.33,3.21,1.48,4.77,1.48,3.54,2.47-1.23.9-4.85,4.19-4.85,4.19,0,0-1.15.9-.58,2.88.25.66.41,1.15.82,1.15s1.07-.49,2.47-1.73c2.79-2.63,4.85-4.6,4.85-4.6,0,0,.41-.74,1.73.58,1.32,1.23,1.56,1.64,1.56,1.64,0,0,.08.25.41.25.25,0,.66-.16,1.32-.99,1.4-1.64,2.3-2.63-.33-4.19-2.71-1.56-14.71-8.3-14.71-8.3,0,0-.9-.74-1.89-.74Z"/></svg>