<?xml version="1.0" encoding="UTF-8"?><svg id="_00" xmlns="http://www.w3.org/2000/svg" viewBox="0 0 100 100"><path d="m52.46,78.75v11.26h-4.93v-4.52H14.65v-12c0-4.52,2.63-9.45,8.3-10.52l14.22-2.63-.9-8.22h-1.32c-3.04,0-4.27-1.07-4.27-3.37v-11.26c0-1.73.66-2.79,2.22-3.04-2.88-10.36,3.7-18.74,12.17-18.82h2.47v-4.11h4.93v45.62c.74-.17,1.48-.17,2.14-.17,3.95.17,7.64,1.64,10.69,5.84l9.21.82c1.31.08,2.55.49,3.45,1.15,2.71-1.15,7.15-2.88,10.11-2.88,4.6,0,8.22,3.86,8.22,7.89,0,.49.08,2.88-1.81,3.7l-24.25,10.85c-1.48.74-3.53,1.23-5.51,1.23-1.4,0-2.71-.25-3.7-.9-2.55-1.64-6-4.11-8.55-5.92Zm-18-30.41h13.07v-10.11h-13.07v10.11Zm13.07,14.96c-1.07,0-1.97-.16-2.79-.25l-9.29,1.73c.9,5.84,5.84,9.45,12.08,10.19v-11.67Zm0-28.93v-4.03c-1.56-1.07-2.71-2.88-4.93-2.88-3.62,0-5.67,3.04-5.42,6.9h10.36Zm0,17.75h-7.64l.25,1.73c.82,4.03,3.21,5.92,7.4,6.41v-8.14Zm18,26.14l-2.38-2.96,1.56-1.07-9.95-2.55.9-3.62,16.36,3.86c.49.16.99.16,1.48.16,1.56,0,2.79-.74,2.96-1.97.16-1.23-.66-2.71-2.22-2.88l-7.81-.57c-2.47-.17-3.37-.82-4.44-1.89-2.63-2.71-4.44-3.29-7.15-3.29-.82,0-1.56,0-2.38.17l-.08,12c1.89,1.48,5.92,4.36,9.29,6.66,1.15.82,2.71,1.15,4.27,1.15,1.23,0,2.38-.16,3.29-.66,7.23-3.7,15.45-7.23,22.93-10.44-.66-2.96-2.38-4.44-4.6-4.44-.58,0-1.15.16-1.81.33-1.97.66-3.45,1.23-5.34,1.81.08.33.16.58.16.9,0,5.34-3.78,6.99-7.48,6.99-1.15,0-2.3-.16-3.29-.41l-4.27,2.71Zm8.71-63.79c9.21,0,16.69,7.48,16.69,16.69s-7.48,16.69-16.69,16.69-16.61-7.48-16.61-16.69,7.48-16.69,16.61-16.69Zm-9.12,15.78c.16-1.97.99-3.86,2.3-5.26l-2.71-2.55c-1.81,2.05-3.04,4.6-3.29,7.48l3.7.33Zm-2.63,6.25c1.97,4.52,6.49,7.64,11.75,7.64,2.71,0,5.26-.82,7.31-2.22l-2.14-3.12c-1.48,1.07-3.21,1.64-5.18,1.64-3.7,0-6.99-2.22-8.38-5.51l-3.37,1.56Zm24.74-5.26c0-7.15-5.84-12.99-12.99-12.99-1.07,0-2.22.16-3.29.41l.99,3.62c.74-.25,1.48-.33,2.3-.33,5.1,0,9.29,4.11,9.29,9.29h3.7Z"/></svg>