<?xml version="1.0" encoding="UTF-8"?><svg id="_00" xmlns="http://www.w3.org/2000/svg" viewBox="0 0 100 100"><path d="m52.46,75.46v14.55h-4.93v-4.52H13.5V16.36h34.03v-4.85h4.93v42.25c.74-.08,1.4-.16,2.05-.16,3.95.16,7.64,1.64,10.69,5.92l9.12.74c1.4.08,2.55.58,3.53,1.15,2.71-1.15,7.07-2.79,10.03-2.79,4.69,0,8.3,3.78,8.3,7.81,0,.58.08,2.88-1.81,3.78l-24.33,10.85c-1.56.66-3.7,1.23-5.67,1.23-1.31,0-2.55-.25-3.45-.9l-8.47-5.92Zm-17.43-45.7h12.49v-8.8h-29.1v59.92h29.1v-10.03h-4.19v-4.77h4.19v-7.23h-4.19v-4.77h4.19v-7.32h-4.19v-4.77h4.19v-8.47h-12.49v-3.78Zm-7.64,18.5c-2.38,0-4.03-1.56-4.03-4.03s1.64-3.95,4.03-3.95,4.03,1.56,4.03,3.95-1.64,4.03-4.03,4.03Zm0,12.08c-2.38,0-4.03-1.56-4.03-4.03s1.64-3.95,4.03-3.95,4.03,1.56,4.03,3.95-1.64,4.03-4.03,4.03Zm0,12.08c-2.38,0-4.03-1.56-4.03-4.03s1.64-3.95,4.03-3.95,4.03,1.56,4.03,3.95-1.64,4.03-4.03,4.03Zm.08-36.25c-2.38,0-4.03-1.64-4.03-4.03s1.64-4.03,4.03-4.03,4.03,1.64,4.03,4.03-1.64,4.03-4.03,4.03Zm12.9,10.6h-5.34v-4.77h5.34v4.77Zm0,12.08h-5.34v-4.77h5.34v4.77Zm0,12h-5.34v-4.77h5.34v4.77Zm24.99,4.03l-2.38-2.96,1.64-1.07-9.95-2.55.9-3.62,16.28,3.86c.58.16,1.07.16,1.56.16,1.56,0,2.79-.66,2.96-1.97.16-1.15-.66-2.71-2.22-2.88l-7.81-.49c-2.47-.16-3.37-.82-4.44-1.97-2.79-2.88-4.77-3.29-7.81-3.21-.58,0-1.15,0-1.64.08l-.16,12.17,9.21,6.58c1.07.74,2.63,1.07,4.11,1.07,1.23,0,2.55-.25,3.45-.66l23.02-10.44c-.66-2.96-2.46-4.44-4.6-4.44-.58,0-1.23.16-1.81.33l-5.34,1.89c.08.25.08.58.08.82,0,5.34-3.7,6.99-7.4,6.99-1.15,0-2.3-.16-3.29-.41l-4.36,2.71Zm8.55-27.45c-7.56,0-13.81-6.25-13.81-13.81s6.25-13.81,13.81-13.81,13.81,6.16,13.81,13.81-6.17,13.81-13.81,13.81Zm0-24.33c-5.84,0-10.52,4.69-10.52,10.52s4.69,10.52,10.52,10.52,10.52-4.77,10.52-10.52-4.68-10.52-10.52-10.52Zm0,17.92c-4.11,0-7.4-3.29-7.4-7.4s3.29-7.48,7.4-7.48,7.48,3.37,7.48,7.48-3.37,7.4-7.48,7.4Z"/></svg>