<?xml version="1.0" encoding="UTF-8"?><svg id="_00" xmlns="http://www.w3.org/2000/svg" viewBox="0 0 100 100"><path d="m6.02,85.49v-5.01l2.14-3.86c2.55-4.69,7.48-7.56,12.17-7.56,1.4,0,3.04.66,4.44,1.32-.25-1.48-.16-3.95.58-5.51,1.64-3.7,6.58-4.93,10.03-4.93v-2.63h-3.7c-3.7,0-6.58-1.4-6.16-5.92l.33-3.86-1.4.08c-2.79.25-4.19-2.38-3.21-5.1l4.77-13.32-9.45-7.64c6.66-3.95,14.8-6.74,23.76-6.74,2.47,0,4.93.25,7.23.66v-3.95h4.93v10.6l8.22,6.66c.99-.9,2.22-1.48,3.7-1.48,1.64,0,3.12.82,4.11,2.05l8.05-3.53c0-2.38,1.89-4.27,4.19-4.27s4.19,1.89,4.19,4.19-1.89,4.19-4.19,4.19c-1.23,0-2.38-.58-3.12-1.4l-8.14,3.62q.08.16.08.33c0,.99-.33,1.97-.82,2.71l8.88,11.51c.99-.49,2.14-.74,3.45-.74,1.56,0,2.88.33,4.03.99l4.6-5.01c-.41-.58-.58-1.31-.58-2.06,0-2.3,1.89-4.19,4.19-4.19s4.19,1.89,4.19,4.19-1.89,4.19-4.19,4.19c-.49,0-.99-.08-1.4-.25l-4.77,5.18c.74,1.15,1.07,2.55,1.07,4.11,0,4.11-2.55,6.9-6.49,7.15l-3.04,14.55c.9.9,1.56,2.22,1.56,3.62,0,2.88-2.38,5.18-5.18,5.18s-5.18-2.3-5.18-5.18c0-.74.16-1.56.49-2.22l-5.42-8.22c-.74.58-1.73.82-2.79.82-2.38,0-4.52-1.73-5.01-4.03l-4.69.25v12c2.55.33,4.52,2.55,4.52,5.18s-1.97,4.85-4.52,5.18v2.63h-4.93v-4.52H6.02Zm3.54-3.86h27.04v-5.43c-9.29,0-11.18-3.04-16.19-3.04-3.86,0-8.22,2.63-10.85,8.47Zm30.25-7.56l7.73-9.53v-14.3c-1.07-.41-1.73-1.4-1.73-2.55s.74-2.14,1.73-2.47v-20.3c-6.66.33-9.37,2.71-13.15,6.49h-4.85l-4.27,12.74h4.11l-.33,9.12,5.75.25c3.62.25,5.01,2.14,5.01,4.77v15.78Zm-5.1-33.45c0-1.89,1.15-2.96,2.96-2.96s2.96,1.07,2.96,2.96-1.15,2.96-2.96,2.96-2.96-1.07-2.96-2.96Zm24.58-9.21l-6.82-5.34v11.67l6.82-4.19c-.08-.33-.08-.74-.08-1.07,0-.41,0-.74.08-1.07Zm-6.82,19.4l7.81,8.06c.33-.16.74-.25,1.15-.33l1.15-21.21c-.74-.25-1.4-.66-1.89-1.23l-8.22,5.1v9.62Zm0,4.19v7.15l4.85-.16c.16-.49.33-.9.66-1.32l-5.51-5.67Zm22.85-6.41l-8.8-11.43c-.33.16-.66.25-.99.33l-1.23,21.45c.41.16.82.41,1.15.66l8.8-4.03c-.25-.74-.33-1.56-.33-2.47,0-1.81.49-3.37,1.4-4.52Zm-2.96,25.4c.74-.41,1.73-.74,2.71-.74.33,0,.66.08.99.08l2.71-13.32c-1.32-.41-2.38-1.07-3.21-2.06l-8.47,3.95c.16.58.25,1.15.25,1.73,0,.82-.17,1.56-.49,2.22l5.51,8.14Zm8.71-17.51c2.05,0,3.37-1.32,3.37-3.37s-1.31-3.37-3.37-3.37-3.37,1.31-3.37,3.37,1.4,3.37,3.37,3.37Z"/></svg>