<?xml version="1.0" encoding="UTF-8"?><svg id="_00" xmlns="http://www.w3.org/2000/svg" viewBox="0 0 100 100"><path d="m34.13,38.72c2.63,0,4.85.66,6.66,1.81l11.26-13.48c-.66-.99-.99-2.22-.99-3.62,0-3.86,3.12-6.99,6.99-6.99s7.07,3.12,7.07,6.99-3.21,7.07-7.07,7.07c-.99,0-1.97-.25-2.79-.58l-11.34,13.97c0,.08.08.25.16.33l32.88-4.44c.74-3.12,3.53-5.51,6.91-5.51,3.86,0,6.99,3.21,6.99,7.07s-3.12,7.07-6.99,7.07c-2.96,0-5.51-1.89-6.58-4.44l-31.98,4.6c.08.49.08.9.08,1.31,0,1.89-.33,3.53-.99,5.01l18.5,12.91c1.15-.82,2.63-1.31,4.11-1.31,3.95,0,7.07,3.12,7.07,6.99s-3.12,7.07-7.07,7.07-6.99-3.12-6.99-7.07c0-.82.16-1.64.41-2.38l-18.41-12.82c-1.89,1.81-4.6,2.88-7.89,2.88-1.97,0-3.78-.41-5.34-1.15l-5.1,14.14c1.97,1.31,3.29,3.45,3.29,6,0,3.86-3.21,6.99-7.07,6.99s-7.07-3.12-7.07-6.99,2.88-6.74,6.49-6.99l6-15.86c-1.56-1.89-2.38-4.44-2.38-7.4,0-6.74,4.44-11.18,11.18-11.18Zm0,17.51c3.78,0,6.33-2.55,6.33-6.33s-2.55-6.25-6.33-6.25-6.25,2.47-6.25,6.25,2.47,6.33,6.25,6.33Z"/></svg>