<?xml version="1.0" encoding="UTF-8"?><svg id="_00" xmlns="http://www.w3.org/2000/svg" viewBox="0 0 100 100"><path d="m40.05,85.49H12.68l2.71-21.62,18.33-3.21v10.19l6.33,14.63Zm-2.3-29.76l-1.07-2.47c-5.51-1.07-12.74-4.11-9.21-12.82l5.18-12.74c0-6.82,4.28-12.17,12-12.17h9.86c7.48,0,12.25,5.18,12.25,11.92l4.6,12.25c3.7,9.78-2.88,12-8.71,12.74l-.9,3.29-8.63,8.96h-7.32l-8.06-8.96Zm1.73-2.88l7.64,8.55h4.28l8.05-8.3.74-3.78c1.89,0,4.19-2.14,4.6-3.95.9-3.7-.08-5.43-1.73-5.43-.41,0-.82.08-1.23.25l-1.48-13.56c-4.19,4.03-15.12,5.75-22.03,5.26l-.58,8.22c-.33-.16-.66-.25-.99-.25-1.4,0-2.14,1.64-2.06,3.53.08,3.04,2.3,5.92,4.44,6l.33,3.45Zm7.32-12.08c0,1.56-.82,2.47-2.47,2.47s-2.47-.9-2.47-2.47c0-1.64.9-2.47,2.47-2.47,1.64,0,2.47.82,2.47,2.47Zm4.6,26.55l3.53,4.36-3.21,2.47,2.47,11.34h-9.86l2.71-11.43-3.04-2.38,3.54-4.36h3.86Zm.66-26.55c0-1.64.9-2.47,2.47-2.47,1.64,0,2.47.82,2.47,2.47s-.82,2.47-2.47,2.47-2.47-.9-2.47-2.47Zm14.47,19.81l17.26,3.37,3.29,21.54h-26.71l6.17-14.71v-10.19Z"/></svg>