<?xml version="1.0" encoding="UTF-8"?><svg id="_00" xmlns="http://www.w3.org/2000/svg" viewBox="0 0 100 100"><path d="m4.05,72.42v-4.52h7.81v-7.73h4.93v7.73h7.64v4.52h-7.64v8.63h-4.93v-8.63h-7.81Zm70.61,13.07H27.23v-51.46h8.8v-8.63h8.63v-8.88h51.54v27.78h-4.93v-23.18h-41.67v4.27h37.98v33.13h-4.93v-28.52h-41.67v4.03h37.73v30.66h-4.93v-26.06h-41.59v42.25h42.5v4.6Zm-35.43-39.29c1.73,0,2.88,1.23,2.88,2.96s-1.15,2.96-2.88,2.96-2.96-1.15-2.96-2.96,1.15-2.96,2.96-2.96Zm0,8.63c1.73,0,2.88,1.15,2.88,2.88s-1.15,2.96-2.88,2.96-2.96-1.15-2.96-2.96,1.15-2.88,2.96-2.88Zm0,8.71c1.73,0,2.88,1.15,2.88,2.96s-1.15,2.96-2.88,2.96-2.96-1.23-2.96-2.96,1.15-2.96,2.96-2.96Zm0,8.38c1.73,0,2.88,1.23,2.88,2.96s-1.15,2.96-2.88,2.96-2.96-1.15-2.96-2.96,1.15-2.96,2.96-2.96Zm4.52-16.03h4.6v3.78h-4.6v-3.78Zm0,8.71h4.6v3.78h-4.6v-3.78Zm0,8.47h4.6v3.78h-4.6v-3.78Zm4.44-32.22l14.55,9.7h-18.82v-3.37h5.84l-1.56-6.33Zm2.79,15.04h4.6v3.78h-4.6v-3.78Zm0,8.71h4.6v3.78h-4.6v-3.78Zm0,8.47h4.6v3.78h-4.6v-3.78Zm6.99-17.18h4.6v3.78h-4.6v-3.78Zm0,8.71h4.6v3.78h-4.6v-3.78Zm0,8.47h4.6v3.78h-4.6v-3.78Zm9.29-26.88c1.73,0,2.96,1.23,2.96,2.96s-1.23,2.96-2.96,2.96-2.96-1.15-2.96-2.96,1.15-2.96,2.96-2.96Zm0,8.63c1.73,0,2.96,1.15,2.96,2.88s-1.23,2.96-2.96,2.96-2.96-1.15-2.96-2.96,1.15-2.88,2.96-2.88Zm0,8.71c1.73,0,2.96,1.15,2.96,2.96s-1.23,2.96-2.96,2.96-2.96-1.23-2.96-2.96,1.15-2.96,2.96-2.96Zm0,8.38c1.73,0,2.96,1.23,2.96,2.96s-1.23,2.96-2.96,2.96-2.96-1.15-2.96-2.96,1.15-2.96,2.96-2.96Zm7.81-2.38h5.42l3.04,9.53,9.04-24.91h5.1l-11.59,31.32h-4.77l-6.25-15.95Z"/></svg>