<?xml version="1.0" encoding="UTF-8"?><svg id="_00" xmlns="http://www.w3.org/2000/svg" viewBox="0 0 100 100"><path d="m12.19,25.48c-1.97,1.56-3.21,4.03-3.21,6.82,0,4.85,3.95,8.8,8.79,8.8s8.88-3.95,8.88-8.8c0-2.79-1.32-5.34-3.37-6.9l3.12-3.95c3.29,2.63,5.18,6.66,5.18,10.85,0,7.56-6.17,13.73-13.81,13.73s-13.73-6.17-13.73-13.73c0-4.19,1.89-8.14,5.1-10.77l3.04,3.95Zm-3.21,45.46c0,4.93,3.95,8.88,8.79,8.88s8.8-3.95,8.8-8.88-3.7-8.55-8.38-8.79v-5.01c7.4.16,13.4,6.25,13.4,13.81s-6.17,13.73-13.81,13.73-13.73-6.17-13.73-13.73h4.93Zm5.1-7.32h4.11v7.07h5.92v3.78h-10.03v-10.85Zm1.23-44.39h4.93v14.38h-4.93v-14.38Zm21.7,2.06c0-3.21,1.56-4.93,4.93-4.93h44.14c3.37,0,4.93,1.73,4.93,4.93v11.43c0,3.21-1.56,4.93-4.93,4.93h-17.1v2.63h17.1c3.37,0,4.93,1.64,4.93,4.93v11.43c0,3.21-1.56,4.85-4.93,4.85h-17.1v2.79h17.1c3.37,0,4.93,1.64,4.93,4.93v11.43c0,3.21-1.56,4.85-4.93,4.85h-44.14c-3.37,0-4.93-1.64-4.93-4.85v-11.43c0-3.29,1.56-4.93,4.93-4.93h14.3v-2.79h-14.3c-3.37,0-4.93-1.64-4.93-4.85v-11.43c0-3.29,1.56-4.93,4.93-4.93h14.3v-2.63h-14.3c-3.37,0-4.93-1.73-4.93-4.93v-11.43Zm5.01,11.67h44.06v-12h-44.06v12Zm0,23.92h44.06v-12h-44.06v12Zm0,24h44.06v-12h-44.06v12Zm5.43-56.72c1.64,0,2.79,1.07,2.79,2.88,0,1.64-1.15,2.71-2.79,2.71-1.73,0-2.79-1.07-2.79-2.71,0-1.81,1.07-2.88,2.79-2.88Zm0,23.92c1.64,0,2.79,1.07,2.79,2.79s-1.15,2.79-2.79,2.79c-1.73,0-2.79-1.15-2.79-2.79,0-1.73,1.07-2.79,2.79-2.79Zm0,24.17c1.64,0,2.79,1.07,2.79,2.88,0,1.64-1.15,2.71-2.79,2.71-1.73,0-2.79-1.07-2.79-2.71,0-1.81,1.07-2.88,2.79-2.88Zm18.41-48.33h3.29v6.08h-3.29v-6.08Zm0,23.92h3.29v6.08h-3.29v-6.08Zm0,24h3.29v6.08h-3.29v-6.08Zm6.9-47.92h3.29v6.08h-3.29v-6.08Zm0,23.92h3.29v6.08h-3.29v-6.08Zm0,24h3.29v6.08h-3.29v-6.08Zm6.82-47.92h3.37v6.08h-3.37v-6.08Zm0,23.92h3.37v6.08h-3.37v-6.08Zm0,24h3.37v6.08h-3.37v-6.08Z"/></svg>