<?xml version="1.0" encoding="UTF-8"?><svg id="_00" xmlns="http://www.w3.org/2000/svg" viewBox="0 0 100 100"><path d="m90.93,79.98c0,4.6-2.71,7.4-7.56,7.4h-48.74c-4.69,0-7.48-2.79-7.48-7.4v-11.34h-6.49l-4.28,4.85v7.56H5.2v-11.67h8.88l4.44-4.85h8.63v-11.34h-10.77v3.86H5.2v-11.59h11.18v3.62h10.77v-11.1h-8.63l-4.36-5.43H5.2v-11.59h11.18v7.32l4.28,5.59h6.49v-12.82c0-4.6,2.79-7.4,7.48-7.4h48.74c4.85,0,7.56,2.79,7.56,7.4v58.94Zm-4.93,2.79V28.28h-53.84v54.5h53.84ZM37.17,24.83c2.05,0,3.29-1.32,3.29-3.29,0-2.14-1.23-3.45-3.29-3.45s-3.37,1.31-3.37,3.45c0,1.97,1.23,3.29,3.37,3.29Zm1.31,18.99v-4.6h41.1v4.6h-41.1Zm0,13.07v-4.6h29.76v4.6h-29.76Zm0,12.58v-4.6h15.87v4.6h-15.87Zm23.84-3.95l4.77-1.56,3.21,6,6.41-13.89,4.44,2.38-8.79,18.91h-3.7l-6.33-11.84Z"/></svg>