<?xml version="1.0" encoding="UTF-8"?><svg id="_00" xmlns="http://www.w3.org/2000/svg" viewBox="0 0 100 100"><path d="m50,14.96c19.97,0,36.17,16.19,36.17,36.17s-16.19,36.25-36.17,36.25S13.75,71.1,13.75,51.13,30.02,14.96,50,14.96Zm-26.14,33.7c.58-5.75,3.04-11.02,6.74-15.04l-3.7-3.37c-4.36,4.77-7.23,11.01-7.97,17.84l4.93.58Zm-2.38,15.37c4.93,10.85,15.86,18.41,28.52,18.41,6.49,0,12.58-1.97,17.59-5.42l-2.88-4.11c-4.19,2.88-9.29,4.6-14.71,4.6-10.69,0-19.81-6.41-23.92-15.54l-4.6,2.05Zm21.86-38.14c2.06-.58,4.36-.82,6.66-.82,14.47,0,26.22,11.75,26.22,26.22h4.93c0-17.26-13.97-31.24-31.15-31.24-2.71,0-5.42.33-7.97.99l1.31,4.85Z"/></svg>