<?xml version="1.0" encoding="UTF-8"?><svg id="_00" xmlns="http://www.w3.org/2000/svg" viewBox="0 0 100 100"><path d="m84.19,78.17c0,4.52-2.71,7.32-7.56,7.32H22.71c-4.69,0-7.48-2.79-7.48-7.32V23.84c0-4.6,2.79-7.4,7.48-7.4h53.92c4.85,0,7.56,2.79,7.56,7.4v54.33Zm-27.04-47.02c-.49.82-.99,1.89-1.32,2.71-1.97-.33-4.03-.41-6-.41s-3.95.08-5.92.41c-.41-.82-.9-1.89-1.56-2.79-3.7.66-7.31,1.81-10.69,3.37-6.74,10.11-8.63,19.97-7.64,29.84,4.44,3.29,8.79,5.26,13.23,6.49.99-1.4,1.89-2.79,2.55-4.52-1.4-.58-2.71-1.23-4.11-2.22.33-.25.58-.49.99-.66,4.27,1.89,8.71,2.88,13.15,2.88s8.88-.99,13.07-2.88h.16c.33.16.58.41.82.9-1.32.74-2.63,1.4-4.11,2.14.74,1.56,1.64,2.96,2.79,4.44,4.27-1.31,8.63-3.29,13.15-6.74,1.07-11.26-1.81-21.04-7.81-29.76-3.29-1.48-6.9-2.63-10.77-3.21Zm-20.63,21.78c0-2.88,2.05-5.26,4.69-5.26s4.69,2.38,4.69,5.26-2.05,5.26-4.69,5.26-4.69-2.38-4.69-5.26Zm17.34,0c0-2.88,2.06-5.26,4.69-5.26s4.69,2.38,4.69,5.26-2.05,5.26-4.69,5.26-4.69-2.38-4.69-5.26Z"/></svg>