<?xml version="1.0" encoding="UTF-8"?><svg id="_00" xmlns="http://www.w3.org/2000/svg" viewBox="0 0 100 100"><path d="m7.99,49.32v-11.67h3.78v11.67h-3.78Zm0,18.25v-11.67h3.78v11.67h-3.78Zm0,17.92v-11.67h3.78v7.89h7.81v3.78H7.99Zm4.44-52.85h-4.11v-16.36h16.28v4.52l-8.63-.08,7.73,8.55-3.7,3.37-7.48-8.88-.08,8.88Zm63.38,52.85H24.27v-51.46h51.54v51.46ZM28.54,20.22v-3.95h11.18v3.95h-11.18Zm.66,18.41v42.25h41.67v-42.25H29.2Zm6.58,7.4c1.73,0,2.96,1.23,2.96,2.96s-1.23,2.96-2.96,2.96-2.96-1.15-2.96-2.96,1.15-2.96,2.96-2.96Zm0,8.63c1.73,0,2.96,1.15,2.96,2.88s-1.23,2.96-2.96,2.96-2.96-1.15-2.96-2.96,1.15-2.88,2.96-2.88Zm0,8.71c1.73,0,2.96,1.15,2.96,2.96s-1.23,2.96-2.96,2.96-2.96-1.23-2.96-2.96,1.15-2.96,2.96-2.96Zm0,8.38c1.73,0,2.96,1.23,2.96,2.96s-1.23,2.96-2.96,2.96-2.96-1.15-2.96-2.96,1.15-2.96,2.96-2.96Zm4.52-12.25v-3.78h4.69v3.78h-4.69Zm0,8.71v-3.78h4.69v3.78h-4.69Zm0,8.47v-3.78h4.69v3.78h-4.69Zm6-29.67l-1.56-6.33,14.63,9.7h-18.82v-3.37h5.75Zm-2.06-26.8v-3.95h11.1v3.95h-11.1Zm3.29,39.29v-3.78h4.6v3.78h-4.6Zm0,8.71v-3.78h4.6v3.78h-4.6Zm0,8.47v-3.78h4.6v3.78h-4.6Zm6.99-17.18v-3.78h4.69v3.78h-4.69Zm0,8.71v-3.78h4.69v3.78h-4.69Zm0,8.47v-3.78h4.69v3.78h-4.69Zm5.51-56.47v-3.95h11.18v3.95h-11.18Zm3.78,25.81c1.81,0,2.96,1.23,2.96,2.96s-1.15,2.96-2.96,2.96-2.96-1.15-2.96-2.96,1.23-2.96,2.96-2.96Zm0,8.63c1.81,0,2.96,1.15,2.96,2.88s-1.15,2.96-2.96,2.96-2.96-1.15-2.96-2.96,1.23-2.88,2.96-2.88Zm0,8.71c1.81,0,2.96,1.15,2.96,2.96s-1.15,2.96-2.96,2.96-2.96-1.23-2.96-2.96,1.23-2.96,2.96-2.96Zm0,8.38c1.81,0,2.96,1.23,2.96,2.96s-1.15,2.96-2.96,2.96-2.96-1.15-2.96-2.96,1.23-2.96,2.96-2.96Zm28.19-55.48v16.36h-4.27l-.08-8.88-7.48,8.88-3.7-3.37,7.73-8.55-8.63.08v-4.52h16.44Zm-3.78,57.54h3.78v11.67h-11.59v-3.78h7.81v-7.89Zm0-36.17h3.78v11.67h-3.78v-11.67Zm0,18.25h3.78v11.67h-3.78v-11.67Z"/></svg>