<?xml version="1.0" encoding="UTF-8"?><svg id="_00" xmlns="http://www.w3.org/2000/svg" viewBox="0 0 100 100"><path d="m84.19,78.17c0,4.52-2.71,7.32-7.56,7.32H22.71c-4.69,0-7.48-2.79-7.48-7.32V23.84c0-4.6,2.79-7.4,7.48-7.4h53.92c4.85,0,7.56,2.79,7.56,7.4v54.33Zm-61.57-20.71c0,6.49,2.71,12.41,10.03,12.41,3.37,0,5.92-1.48,8.88-5.43,1.73-2.3,2.55-3.7,6-9.7l1.64-3.04c.25-.33.41-.58.58-.9,2.22,3.62,4.03,7.15,5.1,8.88,2.88,4.85,6.25,10.19,12.41,10.19,7.07,0,9.29-6.49,9.29-12.49s-1.56-12-4.69-16.69c-2.88-4.27-6.66-6.58-10.6-6.58-4.77,0-8.38,4.11-11.01,7.64-3.04-4.11-6.58-7.64-12.08-7.64-10.69,0-15.54,14.63-15.54,23.34Zm9.62-13.4c1.56-2.47,3.53-4.11,5.84-4.11,2.96,0,6.08,3.04,8.79,6.74l-2.3,3.53c-1.73,2.63-4.19,6.82-6.33,9.78-2.71,3.7-4.11,4.11-5.59,4.11-3.37,0-4.19-3.78-4.19-6.41,0-5.01,1.4-10.19,3.78-13.65Zm28.77-5.34c7.73,0,10.44,13.07,10.44,18.82,0,3.53-.9,6.58-4.19,6.58-3.86,0-8.96-10.36-14.38-18.66,1.73-2.79,4.44-6.74,8.14-6.74Z"/></svg>