<?xml version="1.0" encoding="UTF-8"?><svg id="_00" xmlns="http://www.w3.org/2000/svg" viewBox="0 0 100 100"><path d="m12.02,63.29c.66,0,1.32.08,1.89.25l3.21-4.27c-.82-.9-1.32-2.14-1.32-3.45,0-.9.25-1.73.58-2.38H3.14v-4.93h93.62v4.93h-4.77c-.16,3.86-2.71,6.49-6.49,6.82l-3.04,14.47c.9.99,1.48,2.3,1.48,3.7,0,2.88-2.3,5.18-5.18,5.18s-5.18-2.3-5.18-5.18c0-.82.25-1.56.58-2.3l-5.42-8.14c-.82.49-1.73.82-2.79.82-2.47,0-4.52-1.73-5.01-4.03l-10.11.41c-.16,1.97-1.07,3.62-2.47,4.69l5.59,7.4c.49-.16,1.07-.25,1.64-.25,2.88,0,5.18,2.3,5.18,5.18s-2.3,5.18-5.18,5.18-5.18-2.38-5.18-5.18c0-1.23.41-2.38,1.15-3.29l-5.92-7.81c-.66.16-1.23.25-1.89.25-.82,0-1.56-.16-2.22-.33l-6.41,8.8c.08.33.08.66.08.99,0,2.3-1.89,4.19-4.19,4.19s-4.19-1.89-4.19-4.19c0-.74.16-1.4.49-1.97l-6.08-17.84c-.74,0-1.15-.08-1.56-.25l-3.12,4.03c1.64,1.23,2.63,3.21,2.63,5.67,0,4.36-2.88,7.23-7.15,7.23s-7.15-2.88-7.15-7.23,2.79-7.15,7.15-7.15Zm6.41-46.03c7.64,0,13.81,6.17,13.81,13.81s-6.17,13.73-13.81,13.73-13.81-6.17-13.81-13.73,6.25-13.81,13.81-13.81Zm-7.4,12.99c.17-1.64.9-3.21,2.06-4.36l-2.3-2.06c-1.56,1.64-2.55,3.78-2.79,6.08l3.04.33Zm.99,43.65c1.97,0,3.37-1.4,3.37-3.45s-1.4-3.37-3.37-3.37-3.37,1.4-3.37,3.37,1.32,3.45,3.37,3.45Zm-3.12-38.47c1.64,3.62,5.34,6.17,9.54,6.17,2.3,0,4.36-.74,6.08-1.97l-1.73-2.55c-1.23.9-2.71,1.4-4.36,1.4-2.96,0-5.59-1.73-6.74-4.36l-2.79,1.32Zm20.06-4.44c0-5.75-4.68-10.44-10.52-10.44-.82,0-1.64.08-2.46.25l.82,2.96c.49-.08,1.07-.16,1.64-.16,4.11,0,7.48,3.29,7.48,7.4h3.04Zm7.73,31.98l-11.26-4.6c-.33.66-.82,1.15-1.4,1.64l5.67,16.77c.41-.08.82-.16,1.32-.16.9,0,1.64.25,2.3.66l5.51-7.64c-1.4-1.23-2.22-3.12-2.22-5.51,0-.41,0-.82.08-1.15Zm-10.19-7.4l11.1,4.6c1.15-1.97,3.37-3.21,6.17-3.21l.74-3.53h-13.73l-4.27,2.14Zm14.71-40.85l24.41,12.17h-31.81v-4.44h9.95l-2.55-7.73Zm-7.23,18.74h31.48v4.44h-9.45l2.38,7.15-24.41-11.59Zm9.78,34.03c2.05,0,3.37-1.32,3.37-3.37s-1.31-3.37-3.37-3.37-3.37,1.4-3.37,3.37,1.32,3.37,3.37,3.37Zm17.34-5.51c.16-.49.33-.9.66-1.32l-7.07-7.23h-7.23l-.66,4.11c2.05.82,3.45,2.55,3.95,4.85l10.36-.41Zm-2.3-8.55l5.18,5.43c.41-.16.82-.33,1.15-.33l.33-5.1h-6.66Zm22.44-36.17c7.56,0,13.73,6.17,13.73,13.81s-6.16,13.73-13.73,13.73-13.81-6.17-13.81-13.73,6.17-13.81,13.81-13.81Zm-3.21,38.22c-.16-.66-.33-1.32-.33-2.06h-9.37l-.25,5.43c.41.25.82.49,1.15.74l8.79-4.11Zm-1.89,18.49c.74-.49,1.64-.74,2.63-.74.33,0,.66,0,.99.08l2.71-13.4c-1.23-.33-2.3-1.07-3.12-1.97l-8.47,3.95c.16.58.25,1.15.25,1.73,0,.82-.17,1.56-.49,2.22l5.51,8.14Zm5.1-32.39c5.75,0,10.52-4.77,10.52-10.52s-4.77-10.52-10.52-10.52-10.52,4.69-10.52,10.52,4.69,10.52,10.52,10.52Zm0-18c4.11,0,7.4,3.37,7.4,7.48s-3.29,7.4-7.4,7.4-7.48-3.29-7.48-7.4,3.37-7.48,7.48-7.48Zm.25,29.84c.17,1.81,1.48,3.04,3.37,3.04s3.21-1.23,3.37-3.04h-6.74Z"/></svg>