<?xml version="1.0" encoding="UTF-8"?><svg id="_00" xmlns="http://www.w3.org/2000/svg" viewBox="0 0 100 100"><path d="m50,14.63c20.06,0,36.33,16.28,36.33,36.33s-16.28,36.41-36.33,36.41S13.58,71.1,13.58,50.96,29.86,14.63,50,14.63Zm0,67.9c17.34,0,31.48-14.14,31.48-31.56s-14.14-31.48-31.48-31.48-31.56,14.14-31.56,31.48,14.14,31.56,31.56,31.56Zm-6.49-18.25h20.39v5.34h-27.21v-6l12.82-11.26c4.11-3.53,6.41-6.74,6.41-10.27v-.66c0-4.11-2.38-6.41-6.58-6.41s-6.58,2.55-7.64,6.17l-5.59-2.06c1.64-5.01,5.59-9.62,13.64-9.62s12.82,4.85,12.82,11.59c0,6.25-4.03,10.52-9.54,15.12l-9.54,8.06Z"/></svg>