<?xml version="1.0" encoding="UTF-8"?><svg id="_00" xmlns="http://www.w3.org/2000/svg" viewBox="0 0 100 100"><path d="m50.08,14.55c20.14,0,36.5,16.28,36.5,36.41s-16.36,36.5-36.5,36.5S13.66,71.1,13.66,50.97,29.94,14.55,50.08,14.55Zm-23.02,57.95c2.55-5.43,7.64-8.96,22.69-8.96s20.63,3.45,23.26,9.04c5.34-5.67,8.63-13.23,8.63-21.62,0-17.43-14.14-31.48-31.56-31.48s-31.48,14.06-31.48,31.48c0,8.3,3.21,15.95,8.47,21.54Zm22.61-46.28c8.79,0,13.23,5.34,13.23,15.86s-6.33,15.86-13.23,15.86-13.15-5.34-13.15-15.86,4.44-15.86,13.15-15.86Z"/></svg>