<?xml version="1.0" encoding="UTF-8"?><svg id="_00" xmlns="http://www.w3.org/2000/svg" viewBox="0 0 100 100"><path d="m52.46,90.91h-4.93v-3.7c-19.07-1.07-33.87-16.93-33.87-36.25S28.62,16.11,47.53,14.88v-4.27h4.93v4.27c18.82,1.31,33.78,17.02,33.78,36.17s-15.12,34.61-33.78,36.09v3.78Zm-28.61-43.81c.58-4.27,2.22-8.14,4.6-11.51l-3.54-3.45c-3.21,4.27-5.34,9.37-6.08,14.96h5.01Zm4.85,19.56c-2.38-3.29-4.11-7.07-4.77-11.26h-5.01c.82,5.51,3.04,10.6,6.25,14.8l3.54-3.53Zm5.59-36.99c3.37-2.47,7.32-4.19,11.51-4.85v-4.93c-5.59.74-10.69,2.96-14.96,6.25l3.45,3.53Zm-3.12,46.36c4.19,3.12,9.21,5.26,14.63,6v-4.93c-4.11-.66-7.89-2.3-11.18-4.6l-3.45,3.53Zm16.36-40.2h4.93v-6.17h-4.93v6.17Zm0,12.33h4.93v-6.17h-4.93v6.17Zm0,12.25h4.93v-6.08h-4.93v6.08Zm0,12.33h4.93v-6.17h-4.93v6.17Zm4.93-47.92c9.62.9,17.67,6.9,21.45,15.37l4.6-2.06c-4.6-10.19-14.47-17.43-26.06-18.33v5.01Zm0,57.21c1.89-.16,3.7-.49,5.51-.9l-1.23-4.85c-1.4.33-2.88.58-4.27.74v5.01Zm20.63-10.11c4.36-4.77,7.32-11.02,7.97-17.84l-4.93-.58c-.58,5.75-3.04,11.01-6.74,15.04l3.7,3.37Z"/></svg>