<?xml version="1.0" encoding="UTF-8"?><svg id="_00" xmlns="http://www.w3.org/2000/svg" viewBox="0 0 100 100"><path d="m84.19,78.17c0,4.52-2.71,7.32-7.56,7.32H22.71c-4.69,0-7.48-2.79-7.48-7.32V23.84c0-4.6,2.79-7.4,7.48-7.4h53.92c4.85,0,7.56,2.79,7.56,7.4v54.33ZM27.64,44.47l-6.49,6.49,6.49,6.49,6.49-6.49-6.49-6.49Zm39.87-4.6l-17.67-17.59-17.59,17.59,6.49,6.49,11.1-11.1,11.18,11.1,6.49-6.49Zm-6.49,15.7l-11.18,11.1-11.1-11.1-6.49,6.41,17.59,17.67,17.67-17.67-6.49-6.41Zm-11.18,1.97l6.58-6.58-6.58-6.58-6.58,6.58,6.58,6.58Zm22.19-13.07l-6.41,6.49,6.41,6.49,6.49-6.49-6.49-6.49Z"/></svg>