<?xml version="1.0" encoding="UTF-8"?><svg id="_00" xmlns="http://www.w3.org/2000/svg" viewBox="0 0 100 100"><path d="m32.65,64.28c0,2.79-1.64,4.44-4.52,4.44H11.86c-2.88,0-4.52-1.64-4.52-4.44v-14.96c0-2.47,1.31-4.11,3.53-4.44v-4.52c0-6.82,3.37-10.6,9.04-10.6s9.04,3.7,9.04,10.6v4.52c2.38.33,3.7,1.89,3.7,4.44v14.96Zm-17.51-19.4h9.54v-4.44c0-3.78-.99-6.49-4.77-6.49-3.45,0-4.77,2.71-4.77,6.49v4.44Zm3.21,11.59l-1.89,6.74v1.97h6.91v-1.97l-1.89-6.74c1.56-.58,2.47-1.97,2.47-3.78,0-2.47-1.64-4.11-4.03-4.11s-4.11,1.64-4.11,4.11c0,1.89.99,3.29,2.55,3.78Zm33.04-6.66l.08,15.95c0,3.95-2.55,6.41-7.4,6.41h-3.37l-.08-4.77h6.08v-4.93h-6.08v-4.69h6.08v-7.97c-4.36-.9-7.15-4.27-7.15-9.12,0-5.67,3.78-9.37,9.37-9.37s9.37,3.7,9.37,9.37c.08,4.77-2.63,8.14-6.9,9.12Zm-2.47-13.89c-2.79,0-4.69,1.89-4.69,4.77s1.89,4.69,4.69,4.69,4.77-1.89,4.77-4.69-1.89-4.77-4.77-4.77Zm29.18,7.89c9.21,0,14.88,6.17,16.6,10.19-1.73,3.95-7.56,10.27-16.6,10.27s-15.12-6.33-16.61-10.27c1.48-3.86,7.48-10.19,16.61-10.19Zm0,16.03c3.53,0,5.84-2.38,5.84-5.84s-2.3-5.84-5.84-5.84-5.75,2.38-5.75,5.84,2.3,5.84,5.75,5.84Z"/></svg>