<?xml version="1.0" encoding="UTF-8"?><svg id="_00" xmlns="http://www.w3.org/2000/svg" viewBox="0 0 100 100"><path d="m61.42,60.17l15.29,2.79c5.75,1.07,8.3,6,8.3,10.52v12H14.24l-.08-11.59c0-4.93,2.14-10.6,8.88-11.59l15.87-2.3-2.14-7.89h-1.97c-3.04,0-4.36-1.07-4.36-3.37v-11.26c0-1.64.66-2.71,2.05-3.04-2.71-10.19,3.37-18.91,12.82-18.91l9.62.08c8.47.08,15.04,8.47,12.25,18.82,1.48.25,2.22,1.31,2.22,3.04v11.26c0,2.3-1.32,3.37-4.36,3.37h-1.56l-2.06,8.05Zm-21.54,21.37c-1.32-4.85-4.03-9.62-9.37-9.62-6.25,0-8.22,4.77-9.7,9.62h19.07Zm-5.59-33.21h31.24v-10.11h-31.24v10.11Zm13.23,12.08c6.99.33,10.69-1.07,12-5.92l.41-2.38h-19.89l2.47,11.34-6.99,1.23c1.07,6.66,7.15,10.44,14.55,10.44s13.48-3.7,14.55-10.36l-9.86-1.81c-1.73.33-3.86.49-6.82.33l-.41-2.88Zm15.29-26.06c0-3.95-1.97-6.9-5.43-6.9-3.12,0-4.11,3.7-7.4,3.7s-3.7-3.78-7.07-3.78c-4.11,0-5.75,3.04-5.75,6.99h25.65Z"/></svg>