<?xml version="1.0" encoding="UTF-8"?><svg id="_00" xmlns="http://www.w3.org/2000/svg" viewBox="0 0 100 100"><path d="m4.46,53.18v-4.6h8.22v4.6H4.46Zm11.43-2.38c0-4.36,1.64-6.9,5.18-6.9s5.26,2.55,5.26,6.9-1.64,6.9-5.26,6.9-5.18-2.55-5.18-6.9Zm7.4,1.15v-2.3c0-2.14-.58-3.45-2.22-3.45s-2.14,1.32-2.14,3.45v2.3c0,2.22.49,3.45,2.14,3.45s2.22-1.23,2.22-3.45Zm5.42-1.15c0-4.36,1.64-6.9,5.26-6.9s5.18,2.55,5.18,6.9-1.64,6.9-5.18,6.9-5.26-2.55-5.26-6.9Zm7.4,1.15v-2.3c0-2.14-.49-3.45-2.14-3.45s-2.14,1.32-2.14,3.45v2.3c0,2.22.49,3.45,2.14,3.45s2.14-1.23,2.14-3.45Zm5.51-1.15c0-4.36,1.64-6.9,5.26-6.9s5.18,2.55,5.18,6.9-1.64,6.9-5.18,6.9-5.26-2.55-5.26-6.9Zm7.4,1.15v-2.3c0-2.14-.49-3.45-2.14-3.45s-2.14,1.32-2.14,3.45v2.3c0,2.22.49,3.45,2.14,3.45s2.14-1.23,2.14-3.45Zm5.26-1.15c0-4.36,1.64-6.9,5.26-6.9s5.26,2.55,5.26,6.9-1.64,6.9-5.26,6.9-5.26-2.55-5.26-6.9Zm7.4,1.15v-2.3c0-2.14-.49-3.45-2.14-3.45s-2.14,1.32-2.14,3.45v2.3c0,2.22.49,3.45,2.14,3.45s2.14-1.23,2.14-3.45Zm6.17,11.18h4.93v11.92h-4.93v-11.92Zm.66-35.92h4.93v11.92h-4.93v-11.92Zm4.93,26.06v-4.6h18.74v4.6h-18.74Z"/></svg>